<?xml version="1.0" encoding="UTF-8" standalone="no"?>
<!DOCTYPE svg PUBLIC "-//W3C//DTD SVG 1.1//EN"
 "http://www.w3.org/Graphics/SVG/1.1/DTD/svg11.dtd">
<!-- Generated by graphviz version 5.0.0 (20220707.1540)
 -->
<!-- Pages: 1 -->
<svg width="511pt" height="92pt"
 viewBox="0.00 0.00 511.00 91.70" xmlns="http://www.w3.org/2000/svg" xmlns:xlink="http://www.w3.org/1999/xlink">
<g id="graph0" class="graph" transform="scale(1 1) rotate(0) translate(4 87.7)">
<polygon fill="white" stroke="transparent" points="-4,4 -4,-87.7 507,-87.7 507,4 -4,4"/>
<!-- &#45;1 -->
<g id="node1" class="node">
<title>&#45;1</title>
<polygon fill="lightgray" stroke="black" points="251,-83.7 227,-83.7 227,-65.7 251,-65.7 251,-83.7"/>
<text text-anchor="middle" x="239" y="-72.5" font-family="Times New Roman,serif" font-size="9.00">&#45;1</text>
</g>
<!-- 0 -->
<g id="node13" class="node">
<title>0</title>
<ellipse fill="lightblue" stroke="black" cx="239" cy="-14.85" rx="14.7" ry="14.7"/>
<text text-anchor="middle" x="239" y="-12.65" font-family="Times New Roman,serif" font-size="9.00">0</text>
</g>
<!-- &#45;1&#45;&gt;0 -->
<g id="edge1" class="edge">
<title>&#45;1&#45;&gt;0</title>
<path fill="none" stroke="green" stroke-width="0.15" stroke-dasharray="1,5" d="M239,-65.65C239,-59.05 239,-49.33 239,-40.23"/>
<polygon fill="green" stroke="green" stroke-width="0.15" points="242.5,-40.06 239,-30.06 235.5,-40.06 242.5,-40.06"/>
</g>
<!-- 1 -->
<g id="node14" class="node">
<title>1</title>
<ellipse fill="lightblue" stroke="black" cx="287" cy="-14.85" rx="14.7" ry="14.7"/>
<text text-anchor="middle" x="287" y="-12.65" font-family="Times New Roman,serif" font-size="9.00">1</text>
</g>
<!-- &#45;1&#45;&gt;1 -->
<g id="edge2" class="edge">
<title>&#45;1&#45;&gt;1</title>
<path fill="none" stroke="red" stroke-width="0.29" d="M245.67,-65.65C252.26,-57.72 262.57,-45.29 271.25,-34.83"/>
<polygon fill="red" stroke="red" stroke-width="0.29" points="274.06,-36.93 277.75,-26.99 268.67,-32.46 274.06,-36.93"/>
</g>
<!-- 2 -->
<g id="node15" class="node">
<title>2</title>
<ellipse fill="lightblue" stroke="black" cx="191" cy="-14.85" rx="14.7" ry="14.7"/>
<text text-anchor="middle" x="191" y="-12.65" font-family="Times New Roman,serif" font-size="9.00">2</text>
</g>
<!-- &#45;1&#45;&gt;2 -->
<g id="edge3" class="edge">
<title>&#45;1&#45;&gt;2</title>
<path fill="none" stroke="red" stroke-width="0.2" d="M232.33,-65.65C225.74,-57.72 215.43,-45.29 206.75,-34.83"/>
<polygon fill="red" stroke="red" stroke-width="0.2" points="209.33,-32.46 200.25,-26.99 203.94,-36.93 209.33,-32.46"/>
</g>
<!-- 3 -->
<g id="node16" class="node">
<title>3</title>
<ellipse fill="lightblue" stroke="black" cx="335" cy="-14.85" rx="14.7" ry="14.7"/>
<text text-anchor="middle" x="335" y="-12.65" font-family="Times New Roman,serif" font-size="9.00">3</text>
</g>
<!-- &#45;1&#45;&gt;3 -->
<g id="edge4" class="edge">
<title>&#45;1&#45;&gt;3</title>
<path fill="none" stroke="red" stroke-width="1.23" d="M251.16,-66.37C266.94,-56.86 294.73,-40.11 313.97,-28.52"/>
<polygon fill="red" stroke="red" stroke-width="1.23" points="315.88,-31.46 322.64,-23.3 312.27,-25.46 315.88,-31.46"/>
</g>
<!-- &#45;2 -->
<g id="node2" class="node">
<title>&#45;2</title>
<polygon fill="lightgray" stroke="black" points="293,-83.7 269,-83.7 269,-65.7 293,-65.7 293,-83.7"/>
<text text-anchor="middle" x="281" y="-72.5" font-family="Times New Roman,serif" font-size="9.00">&#45;2</text>
</g>
<!-- &#45;2&#45;&gt;0 -->
<g id="edge5" class="edge">
<title>&#45;2&#45;&gt;0</title>
<path fill="none" stroke="red" stroke-width="0.19" d="M275.16,-65.65C269.53,-57.89 260.77,-45.84 253.29,-35.53"/>
<polygon fill="red" stroke="red" stroke-width="0.19" points="256.11,-33.45 247.4,-27.42 250.44,-37.57 256.11,-33.45"/>
</g>
<!-- &#45;2&#45;&gt;1 -->
<g id="edge6" class="edge">
<title>&#45;2&#45;&gt;1</title>
<path fill="none" stroke="green" stroke-width="1.18" d="M281.83,-65.65C282.52,-59.05 283.53,-49.33 284.47,-40.23"/>
<polygon fill="green" stroke="green" stroke-width="1.18" points="287.98,-40.36 285.53,-30.06 281.01,-39.64 287.98,-40.36"/>
</g>
<!-- &#45;2&#45;&gt;2 -->
<g id="edge7" class="edge">
<title>&#45;2&#45;&gt;2</title>
<path fill="none" stroke="red" stroke-width="0.61" d="M268.86,-65.9C254.23,-56.49 229.42,-40.55 211.74,-29.18"/>
<polygon fill="red" stroke="red" stroke-width="0.61" points="213.54,-26.18 203.23,-23.71 209.75,-32.06 213.54,-26.18"/>
</g>
<!-- &#45;2&#45;&gt;3 -->
<g id="edge8" class="edge">
<title>&#45;2&#45;&gt;3</title>
<path fill="none" stroke="green" stroke-width="0.48" d="M288.51,-65.65C296.18,-57.44 308.33,-44.42 318.29,-33.75"/>
<polygon fill="green" stroke="green" stroke-width="0.48" points="321.1,-35.86 325.37,-26.17 315.99,-31.09 321.1,-35.86"/>
</g>
<!-- &#45;3 -->
<g id="node3" class="node">
<title>&#45;3</title>
<polygon fill="lightgray" stroke="black" points="335,-83.7 311,-83.7 311,-65.7 335,-65.7 335,-83.7"/>
<text text-anchor="middle" x="323" y="-72.5" font-family="Times New Roman,serif" font-size="9.00">&#45;3</text>
</g>
<!-- &#45;3&#45;&gt;0 -->
<g id="edge9" class="edge">
<title>&#45;3&#45;&gt;0</title>
<path fill="none" stroke="green" stroke-width="0.84" d="M311.32,-65.65C297.86,-56.38 275.49,-40.98 259.19,-29.75"/>
<polygon fill="green" stroke="green" stroke-width="0.84" points="261.07,-26.8 250.85,-24.01 257.1,-32.57 261.07,-26.8"/>
</g>
<!-- &#45;3&#45;&gt;1 -->
<g id="edge10" class="edge">
<title>&#45;3&#45;&gt;1</title>
<path fill="none" stroke="green" stroke-width="0.13" d="M317.99,-65.65C313.32,-58.14 306.14,-46.61 299.87,-36.53"/>
<polygon fill="green" stroke="green" stroke-width="0.13" points="302.72,-34.49 294.46,-27.84 296.78,-38.18 302.72,-34.49"/>
</g>
<!-- &#45;3&#45;&gt;2 -->
<g id="edge11" class="edge">
<title>&#45;3&#45;&gt;2</title>
<path fill="none" stroke="red" stroke-width="0.22" d="M310.92,-69.02C286.66,-59.58 232.82,-38.42 215,-29.7 214.17,-29.29 213.33,-28.87 212.48,-28.43"/>
<polygon fill="red" stroke="red" stroke-width="0.22" points="213.98,-25.26 203.53,-23.51 210.61,-31.39 213.98,-25.26"/>
</g>
<!-- &#45;3&#45;&gt;3 -->
<g id="edge12" class="edge">
<title>&#45;3&#45;&gt;3</title>
<path fill="none" stroke="green" stroke-width="0.65" d="M324.67,-65.65C326.07,-58.89 328.15,-48.86 330.08,-39.57"/>
<polygon fill="green" stroke="green" stroke-width="0.65" points="333.54,-40.11 332.15,-29.6 326.69,-38.69 333.54,-40.11"/>
</g>
<!-- &#45;4 -->
<g id="node4" class="node">
<title>&#45;4</title>
<polygon fill="lightgray" stroke="black" points="377,-83.7 353,-83.7 353,-65.7 377,-65.7 377,-83.7"/>
<text text-anchor="middle" x="365" y="-72.5" font-family="Times New Roman,serif" font-size="9.00">&#45;4</text>
</g>
<!-- &#45;4&#45;&gt;0 -->
<g id="edge13" class="edge">
<title>&#45;4&#45;&gt;0</title>
<path fill="none" stroke="green" stroke-width="0.69" d="M352.86,-68.99C333.53,-61.39 294.71,-45.62 263,-29.7 262.17,-29.28 261.33,-28.85 260.49,-28.41"/>
<polygon fill="green" stroke="green" stroke-width="0.69" points="262,-25.24 251.55,-23.46 258.61,-31.37 262,-25.24"/>
</g>
<!-- &#45;4&#45;&gt;1 -->
<g id="edge14" class="edge">
<title>&#45;4&#45;&gt;1</title>
<path fill="none" stroke="green" stroke-width="0.21" stroke-dasharray="1,5" d="M354.15,-65.65C341.91,-56.57 321.73,-41.61 306.68,-30.45"/>
<polygon fill="green" stroke="green" stroke-width="0.21" points="308.63,-27.53 298.51,-24.39 304.46,-33.16 308.63,-27.53"/>
</g>
<!-- &#45;4&#45;&gt;2 -->
<g id="edge15" class="edge">
<title>&#45;4&#45;&gt;2</title>
<path fill="none" stroke="red" stroke-width="0.39" d="M352.63,-68.77C349.81,-67.71 346.82,-66.63 344,-65.7 287.46,-47.08 269.88,-52.76 215,-29.7 214.15,-29.34 213.29,-28.96 212.42,-28.55"/>
<polygon fill="red" stroke="red" stroke-width="0.39" points="213.88,-25.37 203.4,-23.8 210.61,-31.56 213.88,-25.37"/>
</g>
<!-- &#45;4&#45;&gt;3 -->
<g id="edge16" class="edge">
<title>&#45;4&#45;&gt;3</title>
<path fill="none" stroke="green" stroke-width="0.42" stroke-dasharray="1,5" d="M360.83,-65.65C357.02,-58.31 351.22,-47.13 346.08,-37.22"/>
<polygon fill="green" stroke="green" stroke-width="0.42" points="349.16,-35.54 341.44,-28.28 342.94,-38.77 349.16,-35.54"/>
</g>
<!-- &#45;5 -->
<g id="node5" class="node">
<title>&#45;5</title>
<polygon fill="lightgray" stroke="black" points="419,-83.7 395,-83.7 395,-65.7 419,-65.7 419,-83.7"/>
<text text-anchor="middle" x="407" y="-72.5" font-family="Times New Roman,serif" font-size="9.00">&#45;5</text>
</g>
<!-- &#45;5&#45;&gt;0 -->
<g id="edge17" class="edge">
<title>&#45;5&#45;&gt;0</title>
<path fill="none" stroke="green" stroke-width="0.35" d="M394.62,-68.8C391.8,-67.73 388.81,-66.64 386,-65.7 332.01,-47.55 315.37,-52.09 263,-29.7 262.15,-29.33 261.29,-28.95 260.43,-28.54"/>
<polygon fill="green" stroke="green" stroke-width="0.35" points="261.89,-25.35 251.41,-23.76 258.61,-31.54 261.89,-25.35"/>
</g>
<!-- &#45;5&#45;&gt;1 -->
<g id="edge18" class="edge">
<title>&#45;5&#45;&gt;1</title>
<path fill="none" stroke="green" stroke-width="0.25" d="M394.7,-68.5C376.27,-60.61 340.49,-44.92 311,-29.7 310.18,-29.27 309.34,-28.83 308.5,-28.39"/>
<polygon fill="green" stroke="green" stroke-width="0.25" points="310.02,-25.22 299.58,-23.41 306.61,-31.34 310.02,-25.22"/>
</g>
<!-- &#45;5&#45;&gt;2 -->
<g id="edge19" class="edge">
<title>&#45;5&#45;&gt;2</title>
<path fill="none" stroke="green" stroke-width="0.12" d="M394.67,-68.63C391.85,-67.58 388.84,-66.53 386,-65.7 311.48,-43.81 287.54,-57.45 215,-29.7 214.14,-29.37 213.26,-29.01 212.39,-28.63"/>
<polygon fill="green" stroke="green" stroke-width="0.12" points="213.83,-25.43 203.33,-23.96 210.62,-31.65 213.83,-25.43"/>
</g>
<!-- &#45;5&#45;&gt;3 -->
<g id="edge20" class="edge">
<title>&#45;5&#45;&gt;3</title>
<path fill="none" stroke="green" stroke-width="1.79" d="M396.99,-65.65C385.98,-56.81 368.03,-42.39 354.27,-31.34"/>
<polygon fill="green" stroke="green" stroke-width="1.79" points="356.34,-28.5 346.35,-24.97 351.95,-33.96 356.34,-28.5"/>
</g>
<!-- &#45;6 -->
<g id="node6" class="node">
<title>&#45;6</title>
<polygon fill="lightgray" stroke="black" points="24,-83.7 0,-83.7 0,-65.7 24,-65.7 24,-83.7"/>
<text text-anchor="middle" x="12" y="-72.5" font-family="Times New Roman,serif" font-size="9.00">&#45;6</text>
</g>
<!-- &#45;6&#45;&gt;0 -->
<g id="edge21" class="edge">
<title>&#45;6&#45;&gt;0</title>
<path fill="none" stroke="green" stroke-width="0.35" d="M24.32,-68.61C27.14,-67.55 30.15,-66.52 33,-65.7 112.25,-42.94 137.81,-58.69 215,-29.7 215.87,-29.37 216.74,-29.02 217.61,-28.64"/>
<polygon fill="green" stroke="green" stroke-width="0.35" points="219.38,-31.67 226.68,-23.99 216.18,-25.44 219.38,-31.67"/>
</g>
<!-- &#45;6&#45;&gt;1 -->
<g id="edge22" class="edge">
<title>&#45;6&#45;&gt;1</title>
<path fill="none" stroke="red" stroke-width="0.21" d="M24.3,-68.52C27.12,-67.47 30.13,-66.46 33,-65.7 133,-39.14 165.43,-64.14 263,-29.7 263.87,-29.39 264.75,-29.05 265.63,-28.68"/>
<polygon fill="red" stroke="red" stroke-width="0.21" points="267.37,-31.73 274.72,-24.09 264.21,-25.48 267.37,-31.73"/>
</g>
<!-- &#45;6&#45;&gt;2 -->
<g id="edge23" class="edge">
<title>&#45;6&#45;&gt;2</title>
<path fill="none" stroke="red" stroke-width="0.89" d="M24.39,-68.84C27.21,-67.77 30.2,-66.67 33,-65.7 80.14,-49.3 135.98,-32.23 167.06,-22.93"/>
<polygon fill="red" stroke="red" stroke-width="0.89" points="168.38,-26.19 176.96,-19.98 166.38,-19.48 168.38,-26.19"/>
</g>
<!-- &#45;7 -->
<g id="node7" class="node">
<title>&#45;7</title>
<polygon fill="lightgray" stroke="black" points="461,-83.7 437,-83.7 437,-65.7 461,-65.7 461,-83.7"/>
<text text-anchor="middle" x="449" y="-72.5" font-family="Times New Roman,serif" font-size="9.00">&#45;7</text>
</g>
<!-- &#45;7&#45;&gt;0 -->
<g id="edge24" class="edge">
<title>&#45;7&#45;&gt;0</title>
<path fill="none" stroke="green" stroke-width="0.33" d="M436.67,-68.65C433.85,-67.59 430.84,-66.54 428,-65.7 356.06,-44.28 333,-56.78 263,-29.7 262.14,-29.36 261.27,-29 260.4,-28.62"/>
<polygon fill="green" stroke="green" stroke-width="0.33" points="261.83,-25.42 251.34,-23.94 258.62,-31.64 261.83,-25.42"/>
</g>
<!-- &#45;7&#45;&gt;1 -->
<g id="edge25" class="edge">
<title>&#45;7&#45;&gt;1</title>
<path fill="none" stroke="red" stroke-width="0.17" d="M436.61,-68.83C433.79,-67.76 430.8,-66.66 428,-65.7 376.55,-48 360.88,-51.43 311,-29.7 310.15,-29.33 309.29,-28.94 308.44,-28.53"/>
<polygon fill="red" stroke="red" stroke-width="0.17" points="309.9,-25.34 299.43,-23.73 306.61,-31.52 309.9,-25.34"/>
</g>
<!-- &#45;7&#45;&gt;2 -->
<g id="edge26" class="edge">
<title>&#45;7&#45;&gt;2</title>
<path fill="none" stroke="red" stroke-width="0.38" d="M436.7,-68.55C433.87,-67.5 430.86,-66.48 428,-65.7 335.36,-40.49 305.34,-62.2 215,-29.7 214.13,-29.38 213.25,-29.04 212.38,-28.67"/>
<polygon fill="red" stroke="red" stroke-width="0.38" points="213.8,-25.47 203.3,-24.06 210.63,-31.71 213.8,-25.47"/>
</g>
<!-- &#45;7&#45;&gt;3 -->
<g id="edge27" class="edge">
<title>&#45;7&#45;&gt;3</title>
<path fill="none" stroke="green" stroke-width="0.23" stroke-dasharray="1,5" d="M436.8,-67.51C417.82,-57.88 380.93,-39.16 357.16,-27.09"/>
<polygon fill="green" stroke="green" stroke-width="0.23" points="358.66,-23.93 348.16,-22.53 355.49,-30.17 358.66,-23.93"/>
</g>
<!-- &#45;8 -->
<g id="node8" class="node">
<title>&#45;8</title>
<polygon fill="lightgray" stroke="black" points="503,-83.7 479,-83.7 479,-65.7 503,-65.7 503,-83.7"/>
<text text-anchor="middle" x="491" y="-72.5" font-family="Times New Roman,serif" font-size="9.00">&#45;8</text>
</g>
<!-- &#45;8&#45;&gt;0 -->
<g id="edge28" class="edge">
<title>&#45;8&#45;&gt;0</title>
<path fill="none" stroke="red" stroke-width="0.23" d="M478.69,-68.56C475.87,-67.51 472.86,-66.48 470,-65.7 379.95,-40.96 350.79,-61.52 263,-29.7 262.13,-29.38 261.25,-29.04 260.38,-28.67"/>
<polygon fill="red" stroke="red" stroke-width="0.23" points="261.8,-25.46 251.3,-24.05 258.63,-31.7 261.8,-25.46"/>
</g>
<!-- &#45;8&#45;&gt;1 -->
<g id="edge29" class="edge">
<title>&#45;8&#45;&gt;1</title>
<path fill="none" stroke="red" stroke-width="0.11" d="M478.66,-68.67C475.84,-67.61 472.84,-66.56 470,-65.7 400.64,-44.75 378.47,-56.1 311,-29.7 310.14,-29.36 309.27,-29 308.4,-28.61"/>
<polygon fill="red" stroke="red" stroke-width="0.11" points="309.84,-25.41 299.35,-23.92 306.62,-31.63 309.84,-25.41"/>
</g>
<!-- &#45;8&#45;&gt;3 -->
<g id="edge30" class="edge">
<title>&#45;8&#45;&gt;3</title>
<path fill="none" stroke="red" stroke-width="0.53" d="M478.57,-68.94C475.75,-67.87 472.78,-66.74 470,-65.7 430.97,-51.06 385.47,-34.33 358.51,-24.45"/>
<polygon fill="red" stroke="red" stroke-width="0.53" points="359.41,-21.05 348.82,-20.9 357,-27.62 359.41,-21.05"/>
</g>
<!-- &#45;9 -->
<g id="node9" class="node">
<title>&#45;9</title>
<polygon fill="lightgray" stroke="black" points="114,-83.7 90,-83.7 90,-65.7 114,-65.7 114,-83.7"/>
<text text-anchor="middle" x="102" y="-72.5" font-family="Times New Roman,serif" font-size="9.00">&#45;9</text>
</g>
<!-- &#45;9&#45;&gt;0 -->
<g id="edge31" class="edge">
<title>&#45;9&#45;&gt;0</title>
<path fill="none" stroke="green" stroke-width="0.49" d="M114.26,-69.19C139.47,-59.89 196.3,-38.67 215,-29.7 215.83,-29.3 216.68,-28.88 217.53,-28.45"/>
<polygon fill="green" stroke="green" stroke-width="0.49" points="219.39,-31.42 226.49,-23.55 216.04,-25.27 219.39,-31.42"/>
</g>
<!-- &#45;9&#45;&gt;1 -->
<g id="edge32" class="edge">
<title>&#45;9&#45;&gt;1</title>
<path fill="none" stroke="green" stroke-width="0.15" d="M114.03,-69.09C117.25,-67.92 120.74,-66.71 124,-65.7 184.95,-46.77 203.94,-53.87 263,-29.7 263.86,-29.35 264.72,-28.97 265.59,-28.58"/>
<polygon fill="green" stroke="green" stroke-width="0.15" points="267.39,-31.58 274.62,-23.84 264.14,-25.38 267.39,-31.58"/>
</g>
<!-- &#45;9&#45;&gt;2 -->
<g id="edge33" class="edge">
<title>&#45;9&#45;&gt;2</title>
<path fill="none" stroke="green" stroke-width="0.25" d="M114,-65.9C128.47,-56.49 153.01,-40.55 170.49,-29.18"/>
<polygon fill="green" stroke="green" stroke-width="0.25" points="172.43,-32.1 178.9,-23.71 168.61,-26.23 172.43,-32.1"/>
</g>
<!-- &#45;9&#45;&gt;3 -->
<g id="edge34" class="edge">
<title>&#45;9&#45;&gt;3</title>
<path fill="none" stroke="red" stroke-width="0.1" d="M114.45,-68.78C117.54,-67.67 120.87,-66.56 124,-65.7 205.58,-43.17 231.69,-59.26 311,-29.7 311.87,-29.38 312.74,-29.02 313.61,-28.65"/>
<polygon fill="red" stroke="red" stroke-width="0.1" points="315.38,-31.68 322.68,-24 312.19,-25.44 315.38,-31.68"/>
</g>
<!-- &#45;10 -->
<g id="node10" class="node">
<title>&#45;10</title>
<polygon fill="lightgray" stroke="black" points="71.5,-83.7 42.5,-83.7 42.5,-65.7 71.5,-65.7 71.5,-83.7"/>
<text text-anchor="middle" x="57" y="-72.5" font-family="Times New Roman,serif" font-size="9.00">&#45;10</text>
</g>
<!-- &#45;10&#45;&gt;0 -->
<g id="edge35" class="edge">
<title>&#45;10&#45;&gt;0</title>
<path fill="none" stroke="red" stroke-width="0.12" stroke-dasharray="1,5" d="M71.68,-68.65C74.75,-67.64 77.97,-66.61 81,-65.7 140.06,-47.94 158.03,-53.31 215,-29.7 215.86,-29.34 216.72,-28.96 217.58,-28.57"/>
<polygon fill="red" stroke="red" stroke-width="0.12" points="219.39,-31.57 226.61,-23.82 216.13,-25.37 219.39,-31.57"/>
</g>
<!-- &#45;10&#45;&gt;1 -->
<g id="edge36" class="edge">
<title>&#45;10&#45;&gt;1</title>
<path fill="none" stroke="red" stroke-width="0.81" d="M71.63,-68.49C74.71,-67.49 77.94,-66.51 81,-65.7 160.72,-44.62 185.81,-58.69 263,-29.7 263.87,-29.37 264.74,-29.02 265.61,-28.64"/>
<polygon fill="red" stroke="red" stroke-width="0.81" points="267.38,-31.67 274.68,-23.99 264.18,-25.44 267.38,-31.67"/>
</g>
<!-- &#45;10&#45;&gt;2 -->
<g id="edge37" class="edge">
<title>&#45;10&#45;&gt;2</title>
<path fill="none" stroke="green" stroke-width="0.4" d="M71.6,-67.4C94.91,-57.33 140.75,-37.54 168.35,-25.63"/>
<polygon fill="green" stroke="green" stroke-width="0.4" points="169.83,-28.8 177.62,-21.62 167.05,-22.37 169.83,-28.8"/>
</g>
<!-- &#45;11 -->
<g id="node11" class="node">
<title>&#45;11</title>
<polygon fill="lightgray" stroke="black" points="161.5,-83.7 132.5,-83.7 132.5,-65.7 161.5,-65.7 161.5,-83.7"/>
<text text-anchor="middle" x="147" y="-72.5" font-family="Times New Roman,serif" font-size="9.00">&#45;11</text>
</g>
<!-- &#45;11&#45;&gt;0 -->
<g id="edge38" class="edge">
<title>&#45;11&#45;&gt;0</title>
<path fill="none" stroke="green" stroke-width="0.67" d="M159.79,-65.65C174.84,-56.19 200.05,-40.34 217.99,-29.06"/>
<polygon fill="green" stroke="green" stroke-width="0.67" points="220.01,-31.93 226.61,-23.64 216.28,-26 220.01,-31.93"/>
</g>
<!-- &#45;11&#45;&gt;1 -->
<g id="edge39" class="edge">
<title>&#45;11&#45;&gt;1</title>
<path fill="none" stroke="green" stroke-width="0.25" stroke-dasharray="1,5" d="M161.62,-68.49C188.41,-58.88 244.32,-38.56 263,-29.7 263.84,-29.3 264.68,-28.89 265.53,-28.46"/>
<polygon fill="green" stroke="green" stroke-width="0.25" points="267.39,-31.43 274.5,-23.57 264.04,-25.28 267.39,-31.43"/>
</g>
<!-- &#45;11&#45;&gt;2 -->
<g id="edge40" class="edge">
<title>&#45;11&#45;&gt;2</title>
<path fill="none" stroke="red" stroke-width="0.1" d="M153.12,-65.65C159.02,-57.89 168.19,-45.84 176.03,-35.53"/>
<polygon fill="red" stroke="red" stroke-width="0.1" points="178.93,-37.5 182.2,-27.42 173.36,-33.26 178.93,-37.5"/>
</g>
<!-- &#45;11&#45;&gt;3 -->
<g id="edge41" class="edge">
<title>&#45;11&#45;&gt;3</title>
<path fill="none" stroke="red" stroke-width="0.86" d="M161.67,-68.63C164.74,-67.62 167.97,-66.59 171,-65.7 232.62,-47.53 251.52,-53.98 311,-29.7 311.86,-29.35 312.72,-28.97 313.59,-28.58"/>
<polygon fill="red" stroke="red" stroke-width="0.86" points="315.39,-31.59 322.62,-23.85 312.14,-25.38 315.39,-31.59"/>
</g>
<!-- &#45;12 -->
<g id="node12" class="node">
<title>&#45;12</title>
<polygon fill="lightgray" stroke="black" points="208.5,-83.7 179.5,-83.7 179.5,-65.7 208.5,-65.7 208.5,-83.7"/>
<text text-anchor="middle" x="194" y="-72.5" font-family="Times New Roman,serif" font-size="9.00">&#45;12</text>
</g>
<!-- &#45;12&#45;&gt;0 -->
<g id="edge42" class="edge">
<title>&#45;12&#45;&gt;0</title>
<path fill="none" stroke="red" stroke-width="0.12" stroke-dasharray="1,5" d="M200.26,-65.65C206.37,-57.8 215.91,-45.53 223.99,-35.14"/>
<polygon fill="red" stroke="red" stroke-width="0.12" points="226.95,-37.04 230.33,-26.99 221.43,-32.74 226.95,-37.04"/>
</g>
<!-- &#45;12&#45;&gt;1 -->
<g id="edge43" class="edge">
<title>&#45;12&#45;&gt;1</title>
<path fill="none" stroke="red" stroke-width="0.37" stroke-dasharray="1,5" d="M206.93,-65.65C222.23,-56.14 247.91,-40.16 266.06,-28.87"/>
<polygon fill="red" stroke="red" stroke-width="0.37" points="268.13,-31.71 274.77,-23.46 264.43,-25.77 268.13,-31.71"/>
</g>
<!-- &#45;12&#45;&gt;2 -->
<g id="edge44" class="edge">
<title>&#45;12&#45;&gt;2</title>
<path fill="none" stroke="green" stroke-width="0.16" d="M193.58,-65.65C193.24,-59.05 192.74,-49.33 192.26,-40.23"/>
<polygon fill="green" stroke="green" stroke-width="0.16" points="195.75,-39.86 191.74,-30.06 188.76,-40.22 195.75,-39.86"/>
</g>
<!-- &#45;12&#45;&gt;3 -->
<g id="edge45" class="edge">
<title>&#45;12&#45;&gt;3</title>
<path fill="none" stroke="red" stroke-width="0.79" d="M208.75,-68.49C235.77,-58.9 292.16,-38.6 311,-29.7 311.84,-29.3 312.68,-28.89 313.53,-28.46"/>
<polygon fill="red" stroke="red" stroke-width="0.79" points="315.39,-31.43 322.5,-23.58 312.05,-25.29 315.39,-31.43"/>
</g>
</g>
</svg>
