<?xml version="1.0" encoding="UTF-8" standalone="no"?>
<!DOCTYPE svg PUBLIC "-//W3C//DTD SVG 1.1//EN"
 "http://www.w3.org/Graphics/SVG/1.1/DTD/svg11.dtd">
<!-- Generated by graphviz version 5.0.0 (20220707.1540)
 -->
<!-- Pages: 1 -->
<svg width="511pt" height="92pt"
 viewBox="0.00 0.00 511.00 91.70" xmlns="http://www.w3.org/2000/svg" xmlns:xlink="http://www.w3.org/1999/xlink">
<g id="graph0" class="graph" transform="scale(1 1) rotate(0) translate(4 87.7)">
<polygon fill="white" stroke="transparent" points="-4,4 -4,-87.7 507,-87.7 507,4 -4,4"/>
<!-- &#45;1 -->
<g id="node1" class="node">
<title>&#45;1</title>
<polygon fill="lightgray" stroke="black" points="156,-83.7 132,-83.7 132,-65.7 156,-65.7 156,-83.7"/>
<text text-anchor="middle" x="144" y="-72.5" font-family="Times New Roman,serif" font-size="9.00">&#45;1</text>
</g>
<!-- 0 -->
<g id="node13" class="node">
<title>0</title>
<ellipse fill="lightblue" stroke="black" cx="180" cy="-14.85" rx="14.7" ry="14.7"/>
<text text-anchor="middle" x="180" y="-12.65" font-family="Times New Roman,serif" font-size="9.00">0</text>
</g>
<!-- &#45;1&#45;&gt;0 -->
<g id="edge1" class="edge">
<title>&#45;1&#45;&gt;0</title>
<path fill="none" stroke="green" stroke-width="0.29" d="M149.01,-65.65C153.68,-58.14 160.86,-46.61 167.13,-36.53"/>
<polygon fill="green" stroke="green" stroke-width="0.29" points="170.22,-38.18 172.54,-27.84 164.28,-34.49 170.22,-38.18"/>
</g>
<!-- 1 -->
<g id="node14" class="node">
<title>1</title>
<ellipse fill="lightblue" stroke="black" cx="228" cy="-14.85" rx="14.7" ry="14.7"/>
<text text-anchor="middle" x="228" y="-12.65" font-family="Times New Roman,serif" font-size="9.00">1</text>
</g>
<!-- &#45;1&#45;&gt;1 -->
<g id="edge2" class="edge">
<title>&#45;1&#45;&gt;1</title>
<path fill="none" stroke="green" stroke-width="0.19" d="M155.68,-65.65C169.14,-56.38 191.51,-40.98 207.81,-29.75"/>
<polygon fill="green" stroke="green" stroke-width="0.19" points="209.9,-32.57 216.15,-24.01 205.93,-26.8 209.9,-32.57"/>
</g>
<!-- 2 -->
<g id="node15" class="node">
<title>2</title>
<ellipse fill="lightblue" stroke="black" cx="276" cy="-14.85" rx="14.7" ry="14.7"/>
<text text-anchor="middle" x="276" y="-12.65" font-family="Times New Roman,serif" font-size="9.00">2</text>
</g>
<!-- &#45;1&#45;&gt;2 -->
<g id="edge3" class="edge">
<title>&#45;1&#45;&gt;2</title>
<path fill="none" stroke="green" stroke-width="0.13" d="M156.08,-69.02C180.34,-59.58 234.18,-38.42 252,-29.7 252.83,-29.29 253.67,-28.87 254.52,-28.43"/>
<polygon fill="green" stroke="green" stroke-width="0.13" points="256.39,-31.39 263.47,-23.51 253.02,-25.26 256.39,-31.39"/>
</g>
<!-- 3 -->
<g id="node16" class="node">
<title>3</title>
<ellipse fill="lightblue" stroke="black" cx="324" cy="-14.85" rx="14.7" ry="14.7"/>
<text text-anchor="middle" x="324" y="-12.65" font-family="Times New Roman,serif" font-size="9.00">3</text>
</g>
<!-- &#45;1&#45;&gt;3 -->
<g id="edge4" class="edge">
<title>&#45;1&#45;&gt;3</title>
<path fill="none" stroke="green" stroke-width="0.63" d="M156.36,-68.75C159.18,-67.68 162.18,-66.61 165,-65.7 224.09,-46.62 242.61,-53.42 300,-29.7 300.86,-29.34 301.72,-28.97 302.58,-28.57"/>
<polygon fill="green" stroke="green" stroke-width="0.63" points="304.39,-31.57 311.61,-23.82 301.13,-25.38 304.39,-31.57"/>
</g>
<!-- &#45;2 -->
<g id="node2" class="node">
<title>&#45;2</title>
<polygon fill="lightgray" stroke="black" points="114,-83.7 90,-83.7 90,-65.7 114,-65.7 114,-83.7"/>
<text text-anchor="middle" x="102" y="-72.5" font-family="Times New Roman,serif" font-size="9.00">&#45;2</text>
</g>
<!-- &#45;2&#45;&gt;0 -->
<g id="edge5" class="edge">
<title>&#45;2&#45;&gt;0</title>
<path fill="none" stroke="green" stroke-width="0.49" d="M112.85,-65.65C125.09,-56.57 145.27,-41.61 160.32,-30.45"/>
<polygon fill="green" stroke="green" stroke-width="0.49" points="162.54,-33.16 168.49,-24.39 158.37,-27.53 162.54,-33.16"/>
</g>
<!-- &#45;2&#45;&gt;1 -->
<g id="edge6" class="edge">
<title>&#45;2&#45;&gt;1</title>
<path fill="none" stroke="green" stroke-width="0.15" d="M114.14,-68.99C133.47,-61.39 172.29,-45.62 204,-29.7 204.83,-29.28 205.67,-28.85 206.51,-28.41"/>
<polygon fill="green" stroke="green" stroke-width="0.15" points="208.39,-31.37 215.45,-23.46 205,-25.24 208.39,-31.37"/>
</g>
<!-- &#45;2&#45;&gt;3 -->
<g id="edge7" class="edge">
<title>&#45;2&#45;&gt;3</title>
<path fill="none" stroke="green" stroke-width="0.12" stroke-dasharray="1,5" d="M114.32,-68.62C117.14,-67.57 120.15,-66.52 123,-65.7 200.1,-43.33 224.93,-58.13 300,-29.7 300.87,-29.37 301.74,-29.01 302.61,-28.63"/>
<polygon fill="green" stroke="green" stroke-width="0.12" points="304.38,-31.66 311.67,-23.98 301.18,-25.43 304.38,-31.66"/>
</g>
<!-- &#45;3 -->
<g id="node3" class="node">
<title>&#45;3</title>
<polygon fill="lightgray" stroke="black" points="198,-83.7 174,-83.7 174,-65.7 198,-65.7 198,-83.7"/>
<text text-anchor="middle" x="186" y="-72.5" font-family="Times New Roman,serif" font-size="9.00">&#45;3</text>
</g>
<!-- &#45;3&#45;&gt;0 -->
<g id="edge8" class="edge">
<title>&#45;3&#45;&gt;0</title>
<path fill="none" stroke="green" stroke-width="0.15" d="M185.17,-65.65C184.48,-59.05 183.47,-49.33 182.53,-40.23"/>
<polygon fill="green" stroke="green" stroke-width="0.15" points="185.99,-39.64 181.47,-30.06 179.02,-40.36 185.99,-39.64"/>
</g>
<!-- &#45;3&#45;&gt;1 -->
<g id="edge9" class="edge">
<title>&#45;3&#45;&gt;1</title>
<path fill="none" stroke="red" stroke-width="0.52" d="M191.84,-65.65C197.47,-57.89 206.23,-45.84 213.71,-35.53"/>
<polygon fill="red" stroke="red" stroke-width="0.52" points="216.56,-37.57 219.6,-27.42 210.89,-33.45 216.56,-37.57"/>
</g>
<!-- &#45;3&#45;&gt;2 -->
<g id="edge10" class="edge">
<title>&#45;3&#45;&gt;2</title>
<path fill="none" stroke="green" stroke-width="0.63" d="M198.14,-65.9C212.77,-56.49 237.58,-40.55 255.26,-29.18"/>
<polygon fill="green" stroke="green" stroke-width="0.63" points="257.25,-32.06 263.77,-23.71 253.46,-26.18 257.25,-32.06"/>
</g>
<!-- &#45;3&#45;&gt;3 -->
<g id="edge11" class="edge">
<title>&#45;3&#45;&gt;3</title>
<path fill="none" stroke="red" stroke-width="0.27" d="M198.01,-69.12C226.31,-58.33 295.14,-32.02 300,-29.7 300.84,-29.3 301.68,-28.88 302.53,-28.45"/>
<polygon fill="red" stroke="red" stroke-width="0.27" points="304.39,-31.42 311.49,-23.56 301.04,-25.28 304.39,-31.42"/>
</g>
<!-- &#45;4 -->
<g id="node4" class="node">
<title>&#45;4</title>
<polygon fill="lightgray" stroke="black" points="240,-83.7 216,-83.7 216,-65.7 240,-65.7 240,-83.7"/>
<text text-anchor="middle" x="228" y="-72.5" font-family="Times New Roman,serif" font-size="9.00">&#45;4</text>
</g>
<!-- &#45;4&#45;&gt;0 -->
<g id="edge12" class="edge">
<title>&#45;4&#45;&gt;0</title>
<path fill="none" stroke="red" stroke-width="0.22" d="M221.33,-65.65C214.74,-57.72 204.43,-45.29 195.75,-34.83"/>
<polygon fill="red" stroke="red" stroke-width="0.22" points="198.33,-32.46 189.25,-26.99 192.94,-36.93 198.33,-32.46"/>
</g>
<!-- &#45;4&#45;&gt;1 -->
<g id="edge13" class="edge">
<title>&#45;4&#45;&gt;1</title>
<path fill="none" stroke="green" stroke-width="0.25" stroke-dasharray="1,5" d="M228,-65.65C228,-59.05 228,-49.33 228,-40.23"/>
<polygon fill="green" stroke="green" stroke-width="0.25" points="231.5,-40.06 228,-30.06 224.5,-40.06 231.5,-40.06"/>
</g>
<!-- &#45;4&#45;&gt;2 -->
<g id="edge14" class="edge">
<title>&#45;4&#45;&gt;2</title>
<path fill="none" stroke="red" stroke-width="0.44" d="M234.67,-65.65C241.26,-57.72 251.57,-45.29 260.25,-34.83"/>
<polygon fill="red" stroke="red" stroke-width="0.44" points="263.06,-36.93 266.75,-26.99 257.67,-32.46 263.06,-36.93"/>
</g>
<!-- &#45;4&#45;&gt;3 -->
<g id="edge15" class="edge">
<title>&#45;4&#45;&gt;3</title>
<path fill="none" stroke="red" stroke-width="0.34" d="M240.16,-66.37C255.94,-56.86 283.73,-40.11 302.97,-28.52"/>
<polygon fill="red" stroke="red" stroke-width="0.34" points="304.88,-31.46 311.64,-23.3 301.27,-25.46 304.88,-31.46"/>
</g>
<!-- &#45;5 -->
<g id="node5" class="node">
<title>&#45;5</title>
<polygon fill="lightgray" stroke="black" points="461,-83.7 437,-83.7 437,-65.7 461,-65.7 461,-83.7"/>
<text text-anchor="middle" x="449" y="-72.5" font-family="Times New Roman,serif" font-size="9.00">&#45;5</text>
</g>
<!-- &#45;5&#45;&gt;1 -->
<g id="edge16" class="edge">
<title>&#45;5&#45;&gt;1</title>
<path fill="none" stroke="red" stroke-width="0.18" d="M436.68,-68.62C433.85,-67.57 430.85,-66.53 428,-65.7 351.33,-43.41 326.65,-58.02 252,-29.7 251.13,-29.37 250.26,-29.01 249.39,-28.63"/>
<polygon fill="red" stroke="red" stroke-width="0.18" points="250.82,-25.43 240.33,-23.97 247.62,-31.66 250.82,-25.43"/>
</g>
<!-- &#45;5&#45;&gt;2 -->
<g id="edge17" class="edge">
<title>&#45;5&#45;&gt;2</title>
<path fill="none" stroke="red" stroke-width="0.17" d="M436.63,-68.77C433.81,-67.71 430.82,-66.63 428,-65.7 371.89,-47.16 354.46,-52.64 300,-29.7 299.15,-29.34 298.29,-28.96 297.42,-28.55"/>
<polygon fill="red" stroke="red" stroke-width="0.17" points="298.88,-25.36 288.4,-23.79 295.61,-31.55 298.88,-25.36"/>
</g>
<!-- &#45;5&#45;&gt;3 -->
<g id="edge18" class="edge">
<title>&#45;5&#45;&gt;3</title>
<path fill="none" stroke="green" stroke-width="1.44" d="M436.56,-67.94C415.53,-58.21 372.69,-38.38 346.35,-26.19"/>
<polygon fill="green" stroke="green" stroke-width="1.44" points="347.69,-22.95 337.14,-21.93 344.75,-29.31 347.69,-22.95"/>
</g>
<!-- &#45;6 -->
<g id="node6" class="node">
<title>&#45;6</title>
<polygon fill="lightgray" stroke="black" points="24,-83.7 0,-83.7 0,-65.7 24,-65.7 24,-83.7"/>
<text text-anchor="middle" x="12" y="-72.5" font-family="Times New Roman,serif" font-size="9.00">&#45;6</text>
</g>
<!-- &#45;6&#45;&gt;0 -->
<g id="edge19" class="edge">
<title>&#45;6&#45;&gt;0</title>
<path fill="none" stroke="green" stroke-width="0.49" d="M24.41,-68.88C27.23,-67.82 30.21,-66.7 33,-65.7 76.36,-50.09 127.38,-33.09 156.48,-23.53"/>
<polygon fill="green" stroke="green" stroke-width="0.49" points="157.75,-26.79 166.16,-20.35 155.57,-20.14 157.75,-26.79"/>
</g>
<!-- &#45;6&#45;&gt;1 -->
<g id="edge20" class="edge">
<title>&#45;6&#45;&gt;1</title>
<path fill="none" stroke="red" stroke-width="0.67" stroke-dasharray="1,5" d="M24.33,-68.63C27.15,-67.58 30.16,-66.53 33,-65.7 107.52,-43.81 131.46,-57.45 204,-29.7 204.86,-29.37 205.74,-29.01 206.61,-28.63"/>
<polygon fill="red" stroke="red" stroke-width="0.67" points="208.38,-31.65 215.67,-23.96 205.17,-25.43 208.38,-31.65"/>
</g>
<!-- &#45;6&#45;&gt;2 -->
<g id="edge21" class="edge">
<title>&#45;6&#45;&gt;2</title>
<path fill="none" stroke="red" stroke-width="0.84" d="M24.3,-68.54C27.12,-67.49 30.14,-66.47 33,-65.7 128.24,-40.01 159.11,-62.89 252,-29.7 252.87,-29.39 253.75,-29.04 254.62,-28.68"/>
<polygon fill="red" stroke="red" stroke-width="0.84" points="256.37,-31.72 263.71,-24.07 253.21,-25.47 256.37,-31.72"/>
</g>
<!-- &#45;7 -->
<g id="node7" class="node">
<title>&#45;7</title>
<polygon fill="lightgray" stroke="black" points="503,-83.7 479,-83.7 479,-65.7 503,-65.7 503,-83.7"/>
<text text-anchor="middle" x="491" y="-72.5" font-family="Times New Roman,serif" font-size="9.00">&#45;7</text>
</g>
<!-- &#45;7&#45;&gt;1 -->
<g id="edge22" class="edge">
<title>&#45;7&#45;&gt;1</title>
<path fill="none" stroke="red" stroke-width="0.1" stroke-dasharray="1,5" d="M478.7,-68.54C475.88,-67.49 472.86,-66.47 470,-65.7 375.2,-40.09 344.46,-62.77 252,-29.7 251.13,-29.39 250.25,-29.04 249.38,-28.68"/>
<polygon fill="red" stroke="red" stroke-width="0.1" points="250.79,-25.47 240.29,-24.07 247.63,-31.71 250.79,-25.47"/>
</g>
<!-- &#45;7&#45;&gt;2 -->
<g id="edge23" class="edge">
<title>&#45;7&#45;&gt;2</title>
<path fill="none" stroke="green" stroke-width="0.11" d="M478.67,-68.64C475.85,-67.58 472.84,-66.54 470,-65.7 395.91,-43.89 372.12,-57.34 300,-29.7 299.14,-29.37 298.26,-29.01 297.39,-28.62"/>
<polygon fill="green" stroke="green" stroke-width="0.11" points="298.83,-25.43 288.33,-23.96 295.62,-31.65 298.83,-25.43"/>
</g>
<!-- &#45;7&#45;&gt;3 -->
<g id="edge24" class="edge">
<title>&#45;7&#45;&gt;3</title>
<path fill="none" stroke="green" stroke-width="1.4" d="M478.59,-68.89C475.77,-67.82 472.79,-66.71 470,-65.7 427.15,-50.23 376.78,-33.3 347.8,-23.69"/>
<polygon fill="green" stroke="green" stroke-width="1.4" points="348.74,-20.32 338.15,-20.5 346.55,-26.96 348.74,-20.32"/>
</g>
<!-- &#45;8 -->
<g id="node8" class="node">
<title>&#45;8</title>
<polygon fill="lightgray" stroke="black" points="282,-83.7 258,-83.7 258,-65.7 282,-65.7 282,-83.7"/>
<text text-anchor="middle" x="270" y="-72.5" font-family="Times New Roman,serif" font-size="9.00">&#45;8</text>
</g>
<!-- &#45;8&#45;&gt;0 -->
<g id="edge25" class="edge">
<title>&#45;8&#45;&gt;0</title>
<path fill="none" stroke="red" stroke-width="0.73" stroke-dasharray="1,5" d="M257.86,-65.9C243.23,-56.49 218.42,-40.55 200.74,-29.18"/>
<polygon fill="red" stroke="red" stroke-width="0.73" points="202.54,-26.18 192.23,-23.71 198.75,-32.06 202.54,-26.18"/>
</g>
<!-- &#45;8&#45;&gt;1 -->
<g id="edge26" class="edge">
<title>&#45;8&#45;&gt;1</title>
<path fill="none" stroke="green" stroke-width="0.57" d="M264.16,-65.65C258.53,-57.89 249.77,-45.84 242.29,-35.53"/>
<polygon fill="green" stroke="green" stroke-width="0.57" points="245.11,-33.45 236.4,-27.42 239.44,-37.57 245.11,-33.45"/>
</g>
<!-- &#45;8&#45;&gt;2 -->
<g id="edge27" class="edge">
<title>&#45;8&#45;&gt;2</title>
<path fill="none" stroke="red" stroke-width="0.39" d="M270.83,-65.65C271.52,-59.05 272.53,-49.33 273.47,-40.23"/>
<polygon fill="red" stroke="red" stroke-width="0.39" points="276.98,-40.36 274.53,-30.06 270.01,-39.64 276.98,-40.36"/>
</g>
<!-- &#45;8&#45;&gt;3 -->
<g id="edge28" class="edge">
<title>&#45;8&#45;&gt;3</title>
<path fill="none" stroke="red" stroke-width="1.62" stroke-dasharray="1,5" d="M277.51,-65.65C285.18,-57.44 297.33,-44.42 307.29,-33.75"/>
<polygon fill="red" stroke="red" stroke-width="1.62" points="310.1,-35.86 314.37,-26.17 304.99,-31.09 310.1,-35.86"/>
</g>
<!-- &#45;9 -->
<g id="node9" class="node">
<title>&#45;9</title>
<polygon fill="lightgray" stroke="black" points="324,-83.7 300,-83.7 300,-65.7 324,-65.7 324,-83.7"/>
<text text-anchor="middle" x="312" y="-72.5" font-family="Times New Roman,serif" font-size="9.00">&#45;9</text>
</g>
<!-- &#45;9&#45;&gt;0 -->
<g id="edge29" class="edge">
<title>&#45;9&#45;&gt;0</title>
<path fill="none" stroke="green" stroke-width="0.44" stroke-dasharray="1,5" d="M299.92,-69.02C275.66,-59.58 221.82,-38.42 204,-29.7 203.17,-29.29 202.33,-28.87 201.48,-28.43"/>
<polygon fill="green" stroke="green" stroke-width="0.44" points="202.98,-25.26 192.53,-23.51 199.61,-31.39 202.98,-25.26"/>
</g>
<!-- &#45;9&#45;&gt;1 -->
<g id="edge30" class="edge">
<title>&#45;9&#45;&gt;1</title>
<path fill="none" stroke="green" stroke-width="0.78" d="M300.32,-65.65C286.86,-56.38 264.49,-40.98 248.19,-29.75"/>
<polygon fill="green" stroke="green" stroke-width="0.78" points="250.07,-26.8 239.85,-24.01 246.1,-32.57 250.07,-26.8"/>
</g>
<!-- &#45;9&#45;&gt;2 -->
<g id="edge31" class="edge">
<title>&#45;9&#45;&gt;2</title>
<path fill="none" stroke="red" stroke-width="0.4" d="M306.99,-65.65C302.32,-58.14 295.14,-46.61 288.87,-36.53"/>
<polygon fill="red" stroke="red" stroke-width="0.4" points="291.72,-34.49 283.46,-27.84 285.78,-38.18 291.72,-34.49"/>
</g>
<!-- &#45;9&#45;&gt;3 -->
<g id="edge32" class="edge">
<title>&#45;9&#45;&gt;3</title>
<path fill="none" stroke="red" stroke-width="0.28" d="M313.67,-65.65C315.07,-58.89 317.15,-48.86 319.08,-39.57"/>
<polygon fill="red" stroke="red" stroke-width="0.28" points="322.54,-40.11 321.15,-29.6 315.69,-38.69 322.54,-40.11"/>
</g>
<!-- &#45;10 -->
<g id="node10" class="node">
<title>&#45;10</title>
<polygon fill="lightgray" stroke="black" points="71.5,-83.7 42.5,-83.7 42.5,-65.7 71.5,-65.7 71.5,-83.7"/>
<text text-anchor="middle" x="57" y="-72.5" font-family="Times New Roman,serif" font-size="9.00">&#45;10</text>
</g>
<!-- &#45;10&#45;&gt;0 -->
<g id="edge33" class="edge">
<title>&#45;10&#45;&gt;0</title>
<path fill="none" stroke="red" stroke-width="0.21" d="M71.59,-66.84C92.94,-56.79 132.85,-38.02 157.84,-26.27"/>
<polygon fill="red" stroke="red" stroke-width="0.21" points="159.36,-29.42 166.92,-22 156.38,-23.09 159.36,-29.42"/>
</g>
<!-- &#45;10&#45;&gt;1 -->
<g id="edge34" class="edge">
<title>&#45;10&#45;&gt;1</title>
<path fill="none" stroke="red" stroke-width="0.35" d="M71.7,-68.7C74.76,-67.69 77.98,-66.64 81,-65.7 135.36,-48.69 151.63,-52.09 204,-29.7 204.85,-29.33 205.71,-28.95 206.57,-28.54"/>
<polygon fill="red" stroke="red" stroke-width="0.35" points="208.39,-31.54 215.59,-23.76 205.11,-25.35 208.39,-31.54"/>
</g>
<!-- &#45;10&#45;&gt;2 -->
<g id="edge35" class="edge">
<title>&#45;10&#45;&gt;2</title>
<path fill="none" stroke="red" stroke-width="0.23" d="M71.64,-68.52C74.71,-67.52 77.95,-66.53 81,-65.7 155.96,-45.39 179.46,-57.45 252,-29.7 252.86,-29.37 253.74,-29.01 254.61,-28.63"/>
<polygon fill="red" stroke="red" stroke-width="0.23" points="256.38,-31.65 263.67,-23.96 253.17,-25.43 256.38,-31.65"/>
</g>
<!-- &#45;11 -->
<g id="node11" class="node">
<title>&#45;11</title>
<polygon fill="lightgray" stroke="black" points="371.5,-83.7 342.5,-83.7 342.5,-65.7 371.5,-65.7 371.5,-83.7"/>
<text text-anchor="middle" x="357" y="-72.5" font-family="Times New Roman,serif" font-size="9.00">&#45;11</text>
</g>
<!-- &#45;11&#45;&gt;0 -->
<g id="edge36" class="edge">
<title>&#45;11&#45;&gt;0</title>
<path fill="none" stroke="red" stroke-width="0.22" stroke-dasharray="1,5" d="M342.31,-68.67C339.25,-67.66 336.02,-66.62 333,-65.7 276.08,-48.28 258.88,-52.76 204,-29.7 203.15,-29.34 202.29,-28.96 201.42,-28.55"/>
<polygon fill="red" stroke="red" stroke-width="0.22" points="202.88,-25.37 192.4,-23.8 199.61,-31.56 202.88,-25.37"/>
</g>
<!-- &#45;11&#45;&gt;1 -->
<g id="edge37" class="edge">
<title>&#45;11&#45;&gt;1</title>
<path fill="none" stroke="red" stroke-width="0.26" d="M342.48,-68.28C321.97,-60.49 283.52,-45.32 252,-29.7 251.17,-29.29 250.33,-28.86 249.48,-28.42"/>
<polygon fill="red" stroke="red" stroke-width="0.26" points="250.99,-25.25 240.54,-23.49 247.61,-31.38 250.99,-25.25"/>
</g>
<!-- &#45;11&#45;&gt;2 -->
<g id="edge38" class="edge">
<title>&#45;11&#45;&gt;2</title>
<path fill="none" stroke="red" stroke-width="0.13" d="M345.74,-65.65C332.95,-56.52 311.82,-41.43 296.17,-30.26"/>
<polygon fill="red" stroke="red" stroke-width="0.13" points="297.86,-27.16 287.69,-24.2 293.8,-32.86 297.86,-27.16"/>
</g>
<!-- &#45;11&#45;&gt;3 -->
<g id="edge39" class="edge">
<title>&#45;11&#45;&gt;3</title>
<path fill="none" stroke="red" stroke-width="0.76" d="M352.41,-65.65C348.22,-58.31 341.85,-47.13 336.19,-37.22"/>
<polygon fill="red" stroke="red" stroke-width="0.76" points="339.08,-35.23 331.09,-28.28 333,-38.7 339.08,-35.23"/>
</g>
<!-- &#45;12 -->
<g id="node12" class="node">
<title>&#45;12</title>
<polygon fill="lightgray" stroke="black" points="418.5,-83.7 389.5,-83.7 389.5,-65.7 418.5,-65.7 418.5,-83.7"/>
<text text-anchor="middle" x="404" y="-72.5" font-family="Times New Roman,serif" font-size="9.00">&#45;12</text>
</g>
<!-- &#45;12&#45;&gt;0 -->
<g id="edge40" class="edge">
<title>&#45;12&#45;&gt;0</title>
<path fill="none" stroke="green" stroke-width="0.13" stroke-dasharray="1,5" d="M389.49,-68.32C386.69,-67.38 383.77,-66.46 381,-65.7 303.58,-44.46 279.07,-58.13 204,-29.7 203.13,-29.37 202.26,-29.01 201.39,-28.63"/>
<polygon fill="green" stroke="green" stroke-width="0.13" points="202.82,-25.43 192.33,-23.98 199.62,-31.66 202.82,-25.43"/>
</g>
<!-- &#45;12&#45;&gt;1 -->
<g id="edge41" class="edge">
<title>&#45;12&#45;&gt;1</title>
<path fill="none" stroke="green" stroke-width="0.84" d="M389.45,-68.48C386.65,-67.52 383.74,-66.56 381,-65.7 324.2,-47.91 306.88,-52.76 252,-29.7 251.15,-29.34 250.29,-28.96 249.42,-28.55"/>
<polygon fill="green" stroke="green" stroke-width="0.84" points="250.88,-25.37 240.4,-23.8 247.61,-31.56 250.88,-25.37"/>
</g>
<!-- &#45;12&#45;&gt;2 -->
<g id="edge42" class="edge">
<title>&#45;12&#45;&gt;2</title>
<path fill="none" stroke="red" stroke-width="0.87" stroke-dasharray="1,5" d="M389.28,-68.13C368.89,-60.28 331.07,-45.16 300,-29.7 299.17,-29.29 298.33,-28.86 297.49,-28.42"/>
<polygon fill="red" stroke="red" stroke-width="0.87" points="298.99,-25.25 288.55,-23.48 295.61,-31.38 298.99,-25.25"/>
</g>
<!-- &#45;12&#45;&gt;3 -->
<g id="edge43" class="edge">
<title>&#45;12&#45;&gt;3</title>
<path fill="none" stroke="green" stroke-width="0.37" d="M392.88,-65.65C380.24,-56.52 359.38,-41.43 343.92,-30.26"/>
<polygon fill="green" stroke="green" stroke-width="0.37" points="345.7,-27.22 335.55,-24.2 341.6,-32.9 345.7,-27.22"/>
</g>
</g>
</svg>
