<?xml version="1.0" encoding="UTF-8" standalone="no"?>
<!DOCTYPE svg PUBLIC "-//W3C//DTD SVG 1.1//EN"
 "http://www.w3.org/Graphics/SVG/1.1/DTD/svg11.dtd">
<!-- Generated by graphviz version 5.0.0 (20220707.1540)
 -->
<!-- Pages: 1 -->
<svg width="1159pt" height="177pt"
 viewBox="0.00 0.00 1158.76 177.20" xmlns="http://www.w3.org/2000/svg" xmlns:xlink="http://www.w3.org/1999/xlink">
<g id="graph0" class="graph" transform="scale(1 1) rotate(0) translate(4 173.2)">
<polygon fill="white" stroke="transparent" points="-4,4 -4,-173.2 1154.76,-173.2 1154.76,4 -4,4"/>
<!-- &#45;1 -->
<g id="node1" class="node">
<title>&#45;1</title>
<polygon fill="lightgray" stroke="black" points="127.01,-169.2 103.01,-169.2 103.01,-151.2 127.01,-151.2 127.01,-169.2"/>
<text text-anchor="middle" x="115.01" y="-158" font-family="Times New Roman,serif" font-size="9.00">&#45;1</text>
</g>
<!-- 0 -->
<g id="node13" class="node">
<title>0</title>
<ellipse fill="lightblue" stroke="black" cx="299.01" cy="-14.85" rx="14.7" ry="14.7"/>
<text text-anchor="middle" x="299.01" y="-12.65" font-family="Times New Roman,serif" font-size="9.00">0</text>
</g>
<!-- &#45;1&#45;&gt;0 -->
<g id="edge1" class="edge">
<title>&#45;1&#45;&gt;0</title>
<path fill="none" stroke="green" stroke-width="0.42" d="M102.9,-158.28C80.09,-155.84 31.14,-146.96 10.01,-115.2 -2.18,-96.88 -4.16,-82.52 10.01,-65.7 43.73,-25.66 209.78,-17.78 273.78,-16.23"/>
<polygon fill="green" stroke="green" stroke-width="0.42" points="274.23,-19.72 284.16,-16.01 274.09,-12.72 274.23,-19.72"/>
</g>
<!-- 1 -->
<g id="node14" class="node">
<title>1</title>
<ellipse fill="lightblue" stroke="black" cx="719.01" cy="-14.85" rx="14.7" ry="14.7"/>
<text text-anchor="middle" x="719.01" y="-12.65" font-family="Times New Roman,serif" font-size="9.00">1</text>
</g>
<!-- &#45;1&#45;&gt;1 -->
<g id="edge2" class="edge">
<title>&#45;1&#45;&gt;1</title>
<path fill="none" stroke="red" stroke-width="0.5" d="M127.06,-157.45C139.72,-155.66 160.23,-152.91 178.01,-151.2 238.08,-145.39 678.77,-159.26 720.01,-115.2 738.93,-94.97 733.72,-61.03 727.21,-38.54"/>
<polygon fill="red" stroke="red" stroke-width="0.5" points="730.48,-37.28 724.11,-28.82 723.81,-39.41 730.48,-37.28"/>
</g>
<!-- 2 -->
<g id="node15" class="node">
<title>2</title>
<ellipse fill="lightblue" stroke="black" cx="617.01" cy="-14.85" rx="14.7" ry="14.7"/>
<text text-anchor="middle" x="617.01" y="-12.65" font-family="Times New Roman,serif" font-size="9.00">2</text>
</g>
<!-- &#45;1&#45;&gt;2 -->
<g id="edge3" class="edge">
<title>&#45;1&#45;&gt;2</title>
<path fill="none" stroke="green" stroke-width="0.18" d="M127.07,-157.55C139.74,-155.84 160.26,-153.16 178.01,-151.2 262.54,-141.84 487.33,-160.97 559.01,-115.2 566.42,-110.46 591.11,-65.17 605.78,-37.4"/>
<polygon fill="green" stroke="green" stroke-width="0.18" points="608.95,-38.88 610.51,-28.4 602.76,-35.63 608.95,-38.88"/>
</g>
<!-- 3 -->
<g id="node16" class="node">
<title>3</title>
<ellipse fill="lightblue" stroke="black" cx="382.01" cy="-14.85" rx="14.7" ry="14.7"/>
<text text-anchor="middle" x="382.01" y="-12.65" font-family="Times New Roman,serif" font-size="9.00">3</text>
</g>
<!-- &#45;1&#45;&gt;3 -->
<g id="edge4" class="edge">
<title>&#45;1&#45;&gt;3</title>
<path fill="none" stroke="red" stroke-width="1.44" d="M106.04,-151.13C97.73,-143.01 85.94,-129.63 81.01,-115.2 73.9,-94.38 66.64,-82.36 81.01,-65.7 116.51,-24.52 269.61,-39.92 323.01,-29.7 334.48,-27.5 347.09,-24.61 357.71,-22.03"/>
<polygon fill="red" stroke="red" stroke-width="1.44" points="358.66,-25.4 367.53,-19.6 356.98,-18.61 358.66,-25.4"/>
</g>
<!-- 1926 -->
<g id="node18" class="node">
<title>1926</title>
<ellipse fill="white" stroke="black" cx="115.01" cy="-90.45" rx="25" ry="25"/>
<text text-anchor="middle" x="115.01" y="-88.25" font-family="Times New Roman,serif" font-size="9.00">1926</text>
</g>
<!-- &#45;1&#45;&gt;1926 -->
<g id="edge44" class="edge">
<title>&#45;1&#45;&gt;1926</title>
<path fill="none" stroke="green" stroke-width="0.43" d="M115.01,-151.16C115.01,-144.72 115.01,-135.23 115.01,-125.69"/>
<polygon fill="green" stroke="green" stroke-width="0.43" points="118.51,-125.47 115.01,-115.47 111.51,-125.47 118.51,-125.47"/>
</g>
<!-- &#45;2 -->
<g id="node2" class="node">
<title>&#45;2</title>
<polygon fill="lightgray" stroke="black" points="711.01,-99.45 687.01,-99.45 687.01,-81.45 711.01,-81.45 711.01,-99.45"/>
<text text-anchor="middle" x="699.01" y="-88.25" font-family="Times New Roman,serif" font-size="9.00">&#45;2</text>
</g>
<!-- &#45;2&#45;&gt;1 -->
<g id="edge5" class="edge">
<title>&#45;2&#45;&gt;1</title>
<path fill="none" stroke="green" stroke-width="0.3" d="M701.22,-81.29C703.97,-71.17 708.78,-53.49 712.7,-39.06"/>
<polygon fill="green" stroke="green" stroke-width="0.3" points="716.11,-39.84 715.36,-29.27 709.36,-38.01 716.11,-39.84"/>
</g>
<!-- &#45;2&#45;&gt;2 -->
<g id="edge6" class="edge">
<title>&#45;2&#45;&gt;2</title>
<path fill="none" stroke="red" stroke-width="0.34" d="M692.32,-81.24C688.34,-76.52 683.09,-70.58 678.01,-65.7 665,-53.19 649.19,-40.33 636.93,-30.8"/>
<polygon fill="red" stroke="red" stroke-width="0.34" points="638.78,-27.82 628.72,-24.51 634.53,-33.37 638.78,-27.82"/>
</g>
<!-- &#45;2&#45;&gt;3 -->
<g id="edge7" class="edge">
<title>&#45;2&#45;&gt;3</title>
<path fill="none" stroke="red" stroke-width="0.21" d="M693.8,-81.08C690.07,-75.81 684.55,-69.33 678.01,-65.7 631.27,-39.75 469.3,-23.37 406.84,-17.89"/>
<polygon fill="red" stroke="red" stroke-width="0.21" points="406.98,-14.39 396.72,-17.03 406.38,-21.37 406.98,-14.39"/>
</g>
<!-- &#45;3 -->
<g id="node3" class="node">
<title>&#45;3</title>
<polygon fill="lightgray" stroke="black" points="414.01,-99.45 390.01,-99.45 390.01,-81.45 414.01,-81.45 414.01,-99.45"/>
<text text-anchor="middle" x="402.01" y="-88.25" font-family="Times New Roman,serif" font-size="9.00">&#45;3</text>
</g>
<!-- &#45;3&#45;&gt;0 -->
<g id="edge8" class="edge">
<title>&#45;3&#45;&gt;0</title>
<path fill="none" stroke="green" stroke-width="0.79" d="M390.59,-81.29C373.36,-68.98 340.46,-45.47 319.14,-30.23"/>
<polygon fill="green" stroke="green" stroke-width="0.79" points="320.96,-27.24 310.79,-24.27 316.89,-32.93 320.96,-27.24"/>
</g>
<!-- &#45;3&#45;&gt;1 -->
<g id="edge9" class="edge">
<title>&#45;3&#45;&gt;1</title>
<path fill="none" stroke="red" stroke-width="0.45" d="M407.21,-81.07C410.94,-75.8 416.46,-69.32 423.01,-65.7 508.94,-18.17 544.22,-46.28 641.01,-29.7 658.79,-26.65 678.82,-23.09 694.14,-20.34"/>
<polygon fill="red" stroke="red" stroke-width="0.45" points="695.13,-23.72 704.35,-18.51 693.89,-16.83 695.13,-23.72"/>
</g>
<!-- &#45;3&#45;&gt;2 -->
<g id="edge10" class="edge">
<title>&#45;3&#45;&gt;2</title>
<path fill="none" stroke="red" stroke-width="0.2" d="M407.32,-81.26C411.1,-76.06 416.62,-69.61 423.01,-65.7 477.27,-32.49 553.05,-21.29 591.88,-17.6"/>
<polygon fill="red" stroke="red" stroke-width="0.2" points="592.58,-21.05 602.25,-16.71 591.99,-14.08 592.58,-21.05"/>
</g>
<!-- &#45;3&#45;&gt;3 -->
<g id="edge11" class="edge">
<title>&#45;3&#45;&gt;3</title>
<path fill="none" stroke="red" stroke-width="0.13" d="M399.79,-81.29C397.04,-71.17 392.24,-53.49 388.31,-39.06"/>
<polygon fill="red" stroke="red" stroke-width="0.13" points="391.66,-38.01 385.66,-29.27 384.9,-39.84 391.66,-38.01"/>
</g>
<!-- &#45;4 -->
<g id="node4" class="node">
<title>&#45;4</title>
<polygon fill="lightgray" stroke="black" points="456.01,-99.45 432.01,-99.45 432.01,-81.45 456.01,-81.45 456.01,-99.45"/>
<text text-anchor="middle" x="444.01" y="-88.25" font-family="Times New Roman,serif" font-size="9.00">&#45;4</text>
</g>
<!-- &#45;4&#45;&gt;0 -->
<g id="edge12" class="edge">
<title>&#45;4&#45;&gt;0</title>
<path fill="none" stroke="red" stroke-width="0.13" d="M438.18,-81.08C434.34,-76.07 428.94,-69.89 423.01,-65.7 391.85,-43.71 349.59,-29.41 323.32,-21.99"/>
<polygon fill="red" stroke="red" stroke-width="0.13" points="324.02,-18.55 313.45,-19.31 322.19,-25.31 324.02,-18.55"/>
</g>
<!-- &#45;4&#45;&gt;1 -->
<g id="edge13" class="edge">
<title>&#45;4&#45;&gt;1</title>
<path fill="none" stroke="green" stroke-width="0.45" stroke-dasharray="1,5" d="M449.24,-81.14C452.99,-75.89 458.51,-69.42 465.01,-65.7 475.03,-59.96 632.87,-31.27 694.56,-20.21"/>
<polygon fill="green" stroke="green" stroke-width="0.45" points="695.35,-23.62 704.58,-18.42 694.12,-16.73 695.35,-23.62"/>
</g>
<!-- &#45;4&#45;&gt;2 -->
<g id="edge14" class="edge">
<title>&#45;4&#45;&gt;2</title>
<path fill="none" stroke="red" stroke-width="0.3" d="M449.4,-81.4C453.22,-76.26 458.75,-69.81 465.01,-65.7 505.07,-39.35 560.22,-25.87 591.9,-19.88"/>
<polygon fill="red" stroke="red" stroke-width="0.3" points="592.83,-23.27 602.06,-18.07 591.6,-16.38 592.83,-23.27"/>
</g>
<!-- &#45;4&#45;&gt;3 -->
<g id="edge15" class="edge">
<title>&#45;4&#45;&gt;3</title>
<path fill="none" stroke="green" stroke-width="0.63" stroke-dasharray="1,5" d="M437.14,-81.29C427.67,-70.05 410.33,-49.47 397.62,-34.39"/>
<polygon fill="green" stroke="green" stroke-width="0.63" points="400.24,-32.05 391.12,-26.66 394.88,-36.56 400.24,-32.05"/>
</g>
<!-- &#45;5 -->
<g id="node5" class="node">
<title>&#45;5</title>
<polygon fill="lightgray" stroke="black" points="294.01,-169.2 270.01,-169.2 270.01,-151.2 294.01,-151.2 294.01,-169.2"/>
<text text-anchor="middle" x="282.01" y="-158" font-family="Times New Roman,serif" font-size="9.00">&#45;5</text>
</g>
<!-- &#45;5&#45;&gt;0 -->
<g id="edge16" class="edge">
<title>&#45;5&#45;&gt;0</title>
<path fill="none" stroke="red" stroke-width="0.62" d="M270,-157.4C249.74,-153.66 209.32,-142.93 192.01,-115.2 180.36,-96.53 180.18,-84.25 192.01,-65.7 210.03,-37.42 248.73,-24.93 274.31,-19.59"/>
<polygon fill="red" stroke="red" stroke-width="0.62" points="275.18,-22.99 284.37,-17.72 273.9,-16.11 275.18,-22.99"/>
</g>
<!-- &#45;5&#45;&gt;1 -->
<g id="edge17" class="edge">
<title>&#45;5&#45;&gt;1</title>
<path fill="none" stroke="red" stroke-width="0.21" d="M294.21,-158.97C363.68,-157.59 707.26,-149.05 738.01,-115.2 757.44,-93.79 744.02,-58.83 731.97,-36.6"/>
<polygon fill="red" stroke="red" stroke-width="0.21" points="734.84,-34.57 726.82,-27.65 728.77,-38.07 734.84,-34.57"/>
</g>
<!-- &#45;5&#45;&gt;2 -->
<g id="edge18" class="edge">
<title>&#45;5&#45;&gt;2</title>
<path fill="none" stroke="red" stroke-width="0.29" d="M294.17,-158.92C361.9,-157.29 690.59,-147.71 720.01,-115.2 734.77,-98.88 731.69,-84.34 720.01,-65.7 703,-38.57 666.59,-25.85 641.94,-20.14"/>
<polygon fill="red" stroke="red" stroke-width="0.29" points="642.38,-16.65 631.88,-18.04 640.95,-23.51 642.38,-16.65"/>
</g>
<!-- &#45;5&#45;&gt;3 -->
<g id="edge19" class="edge">
<title>&#45;5&#45;&gt;3</title>
<path fill="none" stroke="green" stroke-width="2.79" d="M281.6,-151.11C281.13,-133.81 282.23,-92.58 301.01,-65.7 315.05,-45.6 340.06,-32.04 358.58,-24.2"/>
<polygon fill="green" stroke="green" stroke-width="2.79" points="360.09,-27.37 368.1,-20.43 357.51,-20.86 360.09,-27.37"/>
</g>
<!-- &#45;5&#45;&gt;1926 -->
<g id="edge50" class="edge">
<title>&#45;5&#45;&gt;1926</title>
<path fill="none" stroke="red" stroke-width="0.42" d="M269.67,-155.92C246.43,-149.53 194.85,-134.37 154.01,-115.2 150.65,-113.62 147.22,-111.83 143.86,-109.95"/>
<polygon fill="red" stroke="red" stroke-width="0.42" points="145.59,-106.91 135.19,-104.88 142.05,-112.95 145.59,-106.91"/>
</g>
<!-- &#45;6 -->
<g id="node6" class="node">
<title>&#45;6</title>
<polygon fill="lightgray" stroke="black" points="211.01,-169.2 187.01,-169.2 187.01,-151.2 211.01,-151.2 211.01,-169.2"/>
<text text-anchor="middle" x="199.01" y="-158" font-family="Times New Roman,serif" font-size="9.00">&#45;6</text>
</g>
<!-- &#45;6&#45;&gt;0 -->
<g id="edge20" class="edge">
<title>&#45;6&#45;&gt;0</title>
<path fill="none" stroke="green" stroke-width="0.33" d="M186.63,-158.88C161.63,-157.49 105.45,-150.4 81.01,-115.2 68.46,-97.13 67.3,-82.9 81.01,-65.7 104.96,-35.66 222.18,-22.27 274.14,-17.74"/>
<polygon fill="green" stroke="green" stroke-width="0.33" points="274.5,-21.23 284.18,-16.91 273.92,-14.25 274.5,-21.23"/>
</g>
<!-- &#45;6&#45;&gt;1 -->
<g id="edge21" class="edge">
<title>&#45;6&#45;&gt;1</title>
<path fill="none" stroke="green" stroke-width="0.24" d="M211.34,-157.4C223.83,-155.63 243.73,-152.94 261.01,-151.2 315.54,-145.69 715.69,-155.34 753.01,-115.2 774.15,-92.45 752.09,-55.97 734.97,-34.12"/>
<polygon fill="green" stroke="green" stroke-width="0.24" points="737.57,-31.77 728.52,-26.26 732.16,-36.21 737.57,-31.77"/>
</g>
<!-- &#45;6&#45;&gt;2 -->
<g id="edge22" class="edge">
<title>&#45;6&#45;&gt;2</title>
<path fill="none" stroke="red" stroke-width="0.28" d="M211.35,-157.53C223.86,-155.86 243.76,-153.24 261.01,-151.2 334.7,-142.45 537.26,-164.18 593.01,-115.2 614.09,-96.68 618.28,-63.13 618.41,-40.19"/>
<polygon fill="red" stroke="red" stroke-width="0.28" points="621.9,-39.82 618.2,-29.89 614.9,-39.96 621.9,-39.82"/>
</g>
<!-- &#45;6&#45;&gt;1926 -->
<g id="edge49" class="edge">
<title>&#45;6&#45;&gt;1926</title>
<path fill="none" stroke="red" stroke-width="0.34" d="M189.04,-151.16C177.5,-141.85 158,-126.12 141.91,-113.14"/>
<polygon fill="red" stroke="red" stroke-width="0.34" points="143.85,-110.21 133.87,-106.66 139.45,-115.66 143.85,-110.21"/>
</g>
<!-- &#45;7 -->
<g id="node7" class="node">
<title>&#45;7</title>
<polygon fill="lightgray" stroke="black" points="865.01,-169.2 841.01,-169.2 841.01,-151.2 865.01,-151.2 865.01,-169.2"/>
<text text-anchor="middle" x="853.01" y="-158" font-family="Times New Roman,serif" font-size="9.00">&#45;7</text>
</g>
<!-- &#45;7&#45;&gt;0 -->
<g id="edge23" class="edge">
<title>&#45;7&#45;&gt;0</title>
<path fill="none" stroke="red" stroke-width="0.54" d="M840.95,-159.31C757.96,-159.93 273.25,-161.6 230.01,-115.2 215.01,-99.1 219.99,-85.29 230.01,-65.7 239.59,-46.96 259.87,-33.64 275.98,-25.51"/>
<polygon fill="red" stroke="red" stroke-width="0.54" points="277.77,-28.54 285.33,-21.12 274.79,-22.2 277.77,-28.54"/>
</g>
<!-- &#45;7&#45;&gt;1 -->
<g id="edge24" class="edge">
<title>&#45;7&#45;&gt;1</title>
<path fill="none" stroke="red" stroke-width="0.18" d="M865.17,-153.05C877.8,-145.9 896.85,-132.79 905.01,-115.2 914.26,-95.24 918.4,-83.15 905.01,-65.7 885.37,-40.1 789.6,-24.76 743.67,-18.77"/>
<polygon fill="red" stroke="red" stroke-width="0.18" points="744.01,-15.28 733.65,-17.51 743.13,-22.23 744.01,-15.28"/>
</g>
<!-- &#45;7&#45;&gt;2 -->
<g id="edge25" class="edge">
<title>&#45;7&#45;&gt;2</title>
<path fill="none" stroke="red" stroke-width="0.14" d="M853.5,-151.1C854.13,-133.03 852.95,-89.16 829.01,-65.7 815.55,-52.52 694.59,-29.65 641.64,-20.17"/>
<polygon fill="red" stroke="red" stroke-width="0.14" points="642.18,-16.71 631.73,-18.4 640.96,-23.6 642.18,-16.71"/>
</g>
<!-- &#45;7&#45;&gt;3 -->
<g id="edge26" class="edge">
<title>&#45;7&#45;&gt;3</title>
<path fill="none" stroke="green" stroke-width="0.29" stroke-dasharray="1,5" d="M840.84,-159.02C770.02,-157.85 412.95,-150.25 381.01,-115.2 362.46,-94.83 367.44,-61.21 373.81,-38.8"/>
<polygon fill="green" stroke="green" stroke-width="0.29" points="377.21,-39.68 376.86,-29.09 370.53,-37.59 377.21,-39.68"/>
</g>
<!-- 2196 -->
<g id="node19" class="node">
<title>2196</title>
<ellipse fill="white" stroke="black" cx="1020.01" cy="-90.45" rx="25" ry="25"/>
<text text-anchor="middle" x="1020.01" y="-88.25" font-family="Times New Roman,serif" font-size="9.00">2196</text>
</g>
<!-- &#45;7&#45;&gt;2196 -->
<g id="edge51" class="edge">
<title>&#45;7&#45;&gt;2196</title>
<path fill="none" stroke="green" stroke-width="0.16" d="M865.35,-155.92C888.59,-149.53 940.17,-134.37 981.01,-115.2 984.36,-113.62 987.79,-111.83 991.16,-109.95"/>
<polygon fill="green" stroke="green" stroke-width="0.16" points="992.96,-112.95 999.82,-104.88 989.43,-106.91 992.96,-112.95"/>
</g>
<!-- &#45;8 -->
<g id="node8" class="node">
<title>&#45;8</title>
<polygon fill="lightgray" stroke="black" points="334.01,-99.45 310.01,-99.45 310.01,-81.45 334.01,-81.45 334.01,-99.45"/>
<text text-anchor="middle" x="322.01" y="-88.25" font-family="Times New Roman,serif" font-size="9.00">&#45;8</text>
</g>
<!-- &#45;8&#45;&gt;0 -->
<g id="edge27" class="edge">
<title>&#45;8&#45;&gt;0</title>
<path fill="none" stroke="red" stroke-width="0.33" d="M319.46,-81.29C316.3,-71.17 310.77,-53.49 306.26,-39.06"/>
<polygon fill="red" stroke="red" stroke-width="0.33" points="309.53,-37.77 303.2,-29.27 302.85,-39.86 309.53,-37.77"/>
</g>
<!-- &#45;8&#45;&gt;1 -->
<g id="edge28" class="edge">
<title>&#45;8&#45;&gt;1</title>
<path fill="none" stroke="green" stroke-width="0.18" d="M334.36,-83.44C346.09,-77.98 364.36,-70.13 381.01,-65.7 493.74,-35.69 525.78,-47.9 641.01,-29.7 658.83,-26.88 678.86,-23.32 694.17,-20.51"/>
<polygon fill="green" stroke="green" stroke-width="0.18" points="695.18,-23.88 704.37,-18.62 693.9,-17 695.18,-23.88"/>
</g>
<!-- &#45;8&#45;&gt;3 -->
<g id="edge29" class="edge">
<title>&#45;8&#45;&gt;3</title>
<path fill="none" stroke="red" stroke-width="0.75" d="M328.66,-81.29C337.64,-70.28 353.92,-50.31 366.14,-35.32"/>
<polygon fill="red" stroke="red" stroke-width="0.75" points="369.17,-37.13 372.78,-27.17 363.75,-32.71 369.17,-37.13"/>
</g>
<!-- &#45;9 -->
<g id="node9" class="node">
<title>&#45;9</title>
<polygon fill="lightgray" stroke="black" points="669.01,-99.45 645.01,-99.45 645.01,-81.45 669.01,-81.45 669.01,-99.45"/>
<text text-anchor="middle" x="657.01" y="-88.25" font-family="Times New Roman,serif" font-size="9.00">&#45;9</text>
</g>
<!-- &#45;9&#45;&gt;0 -->
<g id="edge30" class="edge">
<title>&#45;9&#45;&gt;0</title>
<path fill="none" stroke="red" stroke-width="0.39" d="M644.99,-86.29C626.57,-81.5 590.19,-72.26 559.01,-65.7 470.2,-47 446.88,-48.07 358.01,-29.7 346.57,-27.33 333.96,-24.42 323.34,-21.87"/>
<polygon fill="red" stroke="red" stroke-width="0.39" points="324.05,-18.44 313.51,-19.48 322.4,-25.24 324.05,-18.44"/>
</g>
<!-- &#45;9&#45;&gt;1 -->
<g id="edge31" class="edge">
<title>&#45;9&#45;&gt;1</title>
<path fill="none" stroke="red" stroke-width="0.59" d="M663.88,-81.29C673.35,-70.05 690.68,-49.47 703.39,-34.39"/>
<polygon fill="red" stroke="red" stroke-width="0.59" points="706.13,-36.56 709.9,-26.66 700.78,-32.05 706.13,-36.56"/>
</g>
<!-- &#45;9&#45;&gt;2 -->
<g id="edge32" class="edge">
<title>&#45;9&#45;&gt;2</title>
<path fill="none" stroke="red" stroke-width="0.33" d="M652.57,-81.29C646.83,-70.73 636.62,-51.93 628.6,-37.18"/>
<polygon fill="red" stroke="red" stroke-width="0.33" points="631.57,-35.32 623.72,-28.2 625.42,-38.66 631.57,-35.32"/>
</g>
<!-- &#45;10 -->
<g id="node10" class="node">
<title>&#45;10</title>
<polygon fill="lightgray" stroke="black" points="1015.51,-169.2 986.51,-169.2 986.51,-151.2 1015.51,-151.2 1015.51,-169.2"/>
<text text-anchor="middle" x="1001.01" y="-158" font-family="Times New Roman,serif" font-size="9.00">&#45;10</text>
</g>
<!-- &#45;10&#45;&gt;0 -->
<g id="edge33" class="edge">
<title>&#45;10&#45;&gt;0</title>
<path fill="none" stroke="red" stroke-width="1.14" stroke-dasharray="1,5" d="M986.15,-158.26C962.44,-156.76 914.58,-153.75 874.01,-151.2 810.34,-147.19 345.14,-161.25 301.01,-115.2 281.95,-95.3 285.89,-61.57 291.55,-39"/>
<polygon fill="red" stroke="red" stroke-width="1.14" points="294.97,-39.79 294.29,-29.22 288.22,-37.91 294.97,-39.79"/>
</g>
<!-- &#45;10&#45;&gt;1 -->
<g id="edge34" class="edge">
<title>&#45;10&#45;&gt;1</title>
<path fill="none" stroke="green" stroke-width="0.17" d="M1015.82,-151.75C1028.59,-144.4 1046.18,-131.87 1054.01,-115.2 1063.36,-95.28 1068.37,-82.36 1054.01,-65.7 1013.83,-19.09 815.42,-15.37 744.37,-15.57"/>
<polygon fill="green" stroke="green" stroke-width="0.17" points="744.08,-12.07 734.11,-15.63 744.12,-19.07 744.08,-12.07"/>
</g>
<!-- &#45;10&#45;&gt;2 -->
<g id="edge35" class="edge">
<title>&#45;10&#45;&gt;2</title>
<path fill="none" stroke="red" stroke-width="0.25" d="M991.02,-151.01C968.24,-132.75 910.03,-88.52 854.01,-65.7 834.35,-57.69 698.18,-31.29 641.58,-20.5"/>
<polygon fill="red" stroke="red" stroke-width="0.25" points="642.17,-17.05 631.69,-18.62 640.86,-23.93 642.17,-17.05"/>
</g>
<!-- 1986 -->
<g id="node17" class="node">
<title>1986</title>
<ellipse fill="white" stroke="black" cx="1126.01" cy="-90.45" rx="25" ry="25"/>
<text text-anchor="middle" x="1126.01" y="-88.25" font-family="Times New Roman,serif" font-size="9.00">1986</text>
</g>
<!-- &#45;10&#45;&gt;1986 -->
<g id="edge47" class="edge">
<title>&#45;10&#45;&gt;1986</title>
<path fill="none" stroke="green" stroke-width="0.19" d="M1015.79,-152.05C1033.06,-143.6 1062.42,-128.95 1087.01,-115.2 1090.08,-113.48 1093.25,-111.65 1096.4,-109.79"/>
<polygon fill="green" stroke="green" stroke-width="0.19" points="1098.35,-112.7 1105.13,-104.55 1094.75,-106.7 1098.35,-112.7"/>
</g>
<!-- &#45;11 -->
<g id="node11" class="node">
<title>&#45;11</title>
<polygon fill="lightgray" stroke="black" points="503.51,-99.45 474.51,-99.45 474.51,-81.45 503.51,-81.45 503.51,-99.45"/>
<text text-anchor="middle" x="489.01" y="-88.25" font-family="Times New Roman,serif" font-size="9.00">&#45;11</text>
</g>
<!-- &#45;11&#45;&gt;0 -->
<g id="edge36" class="edge">
<title>&#45;11&#45;&gt;0</title>
<path fill="none" stroke="green" stroke-width="1.13" stroke-dasharray="1,5" d="M482.65,-81.37C478.21,-76.22 471.86,-69.77 465.01,-65.7 440.78,-51.31 363.12,-31.29 323.2,-21.58"/>
<polygon fill="green" stroke="green" stroke-width="1.13" points="323.79,-18.12 313.25,-19.18 322.15,-24.93 323.79,-18.12"/>
</g>
<!-- &#45;11&#45;&gt;1 -->
<g id="edge37" class="edge">
<title>&#45;11&#45;&gt;1</title>
<path fill="none" stroke="red" stroke-width="0.21" stroke-dasharray="1,5" d="M494.96,-81.24C499.16,-76.03 505.23,-69.57 512.01,-65.7 543.2,-47.88 646.35,-28.39 694.21,-20.03"/>
<polygon fill="red" stroke="red" stroke-width="0.21" points="695.07,-23.43 704.33,-18.29 693.88,-16.53 695.07,-23.43"/>
</g>
<!-- &#45;11&#45;&gt;2 -->
<g id="edge38" class="edge">
<title>&#45;11&#45;&gt;2</title>
<path fill="none" stroke="green" stroke-width="0.16" d="M495.64,-81.24C499.93,-76.29 505.85,-70.11 512.01,-65.7 537.77,-47.22 571.46,-32.64 593.64,-24.14"/>
<polygon fill="green" stroke="green" stroke-width="0.16" points="595.09,-27.34 603.24,-20.57 592.65,-20.78 595.09,-27.34"/>
</g>
<!-- &#45;11&#45;&gt;3 -->
<g id="edge39" class="edge">
<title>&#45;11&#45;&gt;3</title>
<path fill="none" stroke="red" stroke-width="0.29" d="M481.45,-81.03C476.93,-76.24 470.93,-70.3 465.01,-65.7 445.7,-50.7 421.54,-36.65 404.27,-27.32"/>
<polygon fill="red" stroke="red" stroke-width="0.29" points="405.46,-23.99 394.99,-22.39 402.18,-30.17 405.46,-23.99"/>
</g>
<!-- &#45;12 -->
<g id="node12" class="node">
<title>&#45;12</title>
<polygon fill="lightgray" stroke="black" points="550.51,-99.45 521.51,-99.45 521.51,-81.45 550.51,-81.45 550.51,-99.45"/>
<text text-anchor="middle" x="536.01" y="-88.25" font-family="Times New Roman,serif" font-size="9.00">&#45;12</text>
</g>
<!-- &#45;12&#45;&gt;0 -->
<g id="edge40" class="edge">
<title>&#45;12&#45;&gt;0</title>
<path fill="none" stroke="green" stroke-width="0.23" stroke-dasharray="1,5" d="M529.73,-81.23C525.32,-76.02 518.99,-69.55 512.01,-65.7 450.49,-31.7 426.44,-45.73 358.01,-29.7 346.64,-27.03 334.03,-24.08 323.41,-21.58"/>
<polygon fill="green" stroke="green" stroke-width="0.23" points="324.09,-18.15 313.55,-19.27 322.49,-24.96 324.09,-18.15"/>
</g>
<!-- &#45;12&#45;&gt;1 -->
<g id="edge41" class="edge">
<title>&#45;12&#45;&gt;1</title>
<path fill="none" stroke="green" stroke-width="0.16" d="M550.67,-83.55C582.44,-70.77 657.81,-40.46 695.99,-25.11"/>
<polygon fill="green" stroke="green" stroke-width="0.16" points="697.3,-28.35 705.28,-21.37 694.69,-21.86 697.3,-28.35"/>
</g>
<!-- &#45;12&#45;&gt;2 -->
<g id="edge42" class="edge">
<title>&#45;12&#45;&gt;2</title>
<path fill="none" stroke="green" stroke-width="0.35" d="M544.99,-81.29C557.94,-69.52 582.16,-47.51 598.91,-32.29"/>
<polygon fill="green" stroke="green" stroke-width="0.35" points="601.41,-34.75 606.46,-25.44 596.7,-29.57 601.41,-34.75"/>
</g>
<!-- &#45;12&#45;&gt;3 -->
<g id="edge43" class="edge">
<title>&#45;12&#45;&gt;3</title>
<path fill="none" stroke="red" stroke-width="0.26" d="M529.15,-81.08C524.69,-76.08 518.51,-69.89 512.01,-65.7 478.3,-43.94 433.66,-29.44 406.43,-21.94"/>
<polygon fill="red" stroke="red" stroke-width="0.26" points="407.13,-18.5 396.57,-19.32 405.34,-25.27 407.13,-18.5"/>
</g>
<!-- 1986&#45;&gt;1 -->
<g id="edge48" class="edge">
<title>1986&#45;&gt;1</title>
<path fill="none" stroke="red" stroke-width="0.39" d="M1106.16,-75.2C1100.25,-71.57 1093.58,-68.03 1087.01,-65.7 963.73,-21.98 804.73,-16.25 744.05,-15.75"/>
<polygon fill="red" stroke="red" stroke-width="0.39" points="743.91,-12.25 733.89,-15.71 743.88,-19.25 743.91,-12.25"/>
</g>
<!-- 1926&#45;&gt;0 -->
<g id="edge45" class="edge">
<title>1926&#45;&gt;0</title>
<path fill="none" stroke="green" stroke-width="0.18" d="M135.19,-76.02C141.11,-72.4 147.69,-68.66 154.01,-65.7 195,-46.45 245.54,-30.77 274.84,-22.42"/>
<polygon fill="green" stroke="green" stroke-width="0.18" points="275.93,-25.75 284.61,-19.68 274.04,-19.01 275.93,-25.75"/>
</g>
<!-- 1926&#45;&gt;3 -->
<g id="edge46" class="edge">
<title>1926&#45;&gt;3</title>
<path fill="none" stroke="red" stroke-width="0.36" d="M138.7,-82.92C189.22,-68.99 307.06,-36.51 357.92,-22.49"/>
<polygon fill="red" stroke="red" stroke-width="0.36" points="359,-25.82 367.71,-19.79 357.14,-19.07 359,-25.82"/>
</g>
<!-- 2196&#45;&gt;1 -->
<g id="edge52" class="edge">
<title>2196&#45;&gt;1</title>
<path fill="none" stroke="green" stroke-width="0.21" d="M1000.08,-75.43C994.16,-71.79 987.52,-68.2 981.01,-65.7 897.83,-33.67 791.59,-21.63 744.01,-17.62"/>
<polygon fill="green" stroke="green" stroke-width="0.21" points="744.25,-14.13 734,-16.82 743.69,-21.1 744.25,-14.13"/>
</g>
</g>
</svg>
