<?xml version="1.0" encoding="UTF-8" standalone="no"?>
<!DOCTYPE svg PUBLIC "-//W3C//DTD SVG 1.1//EN"
 "http://www.w3.org/Graphics/SVG/1.1/DTD/svg11.dtd">
<!-- Generated by graphviz version 5.0.0 (20220707.1540)
 -->
<!-- Pages: 1 -->
<svg width="556pt" height="236pt"
 viewBox="0.00 0.00 555.73 235.82" xmlns="http://www.w3.org/2000/svg" xmlns:xlink="http://www.w3.org/1999/xlink">
<g id="graph0" class="graph" transform="scale(1 1) rotate(0) translate(4 231.82)">
<polygon fill="white" stroke="transparent" points="-4,4 -4,-231.82 551.73,-231.82 551.73,4 -4,4"/>
<!-- &#45;1 -->
<g id="node1" class="node">
<title>&#45;1</title>
<polygon fill="lightgray" stroke="black" points="199.73,-227.82 175.73,-227.82 175.73,-209.82 199.73,-209.82 199.73,-227.82"/>
<text text-anchor="middle" x="187.73" y="-216.62" font-family="Times New Roman,serif" font-size="9.00">&#45;1</text>
</g>
<!-- 0 -->
<g id="node13" class="node">
<title>0</title>
<ellipse fill="lightblue" stroke="black" cx="186.73" cy="-158.97" rx="14.7" ry="14.7"/>
<text text-anchor="middle" x="186.73" y="-156.77" font-family="Times New Roman,serif" font-size="9.00">0</text>
</g>
<!-- &#45;1&#45;&gt;0 -->
<g id="edge1" class="edge">
<title>&#45;1&#45;&gt;0</title>
<path fill="none" stroke="red" stroke-width="0.7" d="M187.59,-209.78C187.48,-203.17 187.31,-193.46 187.15,-184.36"/>
<polygon fill="red" stroke="red" stroke-width="0.7" points="190.65,-184.12 186.98,-174.18 183.65,-184.24 190.65,-184.12"/>
</g>
<!-- 1 -->
<g id="node14" class="node">
<title>1</title>
<ellipse fill="lightblue" stroke="black" cx="267.73" cy="-14.85" rx="14.7" ry="14.7"/>
<text text-anchor="middle" x="267.73" y="-12.65" font-family="Times New Roman,serif" font-size="9.00">1</text>
</g>
<!-- &#45;1&#45;&gt;1 -->
<g id="edge2" class="edge">
<title>&#45;1&#45;&gt;1</title>
<path fill="none" stroke="green" stroke-width="0.22" d="M181.34,-209.64C175.19,-201.2 166.32,-187.41 162.73,-173.82 159.36,-161.06 158.29,-156.56 162.73,-144.12 179.78,-96.4 223.05,-53.64 248.41,-31.59"/>
<polygon fill="green" stroke="green" stroke-width="0.22" points="250.9,-34.07 256.26,-24.93 246.37,-28.73 250.9,-34.07"/>
</g>
<!-- 2 -->
<g id="node15" class="node">
<title>2</title>
<ellipse fill="lightblue" stroke="black" cx="310.73" cy="-158.97" rx="14.7" ry="14.7"/>
<text text-anchor="middle" x="310.73" y="-156.77" font-family="Times New Roman,serif" font-size="9.00">2</text>
</g>
<!-- &#45;1&#45;&gt;2 -->
<g id="edge3" class="edge">
<title>&#45;1&#45;&gt;2</title>
<path fill="none" stroke="green" stroke-width="0.25" d="M199.98,-212.07C220.56,-202.38 262.38,-182.71 288.34,-170.51"/>
<polygon fill="green" stroke="green" stroke-width="0.25" points="289.87,-173.66 297.43,-166.23 286.89,-167.32 289.87,-173.66"/>
</g>
<!-- 3 -->
<g id="node16" class="node">
<title>3</title>
<ellipse fill="lightblue" stroke="black" cx="396.73" cy="-158.97" rx="14.7" ry="14.7"/>
<text text-anchor="middle" x="396.73" y="-156.77" font-family="Times New Roman,serif" font-size="9.00">3</text>
</g>
<!-- &#45;1&#45;&gt;3 -->
<g id="edge4" class="edge">
<title>&#45;1&#45;&gt;3</title>
<path fill="none" stroke="green" stroke-width="0.27" d="M200.09,-212.87C202.91,-211.81 205.91,-210.73 208.73,-209.82 266.7,-191.15 336.29,-174.05 372.37,-165.57"/>
<polygon fill="green" stroke="green" stroke-width="0.27" points="373.49,-168.9 382.44,-163.22 371.9,-162.09 373.49,-168.9"/>
</g>
<!-- &#45;2 -->
<g id="node2" class="node">
<title>&#45;2</title>
<polygon fill="lightgray" stroke="black" points="157.73,-227.82 133.73,-227.82 133.73,-209.82 157.73,-209.82 157.73,-227.82"/>
<text text-anchor="middle" x="145.73" y="-216.62" font-family="Times New Roman,serif" font-size="9.00">&#45;2</text>
</g>
<!-- &#45;2&#45;&gt;0 -->
<g id="edge5" class="edge">
<title>&#45;2&#45;&gt;0</title>
<path fill="none" stroke="green" stroke-width="0.11" d="M151.43,-209.78C156.88,-202.1 165.31,-190.2 172.56,-179.96"/>
<polygon fill="green" stroke="green" stroke-width="0.11" points="175.61,-181.72 178.53,-171.54 169.9,-177.68 175.61,-181.72"/>
</g>
<!-- &#45;2&#45;&gt;1 -->
<g id="edge6" class="edge">
<title>&#45;2&#45;&gt;1</title>
<path fill="none" stroke="red" stroke-width="0.25" d="M145.01,-209.52C143.33,-184.77 141.61,-110.43 176.73,-65.7 193.77,-44 222.98,-30.43 243.71,-23.02"/>
<polygon fill="red" stroke="red" stroke-width="0.25" points="245.02,-26.27 253.39,-19.78 242.8,-19.63 245.02,-26.27"/>
</g>
<!-- &#45;2&#45;&gt;2 -->
<g id="edge7" class="edge">
<title>&#45;2&#45;&gt;2</title>
<path fill="none" stroke="red" stroke-width="0.48" d="M158.15,-213.02C160.96,-211.95 163.95,-210.84 166.73,-209.82 209.03,-194.45 258.7,-177.5 287.26,-167.85"/>
<polygon fill="red" stroke="red" stroke-width="0.48" points="288.42,-171.15 296.78,-164.64 286.19,-164.52 288.42,-171.15"/>
</g>
<!-- &#45;2&#45;&gt;3 -->
<g id="edge8" class="edge">
<title>&#45;2&#45;&gt;3</title>
<path fill="none" stroke="green" stroke-width="0.39" stroke-dasharray="1,5" d="M158.06,-212.77C160.88,-211.71 163.89,-210.66 166.73,-209.82 239.96,-188.17 260.14,-190.15 334.73,-173.82 347.14,-171.11 360.94,-168.03 372.36,-165.47"/>
<polygon fill="green" stroke="green" stroke-width="0.39" points="373.47,-168.81 382.46,-163.2 371.93,-161.98 373.47,-168.81"/>
</g>
<!-- &#45;3 -->
<g id="node3" class="node">
<title>&#45;3</title>
<polygon fill="lightgray" stroke="black" points="241.73,-227.82 217.73,-227.82 217.73,-209.82 241.73,-209.82 241.73,-227.82"/>
<text text-anchor="middle" x="229.73" y="-216.62" font-family="Times New Roman,serif" font-size="9.00">&#45;3</text>
</g>
<!-- &#45;3&#45;&gt;0 -->
<g id="edge9" class="edge">
<title>&#45;3&#45;&gt;0</title>
<path fill="none" stroke="green" stroke-width="0.75" d="M223.75,-209.78C217.98,-202.02 209.02,-189.96 201.36,-179.66"/>
<polygon fill="green" stroke="green" stroke-width="0.75" points="204.11,-177.48 195.33,-171.54 198.49,-181.66 204.11,-177.48"/>
</g>
<!-- &#45;3&#45;&gt;1 -->
<g id="edge10" class="edge">
<title>&#45;3&#45;&gt;1</title>
<path fill="none" stroke="green" stroke-width="0.48" d="M231.27,-209.66C236.64,-181.09 254.73,-84.94 263.24,-39.73"/>
<polygon fill="green" stroke="green" stroke-width="0.48" points="266.73,-40.12 265.14,-29.65 259.85,-38.83 266.73,-40.12"/>
</g>
<!-- &#45;3&#45;&gt;2 -->
<g id="edge11" class="edge">
<title>&#45;3&#45;&gt;2</title>
<path fill="none" stroke="red" stroke-width="0.53" d="M241,-209.78C253.79,-200.64 274.91,-185.56 290.56,-174.38"/>
<polygon fill="red" stroke="red" stroke-width="0.53" points="292.94,-176.98 299.04,-168.32 288.87,-171.29 292.94,-176.98"/>
</g>
<!-- &#45;3&#45;&gt;3 -->
<g id="edge12" class="edge">
<title>&#45;3&#45;&gt;3</title>
<path fill="none" stroke="green" stroke-width="0.24" d="M242.14,-213.01C244.96,-211.94 247.94,-210.83 250.73,-209.82 293.59,-194.35 343.95,-177.43 372.93,-167.82"/>
<polygon fill="green" stroke="green" stroke-width="0.24" points="374.19,-171.09 382.58,-164.62 371.99,-164.44 374.19,-171.09"/>
</g>
<!-- &#45;4 -->
<g id="node4" class="node">
<title>&#45;4</title>
<polygon fill="lightgray" stroke="black" points="283.73,-227.82 259.73,-227.82 259.73,-209.82 283.73,-209.82 283.73,-227.82"/>
<text text-anchor="middle" x="271.73" y="-216.62" font-family="Times New Roman,serif" font-size="9.00">&#45;4</text>
</g>
<!-- &#45;4&#45;&gt;0 -->
<g id="edge13" class="edge">
<title>&#45;4&#45;&gt;0</title>
<path fill="none" stroke="red" stroke-width="0.11" d="M259.91,-209.78C246.29,-200.51 223.66,-185.1 207.16,-173.88"/>
<polygon fill="red" stroke="red" stroke-width="0.11" points="208.96,-170.87 198.73,-168.14 205.02,-176.66 208.96,-170.87"/>
</g>
<!-- &#45;4&#45;&gt;1 -->
<g id="edge14" class="edge">
<title>&#45;4&#45;&gt;1</title>
<path fill="none" stroke="red" stroke-width="0.36" stroke-dasharray="1,5" d="M271.57,-209.66C271.01,-181.16 269.11,-85.4 268.21,-40.05"/>
<polygon fill="red" stroke="red" stroke-width="0.36" points="271.71,-39.86 268.01,-29.93 264.71,-40 271.71,-39.86"/>
</g>
<!-- &#45;4&#45;&gt;2 -->
<g id="edge15" class="edge">
<title>&#45;4&#45;&gt;2</title>
<path fill="none" stroke="red" stroke-width="0.17" d="M277.16,-209.78C282.27,-202.19 290.15,-190.5 297,-180.35"/>
<polygon fill="red" stroke="red" stroke-width="0.17" points="299.96,-182.22 302.65,-171.97 294.15,-178.3 299.96,-182.22"/>
</g>
<!-- &#45;4&#45;&gt;3 -->
<g id="edge16" class="edge">
<title>&#45;4&#45;&gt;3</title>
<path fill="none" stroke="green" stroke-width="0.28" d="M284.18,-212.07C305.2,-202.33 348.04,-182.51 374.38,-170.32"/>
<polygon fill="green" stroke="green" stroke-width="0.28" points="375.99,-173.43 383.59,-166.06 373.05,-167.08 375.99,-173.43"/>
</g>
<!-- &#45;5 -->
<g id="node5" class="node">
<title>&#45;5</title>
<polygon fill="lightgray" stroke="black" points="505.73,-227.82 481.73,-227.82 481.73,-209.82 505.73,-209.82 505.73,-227.82"/>
<text text-anchor="middle" x="493.73" y="-216.62" font-family="Times New Roman,serif" font-size="9.00">&#45;5</text>
</g>
<!-- &#45;5&#45;&gt;1 -->
<g id="edge17" class="edge">
<title>&#45;5&#45;&gt;1</title>
<path fill="none" stroke="red" stroke-width="0.34" d="M493.77,-209.51C493.41,-184.07 488.75,-106.55 446.73,-65.7 404.53,-24.66 331.54,-16.8 293.1,-15.67"/>
<polygon fill="red" stroke="red" stroke-width="0.34" points="292.84,-12.16 282.79,-15.5 292.73,-19.16 292.84,-12.16"/>
</g>
<!-- &#45;5&#45;&gt;2 -->
<g id="edge18" class="edge">
<title>&#45;5&#45;&gt;2</title>
<path fill="none" stroke="green" stroke-width="0.33" d="M481.34,-212.95C478.53,-211.88 475.54,-210.79 472.73,-209.82 424.23,-193.14 366.68,-176.07 334.88,-166.87"/>
<polygon fill="green" stroke="green" stroke-width="0.33" points="335.72,-163.47 325.14,-164.06 333.78,-170.19 335.72,-163.47"/>
</g>
<!-- &#45;5&#45;&gt;3 -->
<g id="edge19" class="edge">
<title>&#45;5&#45;&gt;3</title>
<path fill="none" stroke="green" stroke-width="2" d="M481.45,-210.5C465.5,-200.99 437.42,-184.24 417.98,-172.65"/>
<polygon fill="green" stroke="green" stroke-width="2" points="419.61,-169.54 409.22,-167.42 416.02,-175.55 419.61,-169.54"/>
</g>
<!-- &#45;6 -->
<g id="node6" class="node">
<title>&#45;6</title>
<polygon fill="lightgray" stroke="black" points="67.73,-227.82 43.73,-227.82 43.73,-209.82 67.73,-209.82 67.73,-227.82"/>
<text text-anchor="middle" x="55.73" y="-216.62" font-family="Times New Roman,serif" font-size="9.00">&#45;6</text>
</g>
<!-- &#45;6&#45;&gt;0 -->
<g id="edge20" class="edge">
<title>&#45;6&#45;&gt;0</title>
<path fill="none" stroke="green" stroke-width="0.53" d="M67.82,-212.48C89.71,-202.82 136.22,-182.28 164.14,-169.95"/>
<polygon fill="green" stroke="green" stroke-width="0.53" points="165.78,-173.05 173.51,-165.81 162.95,-166.65 165.78,-173.05"/>
</g>
<!-- &#45;6&#45;&gt;1 -->
<g id="edge21" class="edge">
<title>&#45;6&#45;&gt;1</title>
<path fill="none" stroke="red" stroke-width="0.24" stroke-dasharray="1,5" d="M48.8,-209.52C29,-184.76 -24.08,-110.4 12.73,-65.7 41.76,-30.45 184.36,-19.78 242.74,-16.85"/>
<polygon fill="red" stroke="red" stroke-width="0.24" points="243.1,-20.34 252.93,-16.38 242.77,-13.35 243.1,-20.34"/>
</g>
<!-- &#45;6&#45;&gt;2 -->
<g id="edge22" class="edge">
<title>&#45;6&#45;&gt;2</title>
<path fill="none" stroke="red" stroke-width="0.8" d="M67.74,-213.12C70.96,-211.95 74.45,-210.77 77.73,-209.82 152.53,-188.33 243.22,-171.51 286.05,-164.1"/>
<polygon fill="red" stroke="red" stroke-width="0.8" points="286.84,-167.51 296.11,-162.38 285.66,-160.61 286.84,-167.51"/>
</g>
<!-- 965 -->
<g id="node17" class="node">
<title>965</title>
<ellipse fill="white" stroke="black" cx="56.73" cy="-86.91" rx="21.43" ry="21.43"/>
<text text-anchor="middle" x="56.73" y="-84.71" font-family="Times New Roman,serif" font-size="9.00">965</text>
</g>
<!-- &#45;6&#45;&gt;965 -->
<g id="edge45" class="edge">
<title>&#45;6&#45;&gt;965</title>
<path fill="none" stroke="green" stroke-width="0.21" d="M55.8,-209.7C55.93,-191.89 56.27,-148.62 56.5,-118.77"/>
<polygon fill="green" stroke="green" stroke-width="0.21" points="60,-118.48 56.57,-108.45 53,-118.42 60,-118.48"/>
</g>
<!-- &#45;7 -->
<g id="node7" class="node">
<title>&#45;7</title>
<polygon fill="lightgray" stroke="black" points="547.73,-227.82 523.73,-227.82 523.73,-209.82 547.73,-209.82 547.73,-227.82"/>
<text text-anchor="middle" x="535.73" y="-216.62" font-family="Times New Roman,serif" font-size="9.00">&#45;7</text>
</g>
<!-- &#45;7&#45;&gt;1 -->
<g id="edge23" class="edge">
<title>&#45;7&#45;&gt;1</title>
<path fill="none" stroke="red" stroke-width="0.1" d="M534.97,-209.74C532.12,-184.32 519.78,-105.32 473.73,-65.7 421.39,-20.66 335.09,-14.86 292.74,-14.98"/>
<polygon fill="red" stroke="red" stroke-width="0.1" points="292.68,-11.48 282.74,-15.12 292.78,-18.48 292.68,-11.48"/>
</g>
<!-- &#45;7&#45;&gt;2 -->
<g id="edge24" class="edge">
<title>&#45;7&#45;&gt;2</title>
<path fill="none" stroke="green" stroke-width="0.24" d="M523.39,-212.83C520.56,-211.77 517.56,-210.7 514.73,-209.82 480.98,-199.32 381.33,-176.13 334.97,-165.5"/>
<polygon fill="green" stroke="green" stroke-width="0.24" points="335.69,-162.07 325.16,-163.25 334.13,-168.89 335.69,-162.07"/>
</g>
<!-- &#45;7&#45;&gt;3 -->
<g id="edge25" class="edge">
<title>&#45;7&#45;&gt;3</title>
<path fill="none" stroke="green" stroke-width="1.18" d="M523.4,-212.69C500.22,-203.04 449.82,-182.07 420.06,-169.68"/>
<polygon fill="green" stroke="green" stroke-width="1.18" points="421.04,-166.3 410.47,-165.69 418.35,-172.76 421.04,-166.3"/>
</g>
<!-- &#45;8 -->
<g id="node8" class="node">
<title>&#45;8</title>
<polygon fill="lightgray" stroke="black" points="325.73,-227.82 301.73,-227.82 301.73,-209.82 325.73,-209.82 325.73,-227.82"/>
<text text-anchor="middle" x="313.73" y="-216.62" font-family="Times New Roman,serif" font-size="9.00">&#45;8</text>
</g>
<!-- &#45;8&#45;&gt;0 -->
<g id="edge26" class="edge">
<title>&#45;8&#45;&gt;0</title>
<path fill="none" stroke="red" stroke-width="0.13" stroke-dasharray="1,5" d="M301.56,-212.28C280.42,-202.65 236.61,-182.69 209.64,-170.41"/>
<polygon fill="red" stroke="red" stroke-width="0.13" points="210.76,-167.07 200.2,-166.11 207.85,-173.44 210.76,-167.07"/>
</g>
<!-- &#45;8&#45;&gt;1 -->
<g id="edge27" class="edge">
<title>&#45;8&#45;&gt;1</title>
<path fill="none" stroke="green" stroke-width="0.11" d="M318.92,-209.79C324.1,-201.26 331.7,-187.2 334.73,-173.82 337.65,-160.95 337.88,-156.94 334.73,-144.12 324.59,-102.8 298.54,-60.01 282.07,-35.78"/>
<polygon fill="green" stroke="green" stroke-width="0.11" points="284.86,-33.66 276.29,-27.45 279.12,-37.66 284.86,-33.66"/>
</g>
<!-- &#45;8&#45;&gt;2 -->
<g id="edge28" class="edge">
<title>&#45;8&#45;&gt;2</title>
<path fill="none" stroke="red" stroke-width="0.42" d="M313.32,-209.78C312.97,-203.17 312.47,-193.46 312,-184.36"/>
<polygon fill="red" stroke="red" stroke-width="0.42" points="315.48,-183.99 311.47,-174.18 308.49,-184.35 315.48,-183.99"/>
</g>
<!-- &#45;8&#45;&gt;3 -->
<g id="edge29" class="edge">
<title>&#45;8&#45;&gt;3</title>
<path fill="none" stroke="red" stroke-width="0.59" d="M325.27,-209.78C338.58,-200.51 360.68,-185.1 376.79,-173.88"/>
<polygon fill="red" stroke="red" stroke-width="0.59" points="378.82,-176.73 385.02,-168.14 374.82,-170.98 378.82,-176.73"/>
</g>
<!-- &#45;9 -->
<g id="node9" class="node">
<title>&#45;9</title>
<polygon fill="lightgray" stroke="black" points="415.73,-227.82 391.73,-227.82 391.73,-209.82 415.73,-209.82 415.73,-227.82"/>
<text text-anchor="middle" x="403.73" y="-216.62" font-family="Times New Roman,serif" font-size="9.00">&#45;9</text>
</g>
<!-- &#45;9&#45;&gt;0 -->
<g id="edge30" class="edge">
<title>&#45;9&#45;&gt;0</title>
<path fill="none" stroke="green" stroke-width="0.28" stroke-dasharray="1,5" d="M391.38,-212.85C388.56,-211.79 385.56,-210.72 382.73,-209.82 321.8,-190.54 248.42,-173.47 211.11,-165.22"/>
<polygon fill="green" stroke="green" stroke-width="0.28" points="211.67,-161.77 201.16,-163.04 210.17,-168.6 211.67,-161.77"/>
</g>
<!-- &#45;9&#45;&gt;1 -->
<g id="edge31" class="edge">
<title>&#45;9&#45;&gt;1</title>
<path fill="none" stroke="green" stroke-width="0.4" d="M412.44,-209.71C420.51,-201.54 431.96,-188.14 436.73,-173.82 440.91,-161.3 440.37,-156.81 436.73,-144.12 425.41,-104.62 419.09,-92.27 387.73,-65.7 359.45,-41.73 318.02,-27.99 291.98,-21.22"/>
<polygon fill="green" stroke="green" stroke-width="0.4" points="292.72,-17.8 282.17,-18.82 291.05,-24.6 292.72,-17.8"/>
</g>
<!-- &#45;9&#45;&gt;2 -->
<g id="edge32" class="edge">
<title>&#45;9&#45;&gt;2</title>
<path fill="none" stroke="red" stroke-width="0.46" d="M391.57,-210.26C376.33,-200.78 349.95,-184.37 331.48,-172.88"/>
<polygon fill="red" stroke="red" stroke-width="0.46" points="333.23,-169.85 322.89,-167.54 329.54,-175.79 333.23,-169.85"/>
</g>
<!-- &#45;9&#45;&gt;3 -->
<g id="edge33" class="edge">
<title>&#45;9&#45;&gt;3</title>
<path fill="none" stroke="red" stroke-width="0.72" d="M402.76,-209.78C401.96,-203.17 400.78,-193.46 399.68,-184.36"/>
<polygon fill="red" stroke="red" stroke-width="0.72" points="403.13,-183.69 398.45,-174.18 396.18,-184.53 403.13,-183.69"/>
</g>
<!-- &#45;10 -->
<g id="node10" class="node">
<title>&#45;10</title>
<polygon fill="lightgray" stroke="black" points="115.23,-227.82 86.23,-227.82 86.23,-209.82 115.23,-209.82 115.23,-227.82"/>
<text text-anchor="middle" x="100.73" y="-216.62" font-family="Times New Roman,serif" font-size="9.00">&#45;10</text>
</g>
<!-- &#45;10&#45;&gt;0 -->
<g id="edge34" class="edge">
<title>&#45;10&#45;&gt;0</title>
<path fill="none" stroke="red" stroke-width="0.2" stroke-dasharray="1,5" d="M112.69,-209.78C126.55,-200.45 149.63,-184.93 166.35,-173.69"/>
<polygon fill="red" stroke="red" stroke-width="0.2" points="168.53,-176.44 174.88,-167.95 164.63,-170.63 168.53,-176.44"/>
</g>
<!-- &#45;10&#45;&gt;1 -->
<g id="edge35" class="edge">
<title>&#45;10&#45;&gt;1</title>
<path fill="none" stroke="red" stroke-width="0.12" d="M90.65,-209.49C62.53,-185.25 -12.21,-113.52 26.73,-65.7 53.8,-32.46 186.46,-20.7 242.58,-17.17"/>
<polygon fill="red" stroke="red" stroke-width="0.12" points="242.96,-20.66 252.73,-16.57 242.54,-13.67 242.96,-20.66"/>
</g>
<!-- &#45;10&#45;&gt;2 -->
<g id="edge36" class="edge">
<title>&#45;10&#45;&gt;2</title>
<path fill="none" stroke="red" stroke-width="0.44" stroke-dasharray="1,5" d="M115.41,-212.78C118.48,-211.76 121.7,-210.73 124.73,-209.82 182.19,-192.57 250.48,-175.01 286.19,-166.05"/>
<polygon fill="red" stroke="red" stroke-width="0.44" points="287.32,-169.38 296.18,-163.56 285.63,-162.59 287.32,-169.38"/>
</g>
<!-- &#45;11 -->
<g id="node11" class="node">
<title>&#45;11</title>
<polygon fill="lightgray" stroke="black" points="373.23,-227.82 344.23,-227.82 344.23,-209.82 373.23,-209.82 373.23,-227.82"/>
<text text-anchor="middle" x="358.73" y="-216.62" font-family="Times New Roman,serif" font-size="9.00">&#45;11</text>
</g>
<!-- &#45;11&#45;&gt;0 -->
<g id="edge37" class="edge">
<title>&#45;11&#45;&gt;0</title>
<path fill="none" stroke="red" stroke-width="0.41" stroke-dasharray="1,5" d="M344.07,-212.89C314.34,-202.89 246.76,-180.16 210.6,-168"/>
<polygon fill="red" stroke="red" stroke-width="0.41" points="211.47,-164.6 200.88,-164.73 209.24,-171.24 211.47,-164.6"/>
</g>
<!-- &#45;11&#45;&gt;1 -->
<g id="edge38" class="edge">
<title>&#45;11&#45;&gt;1</title>
<path fill="none" stroke="green" stroke-width="0.11" d="M373.43,-212.19C388.42,-205.55 410.86,-192.94 420.73,-173.82 426.79,-162.1 426.31,-156.09 420.73,-144.12 393.54,-85.84 325.38,-44.65 289.94,-26.4"/>
<polygon fill="green" stroke="green" stroke-width="0.11" points="291.38,-23.21 280.87,-21.87 288.24,-29.47 291.38,-23.21"/>
</g>
<!-- &#45;11&#45;&gt;2 -->
<g id="edge39" class="edge">
<title>&#45;11&#45;&gt;2</title>
<path fill="none" stroke="red" stroke-width="0.56" d="M352.06,-209.78C345.47,-201.84 335.16,-189.41 326.48,-178.96"/>
<polygon fill="red" stroke="red" stroke-width="0.56" points="329.06,-176.58 319.98,-171.12 323.67,-181.05 329.06,-176.58"/>
</g>
<!-- &#45;11&#45;&gt;3 -->
<g id="edge40" class="edge">
<title>&#45;11&#45;&gt;3</title>
<path fill="none" stroke="red" stroke-width="0.32" d="M364.02,-209.78C369,-202.19 376.68,-190.5 383.35,-180.35"/>
<polygon fill="red" stroke="red" stroke-width="0.32" points="386.29,-182.25 388.85,-171.97 380.44,-178.41 386.29,-182.25"/>
</g>
<!-- &#45;12 -->
<g id="node12" class="node">
<title>&#45;12</title>
<polygon fill="lightgray" stroke="black" points="463.23,-227.82 434.23,-227.82 434.23,-209.82 463.23,-209.82 463.23,-227.82"/>
<text text-anchor="middle" x="448.73" y="-216.62" font-family="Times New Roman,serif" font-size="9.00">&#45;12</text>
</g>
<!-- &#45;12&#45;&gt;0 -->
<g id="edge41" class="edge">
<title>&#45;12&#45;&gt;0</title>
<path fill="none" stroke="green" stroke-width="0.11" stroke-dasharray="1,5" d="M434.09,-212.65C431.02,-211.64 427.79,-210.65 424.73,-209.82 347.72,-189 254.71,-171.75 211.29,-164.15"/>
<polygon fill="green" stroke="green" stroke-width="0.11" points="211.81,-160.69 201.36,-162.43 210.62,-167.59 211.81,-160.69"/>
</g>
<!-- &#45;12&#45;&gt;1 -->
<g id="edge42" class="edge">
<title>&#45;12&#45;&gt;1</title>
<path fill="none" stroke="green" stroke-width="0.85" d="M449.45,-209.72C450.19,-200.9 451.31,-186.37 451.73,-173.82 453.44,-123.61 455.64,-99.79 418.73,-65.7 383.2,-32.88 325.58,-21.64 292.75,-17.81"/>
<polygon fill="green" stroke="green" stroke-width="0.85" points="292.94,-14.31 282.63,-16.77 292.22,-21.27 292.94,-14.31"/>
</g>
<!-- &#45;12&#45;&gt;2 -->
<g id="edge43" class="edge">
<title>&#45;12&#45;&gt;2</title>
<path fill="none" stroke="green" stroke-width="0.45" stroke-dasharray="1,5" d="M434.23,-211.74C410.31,-201.72 362.42,-181.64 333.82,-169.65"/>
<polygon fill="green" stroke="green" stroke-width="0.45" points="334.81,-166.27 324.23,-165.63 332.1,-172.73 334.81,-166.27"/>
</g>
<!-- &#45;12&#45;&gt;3 -->
<g id="edge44" class="edge">
<title>&#45;12&#45;&gt;3</title>
<path fill="none" stroke="red" stroke-width="0.45" d="M441.5,-209.78C434.21,-201.67 422.69,-188.86 413.17,-178.26"/>
<polygon fill="red" stroke="red" stroke-width="0.45" points="415.66,-175.8 406.38,-170.7 410.46,-180.48 415.66,-175.8"/>
</g>
<!-- 0&#45;&gt;965 -->
<g id="edge47" class="edge">
<title>0&#45;&gt;965</title>
<path fill="none" stroke="green" stroke-width="0.66" d="M173.79,-151C153,-139.79 111.68,-117.53 84.12,-102.67"/>
<polygon fill="green" stroke="green" stroke-width="0.66" points="85.46,-99.42 75,-97.76 82.14,-105.58 85.46,-99.42"/>
</g>
<!-- 965&#45;&gt;1 -->
<g id="edge46" class="edge">
<title>965&#45;&gt;1</title>
<path fill="none" stroke="green" stroke-width="0.14" d="M74.46,-74.54C79.86,-71.39 85.92,-68.16 91.73,-65.7 143.73,-43.72 208.38,-28.23 243.03,-20.81"/>
<polygon fill="green" stroke="green" stroke-width="0.14" points="244.11,-24.16 253.18,-18.69 242.67,-17.31 244.11,-24.16"/>
</g>
</g>
</svg>
