<?xml version="1.0" encoding="UTF-8" standalone="no"?>
<!DOCTYPE svg PUBLIC "-//W3C//DTD SVG 1.1//EN"
 "http://www.w3.org/Graphics/SVG/1.1/DTD/svg11.dtd">
<!-- Generated by graphviz version 5.0.0 (20220707.1540)
 -->
<!-- Pages: 1 -->
<svg width="641pt" height="170pt"
 viewBox="0.00 0.00 641.32 170.12" xmlns="http://www.w3.org/2000/svg" xmlns:xlink="http://www.w3.org/1999/xlink">
<g id="graph0" class="graph" transform="scale(1 1) rotate(0) translate(4 166.12)">
<polygon fill="white" stroke="transparent" points="-4,4 -4,-166.12 637.32,-166.12 637.32,4 -4,4"/>
<!-- &#45;1 -->
<g id="node1" class="node">
<title>&#45;1</title>
<polygon fill="lightgray" stroke="black" points="513.21,-95.91 489.21,-95.91 489.21,-77.91 513.21,-77.91 513.21,-95.91"/>
<text text-anchor="middle" x="501.21" y="-84.71" font-family="Times New Roman,serif" font-size="9.00">&#45;1</text>
</g>
<!-- 0 -->
<g id="node13" class="node">
<title>0</title>
<ellipse fill="lightblue" stroke="black" cx="408.21" cy="-14.85" rx="14.7" ry="14.7"/>
<text text-anchor="middle" x="408.21" y="-12.65" font-family="Times New Roman,serif" font-size="9.00">0</text>
</g>
<!-- &#45;1&#45;&gt;0 -->
<g id="edge1" class="edge">
<title>&#45;1&#45;&gt;0</title>
<path fill="none" stroke="green" stroke-width="0.38" d="M493.32,-77.72C489.49,-73.92 484.76,-69.42 480.21,-65.7 463.65,-52.14 443.53,-38.42 428.77,-28.81"/>
<polygon fill="green" stroke="green" stroke-width="0.38" points="430.66,-25.87 420.36,-23.4 426.88,-31.76 430.66,-25.87"/>
</g>
<!-- 1 -->
<g id="node14" class="node">
<title>1</title>
<ellipse fill="lightblue" stroke="black" cx="360.21" cy="-14.85" rx="14.7" ry="14.7"/>
<text text-anchor="middle" x="360.21" y="-12.65" font-family="Times New Roman,serif" font-size="9.00">1</text>
</g>
<!-- &#45;1&#45;&gt;1 -->
<g id="edge2" class="edge">
<title>&#45;1&#45;&gt;1</title>
<path fill="none" stroke="red" stroke-width="0.28" d="M494.08,-77.6C490.29,-73.58 485.35,-68.94 480.21,-65.7 441.67,-41.4 425.42,-49.15 384.21,-29.7 383.38,-29.3 382.53,-28.89 381.68,-28.46"/>
<polygon fill="red" stroke="red" stroke-width="0.28" points="383.17,-25.29 372.71,-23.58 379.82,-31.43 383.17,-25.29"/>
</g>
<!-- 2 -->
<g id="node15" class="node">
<title>2</title>
<ellipse fill="lightblue" stroke="black" cx="312.21" cy="-14.85" rx="14.7" ry="14.7"/>
<text text-anchor="middle" x="312.21" y="-12.65" font-family="Times New Roman,serif" font-size="9.00">2</text>
</g>
<!-- &#45;1&#45;&gt;2 -->
<g id="edge3" class="edge">
<title>&#45;1&#45;&gt;2</title>
<path fill="none" stroke="green" stroke-width="0.23" d="M494.6,-77.76C490.8,-73.58 485.7,-68.74 480.21,-65.7 422.5,-33.74 397.37,-54.42 336.21,-29.7 335.35,-29.35 334.49,-28.98 333.62,-28.58"/>
<polygon fill="green" stroke="green" stroke-width="0.23" points="335.07,-25.39 324.58,-23.86 331.83,-31.6 335.07,-25.39"/>
</g>
<!-- 3 -->
<g id="node16" class="node">
<title>3</title>
<ellipse fill="lightblue" stroke="black" cx="456.21" cy="-14.85" rx="14.7" ry="14.7"/>
<text text-anchor="middle" x="456.21" y="-12.65" font-family="Times New Roman,serif" font-size="9.00">3</text>
</g>
<!-- &#45;1&#45;&gt;3 -->
<g id="edge4" class="edge">
<title>&#45;1&#45;&gt;3</title>
<path fill="none" stroke="red" stroke-width="0.3" d="M496.05,-77.87C489.57,-67.79 478.23,-50.14 469.31,-36.23"/>
<polygon fill="red" stroke="red" stroke-width="0.3" points="472.21,-34.28 463.86,-27.76 466.32,-38.06 472.21,-34.28"/>
</g>
<!-- &#45;2 -->
<g id="node2" class="node">
<title>&#45;2</title>
<polygon fill="lightgray" stroke="black" points="555.21,-95.91 531.21,-95.91 531.21,-77.91 555.21,-77.91 555.21,-95.91"/>
<text text-anchor="middle" x="543.21" y="-84.71" font-family="Times New Roman,serif" font-size="9.00">&#45;2</text>
</g>
<!-- &#45;2&#45;&gt;0 -->
<g id="edge5" class="edge">
<title>&#45;2&#45;&gt;0</title>
<path fill="none" stroke="red" stroke-width="0.29" d="M536.05,-77.65C532.25,-73.64 527.31,-68.99 522.21,-65.7 486.02,-42.33 470.97,-48.51 432.21,-29.7 431.38,-29.29 430.54,-28.87 429.69,-28.44"/>
<polygon fill="red" stroke="red" stroke-width="0.29" points="431.19,-25.27 420.73,-23.53 427.82,-31.4 431.19,-25.27"/>
</g>
<!-- &#45;2&#45;&gt;1 -->
<g id="edge6" class="edge">
<title>&#45;2&#45;&gt;1</title>
<path fill="none" stroke="green" stroke-width="0.21" stroke-dasharray="1,5" d="M536.59,-77.78C532.79,-73.6 527.69,-68.77 522.21,-65.7 466.92,-34.71 442.86,-53.75 384.21,-29.7 383.36,-29.35 382.49,-28.97 381.63,-28.57"/>
<polygon fill="green" stroke="green" stroke-width="0.21" points="383.08,-25.38 372.59,-23.84 379.83,-31.58 383.08,-25.38"/>
</g>
<!-- &#45;2&#45;&gt;2 -->
<g id="edge7" class="edge">
<title>&#45;2&#45;&gt;2</title>
<path fill="none" stroke="green" stroke-width="0.26" d="M536.66,-77.64C532.88,-73.42 527.78,-68.59 522.21,-65.7 447.48,-26.91 415.1,-59.15 336.21,-29.7 335.35,-29.37 334.47,-29.02 333.6,-28.64"/>
<polygon fill="green" stroke="green" stroke-width="0.26" points="335.03,-25.44 324.53,-24 331.84,-31.67 335.03,-25.44"/>
</g>
<!-- &#45;2&#45;&gt;3 -->
<g id="edge8" class="edge">
<title>&#45;2&#45;&gt;3</title>
<path fill="none" stroke="green" stroke-width="0.23" stroke-dasharray="1,5" d="M535.25,-77.81C531.41,-74.02 526.68,-69.51 522.21,-65.7 507.48,-53.12 489.95,-39.96 476.66,-30.32"/>
<polygon fill="green" stroke="green" stroke-width="0.23" points="478.39,-27.25 468.23,-24.26 474.31,-32.94 478.39,-27.25"/>
</g>
<!-- &#45;3 -->
<g id="node3" class="node">
<title>&#45;3</title>
<polygon fill="lightgray" stroke="black" points="597.21,-95.91 573.21,-95.91 573.21,-77.91 597.21,-77.91 597.21,-95.91"/>
<text text-anchor="middle" x="585.21" y="-84.71" font-family="Times New Roman,serif" font-size="9.00">&#45;3</text>
</g>
<!-- &#45;3&#45;&gt;0 -->
<g id="edge9" class="edge">
<title>&#45;3&#45;&gt;0</title>
<path fill="none" stroke="red" stroke-width="0.18" d="M578.57,-77.8C574.77,-73.64 569.67,-68.8 564.21,-65.7 511.33,-35.68 488.34,-53.09 432.21,-29.7 431.36,-29.34 430.5,-28.96 429.63,-28.56"/>
<polygon fill="red" stroke="red" stroke-width="0.18" points="431.09,-25.37 420.61,-23.81 427.83,-31.57 431.09,-25.37"/>
</g>
<!-- &#45;3&#45;&gt;1 -->
<g id="edge10" class="edge">
<title>&#45;3&#45;&gt;1</title>
<path fill="none" stroke="green" stroke-width="0.29" stroke-dasharray="1,5" d="M578.66,-77.65C574.87,-73.44 569.77,-68.61 564.21,-65.7 491.92,-27.89 460.56,-58.47 384.21,-29.7 383.35,-29.37 382.47,-29.02 381.6,-28.64"/>
<polygon fill="green" stroke="green" stroke-width="0.29" points="383.03,-25.44 372.54,-23.99 379.84,-31.66 383.03,-25.44"/>
</g>
<!-- &#45;3&#45;&gt;2 -->
<g id="edge11" class="edge">
<title>&#45;3&#45;&gt;2</title>
<path fill="none" stroke="red" stroke-width="0.26" d="M578.7,-77.56C574.93,-73.32 569.83,-68.49 564.21,-65.7 472.35,-20.02 432.93,-63.91 336.21,-29.7 335.34,-29.39 334.46,-29.05 333.59,-28.68"/>
<polygon fill="red" stroke="red" stroke-width="0.26" points="335,-25.48 324.5,-24.09 331.84,-31.72 335,-25.48"/>
</g>
<!-- &#45;3&#45;&gt;3 -->
<g id="edge46" class="edge">
<title>&#45;3&#45;&gt;3</title>
<path fill="none" stroke="green" stroke-width="0.68" d="M577.98,-77.76C574.15,-73.78 569.23,-69.12 564.21,-65.7 537.3,-47.31 502.52,-32.65 479.81,-24.11"/>
<polygon fill="green" stroke="green" stroke-width="0.68" points="480.88,-20.77 470.29,-20.62 478.48,-27.35 480.88,-20.77"/>
</g>
<!-- &#45;4 -->
<g id="node4" class="node">
<title>&#45;4</title>
<polygon fill="lightgray" stroke="black" points="250.21,-95.91 226.21,-95.91 226.21,-77.91 250.21,-77.91 250.21,-95.91"/>
<text text-anchor="middle" x="238.21" y="-84.71" font-family="Times New Roman,serif" font-size="9.00">&#45;4</text>
</g>
<!-- &#45;4&#45;&gt;0 -->
<g id="edge12" class="edge">
<title>&#45;4&#45;&gt;0</title>
<path fill="none" stroke="green" stroke-width="0.4" d="M244.87,-77.83C248.68,-73.67 253.78,-68.83 259.21,-65.7 309.29,-36.8 331.01,-52.31 384.21,-29.7 385.07,-29.34 385.93,-28.95 386.79,-28.55"/>
<polygon fill="green" stroke="green" stroke-width="0.4" points="388.6,-31.54 395.8,-23.77 385.33,-25.36 388.6,-31.54"/>
</g>
<!-- &#45;4&#45;&gt;1 -->
<g id="edge13" class="edge">
<title>&#45;4&#45;&gt;1</title>
<path fill="none" stroke="green" stroke-width="0.77" d="M245.46,-77.77C249.28,-73.79 254.21,-69.14 259.21,-65.7 290.35,-44.31 302.71,-47.16 336.21,-29.7 337.03,-29.27 337.87,-28.83 338.71,-28.38"/>
<polygon fill="green" stroke="green" stroke-width="0.77" points="340.61,-31.33 347.62,-23.39 337.19,-25.22 340.61,-31.33"/>
</g>
<!-- &#45;4&#45;&gt;2 -->
<g id="edge14" class="edge">
<title>&#45;4&#45;&gt;2</title>
<path fill="none" stroke="green" stroke-width="0.14" d="M246.77,-77.63C250.57,-73.96 255.11,-69.61 259.21,-65.7 270.77,-54.71 283.81,-42.43 294.07,-32.81"/>
<polygon fill="green" stroke="green" stroke-width="0.14" points="296.71,-35.13 301.62,-25.74 291.93,-30.03 296.71,-35.13"/>
</g>
<!-- &#45;4&#45;&gt;3 -->
<g id="edge15" class="edge">
<title>&#45;4&#45;&gt;3</title>
<path fill="none" stroke="green" stroke-width="0.26" d="M244.78,-77.67C248.56,-73.46 253.66,-68.63 259.21,-65.7 328.67,-29.03 358.83,-57.68 432.21,-29.7 433.08,-29.37 433.95,-29.01 434.82,-28.63"/>
<polygon fill="green" stroke="green" stroke-width="0.26" points="436.59,-31.65 443.88,-23.97 433.39,-25.43 436.59,-31.65"/>
</g>
<!-- &#45;5 -->
<g id="node5" class="node">
<title>&#45;5</title>
<polygon fill="lightgray" stroke="black" points="120.21,-162.12 96.21,-162.12 96.21,-144.12 120.21,-144.12 120.21,-162.12"/>
<text text-anchor="middle" x="108.21" y="-150.92" font-family="Times New Roman,serif" font-size="9.00">&#45;5</text>
</g>
<!-- &#45;5&#45;&gt;0 -->
<g id="edge16" class="edge">
<title>&#45;5&#45;&gt;0</title>
<path fill="none" stroke="red" stroke-width="0.33" d="M120.57,-152.01C194.12,-151.17 572.37,-145.09 606.21,-108.12 618.95,-94.22 618.12,-80.32 606.21,-65.7 556.35,-4.46 506.02,-57.79 432.21,-29.7 431.35,-29.37 430.48,-29.01 429.61,-28.63"/>
<polygon fill="red" stroke="red" stroke-width="0.33" points="431.04,-25.43 420.54,-23.97 427.83,-31.66 431.04,-25.43"/>
</g>
<!-- &#45;5&#45;&gt;1 -->
<g id="edge17" class="edge">
<title>&#45;5&#45;&gt;1</title>
<path fill="none" stroke="green" stroke-width="0.64" d="M107.31,-144.06C105.88,-126.92 105.22,-86.71 127.21,-65.7 195.37,-0.59 247.57,-61.75 336.21,-29.7 337.08,-29.38 337.96,-29.04 338.83,-28.67"/>
<polygon fill="green" stroke="green" stroke-width="0.64" points="340.58,-31.7 347.91,-24.05 337.41,-25.46 340.58,-31.7"/>
</g>
<!-- &#45;5&#45;&gt;2 -->
<g id="edge18" class="edge">
<title>&#45;5&#45;&gt;2</title>
<path fill="none" stroke="green" stroke-width="0.12" stroke-dasharray="1,5" d="M103.21,-143.95C93.71,-127.28 75.64,-88.99 94.21,-65.7 118.16,-35.66 235.39,-22.27 287.34,-17.74"/>
<polygon fill="green" stroke="green" stroke-width="0.12" points="287.7,-21.23 297.38,-16.91 287.12,-14.25 287.7,-21.23"/>
</g>
<!-- &#45;5&#45;&gt;3 -->
<g id="edge19" class="edge">
<title>&#45;5&#45;&gt;3</title>
<path fill="none" stroke="green" stroke-width="0.75" d="M120.52,-152.05C195.52,-151.44 589.02,-146.45 624.21,-108.12 636.97,-94.24 635.49,-80.81 624.21,-65.7 606.97,-42.6 523.2,-26.38 480.84,-19.52"/>
<polygon fill="green" stroke="green" stroke-width="0.75" points="481.21,-16.03 470.79,-17.94 480.13,-22.95 481.21,-16.03"/>
</g>
<!-- 861 -->
<g id="node17" class="node">
<title>861</title>
<ellipse fill="white" stroke="black" cx="21.21" cy="-86.91" rx="21.43" ry="21.43"/>
<text text-anchor="middle" x="21.21" y="-84.71" font-family="Times New Roman,serif" font-size="9.00">861</text>
</g>
<!-- &#45;5&#45;&gt;861 -->
<g id="edge47" class="edge">
<title>&#45;5&#45;&gt;861</title>
<path fill="none" stroke="green" stroke-width="0.27" d="M97.19,-143.99C84.5,-134.62 63.24,-118.93 46.42,-106.52"/>
<polygon fill="green" stroke="green" stroke-width="0.27" points="48.23,-103.5 38.11,-100.38 44.08,-109.14 48.23,-103.5"/>
</g>
<!-- &#45;6 -->
<g id="node6" class="node">
<title>&#45;6</title>
<polygon fill="lightgray" stroke="black" points="208.21,-95.91 184.21,-95.91 184.21,-77.91 208.21,-77.91 208.21,-95.91"/>
<text text-anchor="middle" x="196.21" y="-84.71" font-family="Times New Roman,serif" font-size="9.00">&#45;6</text>
</g>
<!-- &#45;6&#45;&gt;0 -->
<g id="edge20" class="edge">
<title>&#45;6&#45;&gt;0</title>
<path fill="none" stroke="green" stroke-width="0.55" d="M202.79,-77.68C206.57,-73.48 211.67,-68.65 217.21,-65.7 284.23,-30.01 313.37,-57 384.21,-29.7 385.08,-29.37 385.95,-29 386.82,-28.62"/>
<polygon fill="green" stroke="green" stroke-width="0.55" points="388.59,-31.64 395.87,-23.95 385.38,-25.42 388.59,-31.64"/>
</g>
<!-- &#45;6&#45;&gt;1 -->
<g id="edge21" class="edge">
<title>&#45;6&#45;&gt;1</title>
<path fill="none" stroke="green" stroke-width="0.33" d="M202.89,-77.86C206.7,-73.71 211.8,-68.87 217.21,-65.7 264.89,-37.76 285.51,-51.65 336.21,-29.7 337.06,-29.33 337.92,-28.94 338.78,-28.53"/>
<polygon fill="green" stroke="green" stroke-width="0.33" points="340.6,-31.53 347.79,-23.74 337.32,-25.35 340.6,-31.53"/>
</g>
<!-- &#45;6&#45;&gt;2 -->
<g id="edge22" class="edge">
<title>&#45;6&#45;&gt;2</title>
<path fill="none" stroke="green" stroke-width="0.23" d="M203.53,-77.87C207.37,-73.91 212.29,-69.25 217.21,-65.7 240.22,-49.11 269.47,-34.62 289.39,-25.6"/>
<polygon fill="green" stroke="green" stroke-width="0.23" points="290.89,-28.76 298.62,-21.51 288.06,-22.36 290.89,-28.76"/>
</g>
<!-- &#45;7 -->
<g id="node7" class="node">
<title>&#45;7</title>
<polygon fill="lightgray" stroke="black" points="292.21,-95.91 268.21,-95.91 268.21,-77.91 292.21,-77.91 292.21,-95.91"/>
<text text-anchor="middle" x="280.21" y="-84.71" font-family="Times New Roman,serif" font-size="9.00">&#45;7</text>
</g>
<!-- &#45;7&#45;&gt;0 -->
<g id="edge23" class="edge">
<title>&#45;7&#45;&gt;0</title>
<path fill="none" stroke="green" stroke-width="0.51" d="M287.42,-77.71C291.23,-73.72 296.16,-69.07 301.21,-65.7 334.67,-43.4 348.3,-47.78 384.21,-29.7 385.04,-29.28 385.88,-28.85 386.72,-28.41"/>
<polygon fill="green" stroke="green" stroke-width="0.51" points="388.61,-31.36 395.66,-23.46 385.21,-25.24 388.61,-31.36"/>
</g>
<!-- &#45;7&#45;&gt;1 -->
<g id="edge24" class="edge">
<title>&#45;7&#45;&gt;1</title>
<path fill="none" stroke="green" stroke-width="0.37" d="M288.68,-77.52C292.46,-73.84 297,-69.49 301.21,-65.7 314.35,-53.85 329.63,-40.97 341.34,-31.27"/>
<polygon fill="green" stroke="green" stroke-width="0.37" points="343.66,-33.89 349.16,-24.83 339.21,-28.48 343.66,-33.89"/>
</g>
<!-- &#45;7&#45;&gt;2 -->
<g id="edge25" class="edge">
<title>&#45;7&#45;&gt;2</title>
<path fill="none" stroke="green" stroke-width="0.15" d="M283.88,-77.87C288.3,-68.21 295.88,-51.6 302.09,-38"/>
<polygon fill="green" stroke="green" stroke-width="0.15" points="305.34,-39.32 306.31,-28.77 298.97,-36.42 305.34,-39.32"/>
</g>
<!-- &#45;7&#45;&gt;3 -->
<g id="edge26" class="edge">
<title>&#45;7&#45;&gt;3</title>
<path fill="none" stroke="red" stroke-width="0.16" d="M286.86,-77.81C290.66,-73.64 295.76,-68.8 301.21,-65.7 353.7,-35.84 376.5,-52.98 432.21,-29.7 433.07,-29.34 433.93,-28.96 434.79,-28.56"/>
<polygon fill="red" stroke="red" stroke-width="0.16" points="436.6,-31.56 443.82,-23.81 433.34,-25.37 436.6,-31.56"/>
</g>
<!-- &#45;8 -->
<g id="node8" class="node">
<title>&#45;8</title>
<polygon fill="lightgray" stroke="black" points="334.21,-95.91 310.21,-95.91 310.21,-77.91 334.21,-77.91 334.21,-95.91"/>
<text text-anchor="middle" x="322.21" y="-84.71" font-family="Times New Roman,serif" font-size="9.00">&#45;8</text>
</g>
<!-- &#45;8&#45;&gt;0 -->
<g id="edge27" class="edge">
<title>&#45;8&#45;&gt;0</title>
<path fill="none" stroke="green" stroke-width="0.54" d="M330.19,-77.82C334.03,-74.03 338.76,-69.53 343.21,-65.7 357.76,-53.19 375.02,-40.03 388.1,-30.37"/>
<polygon fill="green" stroke="green" stroke-width="0.54" points="390.39,-33.02 396.4,-24.29 386.26,-27.37 390.39,-33.02"/>
</g>
<!-- &#45;8&#45;&gt;1 -->
<g id="edge28" class="edge">
<title>&#45;8&#45;&gt;1</title>
<path fill="none" stroke="red" stroke-width="0.28" d="M326.57,-77.87C331.93,-68 341.22,-50.88 348.68,-37.12"/>
<polygon fill="red" stroke="red" stroke-width="0.28" points="351.79,-38.72 353.48,-28.26 345.64,-35.38 351.79,-38.72"/>
</g>
<!-- &#45;8&#45;&gt;2 -->
<g id="edge29" class="edge">
<title>&#45;8&#45;&gt;2</title>
<path fill="none" stroke="red" stroke-width="0.14" d="M321.07,-77.87C319.75,-68.63 317.52,-53.02 315.63,-39.77"/>
<polygon fill="red" stroke="red" stroke-width="0.14" points="319.09,-39.22 314.21,-29.82 312.16,-40.21 319.09,-39.22"/>
</g>
<!-- &#45;8&#45;&gt;3 -->
<g id="edge30" class="edge">
<title>&#45;8&#45;&gt;3</title>
<path fill="none" stroke="red" stroke-width="0.31" d="M329.38,-77.66C333.19,-73.65 338.12,-69 343.21,-65.7 379.01,-42.48 393.86,-48.41 432.21,-29.7 433.05,-29.29 433.89,-28.87 434.74,-28.43"/>
<polygon fill="red" stroke="red" stroke-width="0.31" points="436.61,-31.4 443.69,-23.52 433.24,-25.26 436.61,-31.4"/>
</g>
<!-- &#45;9 -->
<g id="node9" class="node">
<title>&#45;9</title>
<polygon fill="lightgray" stroke="black" points="376.21,-95.91 352.21,-95.91 352.21,-77.91 376.21,-77.91 376.21,-95.91"/>
<text text-anchor="middle" x="364.21" y="-84.71" font-family="Times New Roman,serif" font-size="9.00">&#45;9</text>
</g>
<!-- &#45;9&#45;&gt;0 -->
<g id="edge31" class="edge">
<title>&#45;9&#45;&gt;0</title>
<path fill="none" stroke="green" stroke-width="0.36" d="M369.26,-77.87C375.59,-67.79 386.68,-50.14 395.41,-36.23"/>
<polygon fill="green" stroke="green" stroke-width="0.36" points="398.38,-38.09 400.74,-27.76 392.45,-34.36 398.38,-38.09"/>
</g>
<!-- &#45;9&#45;&gt;1 -->
<g id="edge32" class="edge">
<title>&#45;9&#45;&gt;1</title>
<path fill="none" stroke="red" stroke-width="0.27" d="M363.75,-77.87C363.23,-68.72 362.35,-53.33 361.6,-40.16"/>
<polygon fill="red" stroke="red" stroke-width="0.27" points="365.08,-39.6 361.01,-29.82 358.09,-40 365.08,-39.6"/>
</g>
<!-- &#45;9&#45;&gt;2 -->
<g id="edge33" class="edge">
<title>&#45;9&#45;&gt;2</title>
<path fill="none" stroke="red" stroke-width="0.98" d="M358.25,-77.87C350.65,-67.64 337.25,-49.59 326.87,-35.59"/>
<polygon fill="red" stroke="red" stroke-width="0.98" points="329.64,-33.45 320.87,-27.51 324.01,-37.62 329.64,-33.45"/>
</g>
<!-- &#45;9&#45;&gt;3 -->
<g id="edge34" class="edge">
<title>&#45;9&#45;&gt;3</title>
<path fill="none" stroke="green" stroke-width="0.27" d="M372.56,-77.79C376.58,-73.99 381.54,-69.49 386.21,-65.7 402.19,-52.75 421.25,-39.3 435.44,-29.64"/>
<polygon fill="green" stroke="green" stroke-width="0.27" points="437.65,-32.37 443.99,-23.88 433.74,-26.56 437.65,-32.37"/>
</g>
<!-- &#45;10 -->
<g id="node10" class="node">
<title>&#45;10</title>
<polygon fill="lightgray" stroke="black" points="165.71,-95.91 136.71,-95.91 136.71,-77.91 165.71,-77.91 165.71,-95.91"/>
<text text-anchor="middle" x="151.21" y="-84.71" font-family="Times New Roman,serif" font-size="9.00">&#45;10</text>
</g>
<!-- &#45;10&#45;&gt;0 -->
<g id="edge35" class="edge">
<title>&#45;10&#45;&gt;0</title>
<path fill="none" stroke="red" stroke-width="0.65" d="M158.89,-77.6C163.27,-73.38 169.09,-68.55 175.21,-65.7 260.68,-25.95 295.57,-61.75 384.21,-29.7 385.08,-29.38 385.96,-29.04 386.83,-28.67"/>
<polygon fill="red" stroke="red" stroke-width="0.65" points="388.58,-31.7 395.91,-24.05 385.41,-25.46 388.58,-31.7"/>
</g>
<!-- &#45;10&#45;&gt;1 -->
<g id="edge36" class="edge">
<title>&#45;10&#45;&gt;1</title>
<path fill="none" stroke="red" stroke-width="0.41" d="M158.95,-77.72C163.34,-73.53 169.16,-68.7 175.21,-65.7 240.92,-33.15 267.9,-56.33 336.21,-29.7 337.08,-29.36 337.94,-29 338.81,-28.61"/>
<polygon fill="red" stroke="red" stroke-width="0.41" points="340.59,-31.63 347.87,-23.93 337.38,-25.41 340.59,-31.63"/>
</g>
<!-- &#45;10&#45;&gt;2 -->
<g id="edge37" class="edge">
<title>&#45;10&#45;&gt;2</title>
<path fill="none" stroke="green" stroke-width="0.27" d="M159.55,-77.63C163.93,-73.62 169.55,-68.97 175.21,-65.7 212.12,-44.35 259.79,-29.51 288.07,-21.86"/>
<polygon fill="green" stroke="green" stroke-width="0.27" points="289.11,-25.2 297.89,-19.28 287.33,-18.43 289.11,-25.2"/>
</g>
<!-- &#45;11 -->
<g id="node11" class="node">
<title>&#45;11</title>
<polygon fill="lightgray" stroke="black" points="423.71,-95.91 394.71,-95.91 394.71,-77.91 423.71,-77.91 423.71,-95.91"/>
<text text-anchor="middle" x="409.21" y="-84.71" font-family="Times New Roman,serif" font-size="9.00">&#45;11</text>
</g>
<!-- &#45;11&#45;&gt;0 -->
<g id="edge38" class="edge">
<title>&#45;11&#45;&gt;0</title>
<path fill="none" stroke="red" stroke-width="0.37" d="M409.1,-77.87C408.97,-68.72 408.75,-53.33 408.56,-40.16"/>
<polygon fill="red" stroke="red" stroke-width="0.37" points="412.06,-39.77 408.41,-29.82 405.06,-39.87 412.06,-39.77"/>
</g>
<!-- &#45;11&#45;&gt;1 -->
<g id="edge39" class="edge">
<title>&#45;11&#45;&gt;1</title>
<path fill="none" stroke="green" stroke-width="0.14" d="M403.59,-77.87C396.5,-67.73 384.05,-49.93 374.3,-35.99"/>
<polygon fill="green" stroke="green" stroke-width="0.14" points="376.97,-33.7 368.37,-27.51 371.23,-37.71 376.97,-33.7"/>
</g>
<!-- &#45;11&#45;&gt;2 -->
<g id="edge40" class="edge">
<title>&#45;11&#45;&gt;2</title>
<path fill="none" stroke="red" stroke-width="0.25" d="M400.05,-77.82C395.65,-74.03 390.25,-69.52 385.21,-65.7 368.01,-52.63 347.65,-38.86 332.81,-29.11"/>
<polygon fill="red" stroke="red" stroke-width="0.25" points="334.65,-26.13 324.36,-23.6 330.83,-32 334.65,-26.13"/>
</g>
<!-- &#45;11&#45;&gt;3 -->
<g id="edge41" class="edge">
<title>&#45;11&#45;&gt;3</title>
<path fill="none" stroke="red" stroke-width="0.75" d="M414.6,-77.87C421.41,-67.73 433.35,-49.93 442.7,-35.99"/>
<polygon fill="red" stroke="red" stroke-width="0.75" points="445.73,-37.76 448.39,-27.51 439.92,-33.86 445.73,-37.76"/>
</g>
<!-- &#45;12 -->
<g id="node12" class="node">
<title>&#45;12</title>
<polygon fill="lightgray" stroke="black" points="470.71,-95.91 441.71,-95.91 441.71,-77.91 470.71,-77.91 470.71,-95.91"/>
<text text-anchor="middle" x="456.21" y="-84.71" font-family="Times New Roman,serif" font-size="9.00">&#45;12</text>
</g>
<!-- &#45;12&#45;&gt;0 -->
<g id="edge42" class="edge">
<title>&#45;12&#45;&gt;0</title>
<path fill="none" stroke="green" stroke-width="0.2" stroke-dasharray="1,5" d="M450.71,-77.87C443.76,-67.73 431.56,-49.93 422.01,-35.99"/>
<polygon fill="green" stroke="green" stroke-width="0.2" points="424.74,-33.78 416.2,-27.51 418.96,-37.73 424.74,-33.78"/>
</g>
<!-- &#45;12&#45;&gt;1 -->
<g id="edge43" class="edge">
<title>&#45;12&#45;&gt;1</title>
<path fill="none" stroke="green" stroke-width="0.62" d="M447.47,-77.78C443.26,-73.98 438.08,-69.48 433.21,-65.7 416.15,-52.45 395.77,-38.7 380.89,-29"/>
<polygon fill="green" stroke="green" stroke-width="0.62" points="382.72,-26.01 372.42,-23.53 378.92,-31.89 382.72,-26.01"/>
</g>
<!-- &#45;12&#45;&gt;2 -->
<g id="edge44" class="edge">
<title>&#45;12&#45;&gt;2</title>
<path fill="none" stroke="red" stroke-width="0.42" stroke-dasharray="1,5" d="M448.27,-77.63C444.09,-73.61 438.69,-68.97 433.21,-65.7 393.73,-42.13 377.83,-49.26 336.21,-29.7 335.38,-29.3 334.53,-28.89 333.68,-28.46"/>
<polygon fill="red" stroke="red" stroke-width="0.42" points="335.16,-25.29 324.71,-23.59 331.82,-31.44 335.16,-25.29"/>
</g>
<!-- &#45;12&#45;&gt;3 -->
<g id="edge45" class="edge">
<title>&#45;12&#45;&gt;3</title>
<path fill="none" stroke="green" stroke-width="0.37" d="M456.21,-77.87C456.21,-68.72 456.21,-53.33 456.21,-40.16"/>
<polygon fill="green" stroke="green" stroke-width="0.37" points="459.71,-39.82 456.21,-29.82 452.71,-39.82 459.71,-39.82"/>
</g>
<!-- 861&#45;&gt;2 -->
<g id="edge48" class="edge">
<title>861&#45;&gt;2</title>
<path fill="none" stroke="red" stroke-width="0.61" d="M38.46,-74.44C43.95,-71.21 50.17,-67.96 56.21,-65.7 137.48,-35.29 240.53,-22.47 287.22,-17.95"/>
<polygon fill="red" stroke="red" stroke-width="0.61" points="287.68,-21.42 297.32,-17.02 287.04,-14.45 287.68,-21.42"/>
</g>
</g>
</svg>
