<?xml version="1.0" encoding="UTF-8" standalone="no"?>
<!DOCTYPE svg PUBLIC "-//W3C//DTD SVG 1.1//EN"
 "http://www.w3.org/Graphics/SVG/1.1/DTD/svg11.dtd">
<!-- Generated by graphviz version 5.0.0 (20220707.1540)
 -->
<!-- Pages: 1 -->
<svg width="511pt" height="92pt"
 viewBox="0.00 0.00 510.50 91.70" xmlns="http://www.w3.org/2000/svg" xmlns:xlink="http://www.w3.org/1999/xlink">
<g id="graph0" class="graph" transform="scale(1 1) rotate(0) translate(4 87.7)">
<polygon fill="white" stroke="transparent" points="-4,4 -4,-87.7 506.5,-87.7 506.5,4 -4,4"/>
<!-- &#45;1 -->
<g id="node1" class="node">
<title>&#45;1</title>
<polygon fill="lightgray" stroke="black" points="292.5,-83.7 268.5,-83.7 268.5,-65.7 292.5,-65.7 292.5,-83.7"/>
<text text-anchor="middle" x="280.5" y="-72.5" font-family="Times New Roman,serif" font-size="9.00">&#45;1</text>
</g>
<!-- 0 -->
<g id="node13" class="node">
<title>0</title>
<ellipse fill="lightblue" stroke="black" cx="187.5" cy="-14.85" rx="14.7" ry="14.7"/>
<text text-anchor="middle" x="187.5" y="-12.65" font-family="Times New Roman,serif" font-size="9.00">0</text>
</g>
<!-- &#45;1&#45;&gt;0 -->
<g id="edge1" class="edge">
<title>&#45;1&#45;&gt;0</title>
<path fill="none" stroke="red" stroke-width="0.53" d="M268.34,-66.14C253.09,-56.65 226.72,-40.24 208.25,-28.76"/>
<polygon fill="red" stroke="red" stroke-width="0.53" points="210,-25.72 199.66,-23.41 206.3,-31.67 210,-25.72"/>
</g>
<!-- 1 -->
<g id="node14" class="node">
<title>1</title>
<ellipse fill="lightblue" stroke="black" cx="331.5" cy="-14.85" rx="14.7" ry="14.7"/>
<text text-anchor="middle" x="331.5" y="-12.65" font-family="Times New Roman,serif" font-size="9.00">1</text>
</g>
<!-- &#45;1&#45;&gt;1 -->
<g id="edge2" class="edge">
<title>&#45;1&#45;&gt;1</title>
<path fill="none" stroke="green" stroke-width="0.98" stroke-dasharray="1,5" d="M287.59,-65.65C294.75,-57.54 306.04,-44.73 315.38,-34.13"/>
<polygon fill="green" stroke="green" stroke-width="0.98" points="318.05,-36.39 322.04,-26.58 312.8,-31.76 318.05,-36.39"/>
</g>
<!-- 2 -->
<g id="node15" class="node">
<title>2</title>
<ellipse fill="lightblue" stroke="black" cx="283.5" cy="-14.85" rx="14.7" ry="14.7"/>
<text text-anchor="middle" x="283.5" y="-12.65" font-family="Times New Roman,serif" font-size="9.00">2</text>
</g>
<!-- &#45;1&#45;&gt;2 -->
<g id="edge3" class="edge">
<title>&#45;1&#45;&gt;2</title>
<path fill="none" stroke="red" stroke-width="0.21" d="M280.92,-65.65C281.26,-59.05 281.76,-49.33 282.24,-40.23"/>
<polygon fill="red" stroke="red" stroke-width="0.21" points="285.74,-40.22 282.76,-30.06 278.75,-39.86 285.74,-40.22"/>
</g>
<!-- 3 -->
<g id="node16" class="node">
<title>3</title>
<ellipse fill="lightblue" stroke="black" cx="235.5" cy="-14.85" rx="14.7" ry="14.7"/>
<text text-anchor="middle" x="235.5" y="-12.65" font-family="Times New Roman,serif" font-size="9.00">3</text>
</g>
<!-- &#45;1&#45;&gt;3 -->
<g id="edge4" class="edge">
<title>&#45;1&#45;&gt;3</title>
<path fill="none" stroke="green" stroke-width="0.39" d="M274.24,-65.65C268.13,-57.8 258.59,-45.53 250.51,-35.14"/>
<polygon fill="green" stroke="green" stroke-width="0.39" points="253.07,-32.74 244.17,-26.99 247.55,-37.04 253.07,-32.74"/>
</g>
<!-- &#45;2 -->
<g id="node2" class="node">
<title>&#45;2</title>
<polygon fill="lightgray" stroke="black" points="418.5,-83.7 394.5,-83.7 394.5,-65.7 418.5,-65.7 418.5,-83.7"/>
<text text-anchor="middle" x="406.5" y="-72.5" font-family="Times New Roman,serif" font-size="9.00">&#45;2</text>
</g>
<!-- &#45;2&#45;&gt;1 -->
<g id="edge5" class="edge">
<title>&#45;2&#45;&gt;1</title>
<path fill="none" stroke="green" stroke-width="0.36" d="M396.07,-65.65C384.47,-56.71 365.47,-42.05 351.08,-30.95"/>
<polygon fill="green" stroke="green" stroke-width="0.36" points="352.88,-27.92 342.82,-24.58 348.6,-33.46 352.88,-27.92"/>
</g>
<!-- &#45;2&#45;&gt;2 -->
<g id="edge6" class="edge">
<title>&#45;2&#45;&gt;2</title>
<path fill="none" stroke="green" stroke-width="0.1" d="M394.42,-68.81C375.58,-61.09 338.18,-45.31 307.5,-29.7 306.67,-29.28 305.84,-28.84 305,-28.4"/>
<polygon fill="green" stroke="green" stroke-width="0.1" points="306.51,-25.23 296.07,-23.43 303.11,-31.35 306.51,-25.23"/>
</g>
<!-- &#45;2&#45;&gt;3 -->
<g id="edge7" class="edge">
<title>&#45;2&#45;&gt;3</title>
<path fill="none" stroke="red" stroke-width="0.21" stroke-dasharray="1,5" d="M394.13,-68.78C391.31,-67.72 388.31,-66.63 385.5,-65.7 330.24,-47.31 313.12,-52.42 259.5,-29.7 258.65,-29.34 257.79,-28.95 256.93,-28.55"/>
<polygon fill="red" stroke="red" stroke-width="0.21" points="258.38,-25.36 247.91,-23.78 255.11,-31.55 258.38,-25.36"/>
</g>
<!-- &#45;3 -->
<g id="node3" class="node">
<title>&#45;3</title>
<polygon fill="lightgray" stroke="black" points="71.5,-83.7 47.5,-83.7 47.5,-65.7 71.5,-65.7 71.5,-83.7"/>
<text text-anchor="middle" x="59.5" y="-72.5" font-family="Times New Roman,serif" font-size="9.00">&#45;3</text>
</g>
<!-- &#45;3&#45;&gt;0 -->
<g id="edge8" class="edge">
<title>&#45;3&#45;&gt;0</title>
<path fill="none" stroke="red" stroke-width="0.33" d="M71.77,-68.15C93.28,-58.43 138.08,-38.18 165.2,-25.93"/>
<polygon fill="red" stroke="red" stroke-width="0.33" points="166.64,-29.12 174.31,-21.81 163.76,-22.74 166.64,-29.12"/>
</g>
<!-- &#45;3&#45;&gt;2 -->
<g id="edge9" class="edge">
<title>&#45;3&#45;&gt;2</title>
<path fill="none" stroke="red" stroke-width="0.2" d="M71.82,-68.62C74.64,-67.56 77.65,-66.52 80.5,-65.7 158.46,-43.18 183.58,-58.36 259.5,-29.7 260.37,-29.37 261.24,-29.02 262.11,-28.64"/>
<polygon fill="red" stroke="red" stroke-width="0.2" points="263.88,-31.66 271.18,-23.98 260.68,-25.44 263.88,-31.66"/>
</g>
<!-- &#45;3&#45;&gt;3 -->
<g id="edge10" class="edge">
<title>&#45;3&#45;&gt;3</title>
<path fill="none" stroke="green" stroke-width="0.28" d="M71.87,-68.76C74.69,-67.7 77.68,-66.62 80.5,-65.7 137.89,-46.93 155.79,-52.98 211.5,-29.7 212.35,-29.34 213.22,-28.96 214.08,-28.56"/>
<polygon fill="green" stroke="green" stroke-width="0.28" points="215.89,-31.56 223.1,-23.81 212.63,-25.37 215.89,-31.56"/>
</g>
<!-- &#45;4 -->
<g id="node4" class="node">
<title>&#45;4</title>
<polygon fill="lightgray" stroke="black" points="113.5,-83.7 89.5,-83.7 89.5,-65.7 113.5,-65.7 113.5,-83.7"/>
<text text-anchor="middle" x="101.5" y="-72.5" font-family="Times New Roman,serif" font-size="9.00">&#45;4</text>
</g>
<!-- &#45;4&#45;&gt;0 -->
<g id="edge11" class="edge">
<title>&#45;4&#45;&gt;0</title>
<path fill="none" stroke="green" stroke-width="1.33" d="M113.46,-65.65C127.32,-56.33 150.4,-40.8 167.11,-29.56"/>
<polygon fill="green" stroke="green" stroke-width="1.33" points="169.3,-32.31 175.64,-23.82 165.39,-26.5 169.3,-32.31"/>
</g>
<!-- &#45;4&#45;&gt;1 -->
<g id="edge12" class="edge">
<title>&#45;4&#45;&gt;1</title>
<path fill="none" stroke="red" stroke-width="0.52" stroke-dasharray="1,5" d="M113.82,-68.6C116.64,-67.55 119.65,-66.51 122.5,-65.7 203.05,-42.7 229.04,-59.03 307.5,-29.7 308.37,-29.37 309.24,-29.02 310.11,-28.64"/>
<polygon fill="red" stroke="red" stroke-width="0.52" points="311.88,-31.67 319.18,-24 308.69,-25.44 311.88,-31.67"/>
</g>
<!-- &#45;4&#45;&gt;3 -->
<g id="edge13" class="edge">
<title>&#45;4&#45;&gt;3</title>
<path fill="none" stroke="red" stroke-width="0.37" stroke-dasharray="1,5" d="M113.81,-69.03C138.52,-59.62 193.37,-38.5 211.5,-29.7 212.33,-29.29 213.18,-28.87 214.02,-28.44"/>
<polygon fill="red" stroke="red" stroke-width="0.37" points="215.89,-31.4 222.98,-23.53 212.53,-25.27 215.89,-31.4"/>
</g>
<!-- &#45;5 -->
<g id="node5" class="node">
<title>&#45;5</title>
<polygon fill="lightgray" stroke="black" points="334.5,-83.7 310.5,-83.7 310.5,-65.7 334.5,-65.7 334.5,-83.7"/>
<text text-anchor="middle" x="322.5" y="-72.5" font-family="Times New Roman,serif" font-size="9.00">&#45;5</text>
</g>
<!-- &#45;5&#45;&gt;0 -->
<g id="edge14" class="edge">
<title>&#45;5&#45;&gt;0</title>
<path fill="none" stroke="green" stroke-width="0.6" d="M310.23,-68.95C283.33,-58.53 220.83,-34.21 211.5,-29.7 210.67,-29.3 209.82,-28.87 208.97,-28.44"/>
<polygon fill="green" stroke="green" stroke-width="0.6" points="210.47,-25.27 200.02,-23.53 207.11,-31.41 210.47,-25.27"/>
</g>
<!-- &#45;5&#45;&gt;1 -->
<g id="edge15" class="edge">
<title>&#45;5&#45;&gt;1</title>
<path fill="none" stroke="green" stroke-width="0.55" d="M323.75,-65.65C324.8,-58.89 326.36,-48.86 327.81,-39.57"/>
<polygon fill="green" stroke="green" stroke-width="0.55" points="331.28,-40.02 329.36,-29.6 324.36,-38.95 331.28,-40.02"/>
</g>
<!-- &#45;5&#45;&gt;2 -->
<g id="edge16" class="edge">
<title>&#45;5&#45;&gt;2</title>
<path fill="none" stroke="green" stroke-width="0.1" d="M317.08,-65.65C311.96,-58.07 304.08,-46.37 297.24,-36.22"/>
<polygon fill="green" stroke="green" stroke-width="0.1" points="300.08,-34.18 291.59,-27.84 294.27,-38.09 300.08,-34.18"/>
</g>
<!-- &#45;5&#45;&gt;3 -->
<g id="edge17" class="edge">
<title>&#45;5&#45;&gt;3</title>
<path fill="none" stroke="green" stroke-width="2.11" d="M310.4,-65.65C296.38,-56.33 273.03,-40.8 256.12,-29.56"/>
<polygon fill="green" stroke="green" stroke-width="2.11" points="257.76,-26.45 247.49,-23.82 253.88,-32.28 257.76,-26.45"/>
</g>
<!-- &#45;6 -->
<g id="node6" class="node">
<title>&#45;6</title>
<polygon fill="lightgray" stroke="black" points="376.5,-83.7 352.5,-83.7 352.5,-65.7 376.5,-65.7 376.5,-83.7"/>
<text text-anchor="middle" x="364.5" y="-72.5" font-family="Times New Roman,serif" font-size="9.00">&#45;6</text>
</g>
<!-- &#45;6&#45;&gt;0 -->
<g id="edge18" class="edge">
<title>&#45;6&#45;&gt;0</title>
<path fill="none" stroke="red" stroke-width="0.24" stroke-dasharray="1,5" d="M352.13,-68.76C349.32,-67.7 346.32,-66.62 343.5,-65.7 285.68,-46.85 267.63,-53.09 211.5,-29.7 210.65,-29.34 209.78,-28.96 208.92,-28.56"/>
<polygon fill="red" stroke="red" stroke-width="0.24" points="210.37,-25.37 199.89,-23.81 207.11,-31.57 210.37,-25.37"/>
</g>
<!-- &#45;6&#45;&gt;1 -->
<g id="edge19" class="edge">
<title>&#45;6&#45;&gt;1</title>
<path fill="none" stroke="red" stroke-width="0.24" d="M359.91,-65.65C355.72,-58.31 349.35,-47.13 343.69,-37.22"/>
<polygon fill="red" stroke="red" stroke-width="0.24" points="346.58,-35.23 338.59,-28.28 340.5,-38.7 346.58,-35.23"/>
</g>
<!-- &#45;6&#45;&gt;2 -->
<g id="edge20" class="edge">
<title>&#45;6&#45;&gt;2</title>
<path fill="none" stroke="red" stroke-width="1.2" d="M353.24,-65.65C340.45,-56.52 319.32,-41.43 303.67,-30.26"/>
<polygon fill="red" stroke="red" stroke-width="1.2" points="305.36,-27.16 295.19,-24.2 301.3,-32.86 305.36,-27.16"/>
</g>
<!-- &#45;6&#45;&gt;3 -->
<g id="edge21" class="edge">
<title>&#45;6&#45;&gt;3</title>
<path fill="none" stroke="green" stroke-width="0.15" stroke-dasharray="1,5" d="M352.4,-68.85C328.65,-59.31 276.77,-38.26 259.5,-29.7 258.67,-29.29 257.83,-28.86 256.98,-28.42"/>
<polygon fill="green" stroke="green" stroke-width="0.15" points="258.49,-25.25 248.04,-23.49 255.11,-31.38 258.49,-25.25"/>
</g>
<!-- &#45;7 -->
<g id="node7" class="node">
<title>&#45;7</title>
<polygon fill="lightgray" stroke="black" points="460.5,-83.7 436.5,-83.7 436.5,-65.7 460.5,-65.7 460.5,-83.7"/>
<text text-anchor="middle" x="448.5" y="-72.5" font-family="Times New Roman,serif" font-size="9.00">&#45;7</text>
</g>
<!-- &#45;7&#45;&gt;1 -->
<g id="edge22" class="edge">
<title>&#45;7&#45;&gt;1</title>
<path fill="none" stroke="red" stroke-width="0.17" stroke-dasharray="1,5" d="M436.42,-67.73C416.92,-58.08 378.22,-38.95 353.66,-26.81"/>
<polygon fill="red" stroke="red" stroke-width="0.17" points="354.92,-23.52 344.4,-22.23 351.81,-29.8 354.92,-23.52"/>
</g>
<!-- &#45;7&#45;&gt;2 -->
<g id="edge23" class="edge">
<title>&#45;7&#45;&gt;2</title>
<path fill="none" stroke="red" stroke-width="0.23" d="M436.12,-68.81C433.3,-67.75 430.31,-66.65 427.5,-65.7 374.78,-47.78 358.62,-51.76 307.5,-29.7 306.65,-29.33 305.79,-28.94 304.93,-28.53"/>
<polygon fill="red" stroke="red" stroke-width="0.23" points="306.39,-25.35 295.92,-23.75 303.11,-31.53 306.39,-25.35"/>
</g>
<!-- &#45;7&#45;&gt;3 -->
<g id="edge24" class="edge">
<title>&#45;7&#45;&gt;3</title>
<path fill="none" stroke="green" stroke-width="0.35" d="M436.17,-68.64C433.35,-67.59 430.34,-66.54 427.5,-65.7 354.27,-44.04 330.77,-57.12 259.5,-29.7 258.64,-29.37 257.77,-29.01 256.9,-28.62"/>
<polygon fill="green" stroke="green" stroke-width="0.35" points="258.33,-25.42 247.84,-23.95 255.12,-31.64 258.33,-25.42"/>
</g>
<!-- &#45;8 -->
<g id="node8" class="node">
<title>&#45;8</title>
<polygon fill="lightgray" stroke="black" points="502.5,-83.7 478.5,-83.7 478.5,-65.7 502.5,-65.7 502.5,-83.7"/>
<text text-anchor="middle" x="490.5" y="-72.5" font-family="Times New Roman,serif" font-size="9.00">&#45;8</text>
</g>
<!-- &#45;8&#45;&gt;1 -->
<g id="edge25" class="edge">
<title>&#45;8&#45;&gt;1</title>
<path fill="none" stroke="green" stroke-width="0.25" stroke-dasharray="1,5" d="M478.08,-68.92C475.26,-67.85 472.28,-66.73 469.5,-65.7 429.26,-50.77 382.22,-33.9 354.75,-24.11"/>
<polygon fill="green" stroke="green" stroke-width="0.25" points="355.83,-20.78 345.24,-20.72 353.49,-27.37 355.83,-20.78"/>
</g>
<!-- &#45;8&#45;&gt;2 -->
<g id="edge26" class="edge">
<title>&#45;8&#45;&gt;2</title>
<path fill="none" stroke="red" stroke-width="0.13" d="M478.17,-68.66C475.34,-67.6 472.34,-66.55 469.5,-65.7 398.85,-44.51 376.24,-56.44 307.5,-29.7 306.64,-29.36 305.77,-29 304.9,-28.61"/>
<polygon fill="red" stroke="red" stroke-width="0.13" points="306.33,-25.42 295.84,-23.93 303.12,-31.63 306.33,-25.42"/>
</g>
<!-- &#45;8&#45;&gt;3 -->
<g id="edge27" class="edge">
<title>&#45;8&#45;&gt;3</title>
<path fill="none" stroke="red" stroke-width="1.85" d="M478.2,-68.55C475.37,-67.5 472.36,-66.48 469.5,-65.7 378.16,-40.73 348.56,-61.86 259.5,-29.7 258.63,-29.38 257.75,-29.04 256.88,-28.67"/>
<polygon fill="red" stroke="red" stroke-width="1.85" points="258.3,-25.46 247.8,-24.06 255.13,-31.71 258.3,-25.46"/>
</g>
<!-- &#45;9 -->
<g id="node9" class="node">
<title>&#45;9</title>
<polygon fill="lightgray" stroke="black" points="155.5,-83.7 131.5,-83.7 131.5,-65.7 155.5,-65.7 155.5,-83.7"/>
<text text-anchor="middle" x="143.5" y="-72.5" font-family="Times New Roman,serif" font-size="9.00">&#45;9</text>
</g>
<!-- &#45;9&#45;&gt;0 -->
<g id="edge28" class="edge">
<title>&#45;9&#45;&gt;0</title>
<path fill="none" stroke="green" stroke-width="0.29" stroke-dasharray="1,5" d="M149.62,-65.65C155.52,-57.89 164.69,-45.84 172.53,-35.53"/>
<polygon fill="green" stroke="green" stroke-width="0.29" points="175.43,-37.5 178.7,-27.42 169.86,-33.26 175.43,-37.5"/>
</g>
<!-- &#45;9&#45;&gt;1 -->
<g id="edge29" class="edge">
<title>&#45;9&#45;&gt;1</title>
<path fill="none" stroke="red" stroke-width="0.17" d="M155.85,-68.72C158.67,-67.66 161.67,-66.59 164.5,-65.7 227.01,-46 246.76,-54.31 307.5,-29.7 308.36,-29.35 309.22,-28.98 310.09,-28.58"/>
<polygon fill="red" stroke="red" stroke-width="0.17" points="311.89,-31.59 319.13,-23.86 308.64,-25.39 311.89,-31.59"/>
</g>
<!-- &#45;9&#45;&gt;2 -->
<g id="edge30" class="edge">
<title>&#45;9&#45;&gt;2</title>
<path fill="none" stroke="red" stroke-width="0.22" stroke-dasharray="1,5" d="M155.94,-68.96C158.75,-67.88 161.73,-66.75 164.5,-65.7 206.71,-49.66 218.7,-49.04 259.5,-29.7 260.34,-29.3 261.18,-28.89 262.03,-28.46"/>
<polygon fill="red" stroke="red" stroke-width="0.22" points="263.89,-31.43 271,-23.57 260.54,-25.28 263.89,-31.43"/>
</g>
<!-- &#45;9&#45;&gt;3 -->
<g id="edge31" class="edge">
<title>&#45;9&#45;&gt;3</title>
<path fill="none" stroke="red" stroke-width="0.42" stroke-dasharray="1,5" d="M155.53,-66.14C170.53,-56.7 196.42,-40.42 214.67,-28.95"/>
<polygon fill="red" stroke="red" stroke-width="0.42" points="216.57,-31.88 223.18,-23.6 212.85,-25.96 216.57,-31.88"/>
</g>
<!-- &#45;10 -->
<g id="node10" class="node">
<title>&#45;10</title>
<polygon fill="lightgray" stroke="black" points="29,-83.7 0,-83.7 0,-65.7 29,-65.7 29,-83.7"/>
<text text-anchor="middle" x="14.5" y="-72.5" font-family="Times New Roman,serif" font-size="9.00">&#45;10</text>
</g>
<!-- &#45;10&#45;&gt;0 -->
<g id="edge32" class="edge">
<title>&#45;10&#45;&gt;0</title>
<path fill="none" stroke="red" stroke-width="0.27" stroke-dasharray="1,5" d="M29.25,-68.77C59.15,-58.77 127.13,-36.04 163.5,-23.88"/>
<polygon fill="red" stroke="red" stroke-width="0.27" points="164.9,-27.1 173.27,-20.61 162.68,-20.46 164.9,-27.1"/>
</g>
<!-- &#45;10&#45;&gt;3 -->
<g id="edge33" class="edge">
<title>&#45;10&#45;&gt;3</title>
<path fill="none" stroke="red" stroke-width="0.36" d="M29.14,-68.52C32.21,-67.52 35.45,-66.52 38.5,-65.7 114.33,-45.25 138.12,-57.68 211.5,-29.7 212.37,-29.37 213.24,-29.01 214.11,-28.63"/>
<polygon fill="red" stroke="red" stroke-width="0.36" points="215.88,-31.65 223.17,-23.97 212.68,-25.43 215.88,-31.65"/>
</g>
<!-- &#45;11 -->
<g id="node11" class="node">
<title>&#45;11</title>
<polygon fill="lightgray" stroke="black" points="203,-83.7 174,-83.7 174,-65.7 203,-65.7 203,-83.7"/>
<text text-anchor="middle" x="188.5" y="-72.5" font-family="Times New Roman,serif" font-size="9.00">&#45;11</text>
</g>
<!-- &#45;11&#45;&gt;0 -->
<g id="edge34" class="edge">
<title>&#45;11&#45;&gt;0</title>
<path fill="none" stroke="red" stroke-width="0.22" d="M188.36,-65.65C188.25,-59.05 188.08,-49.33 187.92,-40.23"/>
<polygon fill="red" stroke="red" stroke-width="0.22" points="191.42,-39.99 187.75,-30.06 184.42,-40.12 191.42,-39.99"/>
</g>
<!-- &#45;11&#45;&gt;1 -->
<g id="edge35" class="edge">
<title>&#45;11&#45;&gt;1</title>
<path fill="none" stroke="green" stroke-width="0.33" d="M203.44,-68.34C233.16,-57.64 297.73,-34.28 307.5,-29.7 308.34,-29.31 309.19,-28.89 310.04,-28.47"/>
<polygon fill="green" stroke="green" stroke-width="0.33" points="311.89,-31.44 319.01,-23.59 308.55,-25.29 311.89,-31.44"/>
</g>
<!-- &#45;11&#45;&gt;2 -->
<g id="edge36" class="edge">
<title>&#45;11&#45;&gt;2</title>
<path fill="none" stroke="green" stroke-width="0.12" d="M201.71,-65.65C217.41,-56.09 243.82,-40.01 262.37,-28.72"/>
<polygon fill="green" stroke="green" stroke-width="0.12" points="264.29,-31.65 271.01,-23.46 260.65,-25.67 264.29,-31.65"/>
</g>
<!-- &#45;11&#45;&gt;3 -->
<g id="edge37" class="edge">
<title>&#45;11&#45;&gt;3</title>
<path fill="none" stroke="green" stroke-width="0.34" d="M195.04,-65.65C201.48,-57.72 211.58,-45.29 220.08,-34.83"/>
<polygon fill="green" stroke="green" stroke-width="0.34" points="222.86,-36.96 226.44,-26.99 217.42,-32.55 222.86,-36.96"/>
</g>
<!-- &#45;12 -->
<g id="node12" class="node">
<title>&#45;12</title>
<polygon fill="lightgray" stroke="black" points="250,-83.7 221,-83.7 221,-65.7 250,-65.7 250,-83.7"/>
<text text-anchor="middle" x="235.5" y="-72.5" font-family="Times New Roman,serif" font-size="9.00">&#45;12</text>
</g>
<!-- &#45;12&#45;&gt;0 -->
<g id="edge38" class="edge">
<title>&#45;12&#45;&gt;0</title>
<path fill="none" stroke="red" stroke-width="0.23" d="M228.83,-65.65C222.24,-57.72 211.93,-45.29 203.25,-34.83"/>
<polygon fill="red" stroke="red" stroke-width="0.23" points="205.83,-32.46 196.75,-26.99 200.44,-36.93 205.83,-32.46"/>
</g>
<!-- &#45;12&#45;&gt;1 -->
<g id="edge39" class="edge">
<title>&#45;12&#45;&gt;1</title>
<path fill="none" stroke="red" stroke-width="0.12" d="M248.85,-65.65C264.8,-56.04 291.69,-39.84 310.46,-28.53"/>
<polygon fill="red" stroke="red" stroke-width="0.12" points="312.42,-31.43 319.18,-23.28 308.81,-25.44 312.42,-31.43"/>
</g>
<!-- &#45;12&#45;&gt;2 -->
<g id="edge40" class="edge">
<title>&#45;12&#45;&gt;2</title>
<path fill="none" stroke="red" stroke-width="0.23" d="M242.17,-65.65C248.76,-57.72 259.07,-45.29 267.75,-34.83"/>
<polygon fill="red" stroke="red" stroke-width="0.23" points="270.56,-36.93 274.25,-26.99 265.17,-32.46 270.56,-36.93"/>
</g>
<!-- &#45;12&#45;&gt;3 -->
<g id="edge41" class="edge">
<title>&#45;12&#45;&gt;3</title>
<path fill="none" stroke="red" stroke-width="0.31" d="M235.5,-65.65C235.5,-59.05 235.5,-49.33 235.5,-40.23"/>
<polygon fill="red" stroke="red" stroke-width="0.31" points="239,-40.06 235.5,-30.06 232,-40.06 239,-40.06"/>
</g>
</g>
</svg>
