<?xml version="1.0" encoding="utf-8" standalone="no"?>
<!DOCTYPE svg PUBLIC "-//W3C//DTD SVG 1.1//EN"
  "http://www.w3.org/Graphics/SVG/1.1/DTD/svg11.dtd">
<svg xmlns:xlink="http://www.w3.org/1999/xlink" width="460.8pt" height="345.6pt" viewBox="0 0 460.8 345.6" xmlns="http://www.w3.org/2000/svg" version="1.1">
 <metadata>
  <rdf:RDF xmlns:dc="http://purl.org/dc/elements/1.1/" xmlns:cc="http://creativecommons.org/ns#" xmlns:rdf="http://www.w3.org/1999/02/22-rdf-syntax-ns#">
   <cc:Work>
    <dc:type rdf:resource="http://purl.org/dc/dcmitype/StillImage"/>
    <dc:date>2022-08-04T20:42:47.873029</dc:date>
    <dc:format>image/svg+xml</dc:format>
    <dc:creator>
     <cc:Agent>
      <dc:title>Matplotlib v3.5.2, https://matplotlib.org/</dc:title>
     </cc:Agent>
    </dc:creator>
   </cc:Work>
  </rdf:RDF>
 </metadata>
 <defs>
  <style type="text/css">*{stroke-linejoin: round; stroke-linecap: butt}</style>
 </defs>
 <g id="figure_1">
  <g id="patch_1">
   <path d="M 0 345.6 
L 460.8 345.6 
L 460.8 0 
L 0 0 
z
" style="fill: #ffffff"/>
  </g>
  <g id="axes_1">
   <g id="patch_2">
    <path d="M 57.6 307.584 
L 414.72 307.584 
L 414.72 41.472 
L 57.6 41.472 
z
" style="fill: #ffffff"/>
   </g>
   <g id="PolyCollection_1">
    <path d="M 73.832727 55.153721 
L 73.832727 307.584 
L 79.335347 307.584 
L 84.837966 307.584 
L 90.340586 307.584 
L 95.843205 307.584 
L 101.345824 307.584 
L 106.848444 307.584 
L 112.351063 307.584 
L 117.853683 307.584 
L 123.356302 307.584 
L 128.858921 307.584 
L 134.361541 307.584 
L 139.86416 307.584 
L 145.36678 307.584 
L 150.869399 307.584 
L 156.372018 307.584 
L 161.874638 307.584 
L 167.377257 307.584 
L 172.879877 307.584 
L 178.382496 307.584 
L 183.885116 307.584 
L 189.387735 307.584 
L 194.890354 307.584 
L 200.392974 307.584 
L 205.895593 307.584 
L 211.398213 307.584 
L 216.900832 307.584 
L 222.403451 307.584 
L 227.906071 307.584 
L 233.40869 307.584 
L 238.91131 307.584 
L 244.413929 307.584 
L 249.916549 307.584 
L 255.419168 307.584 
L 260.921787 307.584 
L 266.424407 307.584 
L 271.927026 307.584 
L 277.429646 307.584 
L 282.932265 307.584 
L 288.434884 307.584 
L 293.937504 307.584 
L 299.440123 307.584 
L 304.942743 307.584 
L 310.445362 307.584 
L 315.947982 307.584 
L 321.450601 307.584 
L 326.95322 307.584 
L 332.45584 307.584 
L 337.958459 307.584 
L 343.461079 307.584 
L 348.963698 307.584 
L 354.466317 307.584 
L 359.968937 307.584 
L 365.471556 307.584 
L 370.974176 307.584 
L 376.476795 307.584 
L 381.979414 307.584 
L 387.482034 307.584 
L 392.984653 307.584 
L 398.487273 307.584 
L 398.487273 307.584 
L 398.487273 307.584 
L 392.984653 307.584 
L 387.482034 307.584 
L 381.979414 307.584 
L 376.476795 307.584 
L 370.974176 307.584 
L 365.471556 307.584 
L 359.968937 307.584 
L 354.466317 307.584 
L 348.963698 307.584 
L 343.461079 307.584 
L 337.958459 307.584 
L 332.45584 307.584 
L 326.95322 307.584 
L 321.450601 307.584 
L 315.947982 307.584 
L 310.445362 291.428462 
L 304.942743 284.360414 
L 299.440123 265.175713 
L 293.937504 248.010454 
L 288.434884 229.835474 
L 282.932265 252.049339 
L 277.429646 244.981291 
L 271.927026 259.117386 
L 266.424407 260.127108 
L 260.921787 253.05906 
L 255.419168 258.107665 
L 249.916549 224.786869 
L 244.413929 217.718821 
L 238.91131 255.078502 
L 233.40869 214.689657 
L 227.906071 251.039618 
L 222.403451 229.835474 
L 216.900832 191.466072 
L 211.398213 207.62161 
L 205.895593 199.543841 
L 200.392974 197.524398 
L 194.890354 176.320255 
L 189.387735 185.407745 
L 183.885116 145.0189 
L 178.382496 123.814757 
L 172.879877 173.291092 
L 167.377257 115.736988 
L 161.874638 192.475793 
L 156.372018 149.057785 
L 150.869399 152.086948 
L 145.36678 107.659219 
L 139.86416 149.057785 
L 134.361541 175.310534 
L 128.858921 212.670215 
L 123.356302 137.950853 
L 117.853683 90.49396 
L 112.351063 55.153721 
L 106.848444 55.153721 
L 101.345824 55.153721 
L 95.843205 55.153721 
L 90.340586 55.153721 
L 84.837966 55.153721 
L 79.335347 55.153721 
L 73.832727 55.153721 
z
" clip-path="url(#pf694945d15)" style="fill: #1f77b4"/>
   </g>
   <g id="PolyCollection_2">
    <path d="M 73.832727 55.153721 
L 73.832727 55.153721 
L 79.335347 55.153721 
L 84.837966 55.153721 
L 90.340586 55.153721 
L 95.843205 55.153721 
L 101.345824 55.153721 
L 106.848444 55.153721 
L 112.351063 55.153721 
L 117.853683 90.49396 
L 123.356302 137.950853 
L 128.858921 212.670215 
L 134.361541 175.310534 
L 139.86416 149.057785 
L 145.36678 107.659219 
L 150.869399 152.086948 
L 156.372018 149.057785 
L 161.874638 192.475793 
L 167.377257 115.736988 
L 172.879877 173.291092 
L 178.382496 123.814757 
L 183.885116 145.0189 
L 189.387735 185.407745 
L 194.890354 176.320255 
L 200.392974 197.524398 
L 205.895593 199.543841 
L 211.398213 207.62161 
L 216.900832 191.466072 
L 222.403451 229.835474 
L 227.906071 251.039618 
L 233.40869 214.689657 
L 238.91131 255.078502 
L 244.413929 217.718821 
L 249.916549 224.786869 
L 255.419168 258.107665 
L 260.921787 253.05906 
L 266.424407 260.127108 
L 271.927026 259.117386 
L 277.429646 244.981291 
L 282.932265 252.049339 
L 288.434884 229.835474 
L 293.937504 248.010454 
L 299.440123 265.175713 
L 304.942743 284.360414 
L 310.445362 291.428462 
L 315.947982 307.584 
L 321.450601 307.584 
L 326.95322 307.584 
L 332.45584 307.584 
L 337.958459 307.584 
L 343.461079 307.584 
L 348.963698 307.584 
L 354.466317 307.584 
L 359.968937 307.584 
L 365.471556 307.584 
L 370.974176 307.584 
L 376.476795 307.584 
L 381.979414 307.584 
L 387.482034 307.584 
L 392.984653 307.584 
L 398.487273 307.584 
L 398.487273 307.584 
L 398.487273 307.584 
L 392.984653 307.584 
L 387.482034 307.584 
L 381.979414 307.584 
L 376.476795 307.584 
L 370.974176 307.584 
L 365.471556 307.584 
L 359.968937 307.584 
L 354.466317 307.584 
L 348.963698 307.584 
L 343.461079 307.584 
L 337.958459 307.584 
L 332.45584 307.584 
L 326.95322 307.584 
L 321.450601 307.584 
L 315.947982 307.584 
L 310.445362 291.428462 
L 304.942743 284.360414 
L 299.440123 265.175713 
L 293.937504 248.010454 
L 288.434884 229.835474 
L 282.932265 224.786869 
L 277.429646 199.543841 
L 271.927026 214.689657 
L 266.424407 215.699378 
L 260.921787 194.495235 
L 255.419168 214.689657 
L 249.916549 166.223044 
L 244.413929 153.096669 
L 238.91131 138.960574 
L 233.40869 153.096669 
L 227.906071 146.028622 
L 222.403451 137.950853 
L 216.900832 92.513402 
L 211.398213 92.513402 
L 205.895593 87.464797 
L 200.392974 90.49396 
L 194.890354 65.250932 
L 189.387735 55.153721 
L 183.885116 55.153721 
L 178.382496 55.153721 
L 172.879877 55.153721 
L 167.377257 55.153721 
L 161.874638 55.153721 
L 156.372018 55.153721 
L 150.869399 55.153721 
L 145.36678 55.153721 
L 139.86416 55.153721 
L 134.361541 55.153721 
L 128.858921 55.153721 
L 123.356302 55.153721 
L 117.853683 55.153721 
L 112.351063 55.153721 
L 106.848444 55.153721 
L 101.345824 55.153721 
L 95.843205 55.153721 
L 90.340586 55.153721 
L 84.837966 55.153721 
L 79.335347 55.153721 
L 73.832727 55.153721 
z
" clip-path="url(#pf694945d15)" style="fill: #ff7f0e"/>
   </g>
   <g id="PolyCollection_3">
    <path d="M 73.832727 55.153721 
L 73.832727 55.153721 
L 79.335347 55.153721 
L 84.837966 55.153721 
L 90.340586 55.153721 
L 95.843205 55.153721 
L 101.345824 55.153721 
L 106.848444 55.153721 
L 112.351063 55.153721 
L 117.853683 55.153721 
L 123.356302 55.153721 
L 128.858921 55.153721 
L 134.361541 55.153721 
L 139.86416 55.153721 
L 145.36678 55.153721 
L 150.869399 55.153721 
L 156.372018 55.153721 
L 161.874638 55.153721 
L 167.377257 55.153721 
L 172.879877 55.153721 
L 178.382496 55.153721 
L 183.885116 55.153721 
L 189.387735 55.153721 
L 194.890354 65.250932 
L 200.392974 90.49396 
L 205.895593 87.464797 
L 211.398213 92.513402 
L 216.900832 92.513402 
L 222.403451 137.950853 
L 227.906071 146.028622 
L 233.40869 153.096669 
L 238.91131 138.960574 
L 244.413929 153.096669 
L 249.916549 166.223044 
L 255.419168 214.689657 
L 260.921787 194.495235 
L 266.424407 215.699378 
L 271.927026 214.689657 
L 277.429646 199.543841 
L 282.932265 224.786869 
L 288.434884 229.835474 
L 293.937504 248.010454 
L 299.440123 265.175713 
L 304.942743 284.360414 
L 310.445362 291.428462 
L 315.947982 307.584 
L 321.450601 307.584 
L 326.95322 307.584 
L 332.45584 307.584 
L 337.958459 307.584 
L 343.461079 307.584 
L 348.963698 307.584 
L 354.466317 307.584 
L 359.968937 307.584 
L 365.471556 307.584 
L 370.974176 307.584 
L 376.476795 307.584 
L 381.979414 307.584 
L 387.482034 307.584 
L 392.984653 307.584 
L 398.487273 307.584 
L 398.487273 265.175713 
L 398.487273 265.175713 
L 392.984653 264.165992 
L 387.482034 273.253482 
L 381.979414 275.272924 
L 376.476795 241.952127 
L 370.974176 252.049339 
L 365.471556 258.107665 
L 359.968937 241.952127 
L 354.466317 249.020175 
L 348.963698 263.156271 
L 343.461079 262.14655 
L 337.958459 237.913243 
L 332.45584 245.991012 
L 326.95322 253.05906 
L 321.450601 249.020175 
L 315.947982 241.952127 
L 310.445362 235.893801 
L 304.942743 233.874359 
L 299.440123 218.728542 
L 293.937504 214.689657 
L 288.434884 192.475793 
L 282.932265 169.252207 
L 277.429646 154.10639 
L 271.927026 158.145275 
L 266.424407 176.320255 
L 260.921787 149.057785 
L 255.419168 159.154996 
L 249.916549 112.707825 
L 244.413929 105.639777 
L 238.91131 82.416191 
L 233.40869 63.23149 
L 227.906071 55.153721 
L 222.403451 55.153721 
L 216.900832 55.153721 
L 211.398213 55.153721 
L 205.895593 55.153721 
L 200.392974 55.153721 
L 194.890354 55.153721 
L 189.387735 55.153721 
L 183.885116 55.153721 
L 178.382496 55.153721 
L 172.879877 55.153721 
L 167.377257 55.153721 
L 161.874638 55.153721 
L 156.372018 55.153721 
L 150.869399 55.153721 
L 145.36678 55.153721 
L 139.86416 55.153721 
L 134.361541 55.153721 
L 128.858921 55.153721 
L 123.356302 55.153721 
L 117.853683 55.153721 
L 112.351063 55.153721 
L 106.848444 55.153721 
L 101.345824 55.153721 
L 95.843205 55.153721 
L 90.340586 55.153721 
L 84.837966 55.153721 
L 79.335347 55.153721 
L 73.832727 55.153721 
z
" clip-path="url(#pf694945d15)" style="fill: #2ca02c"/>
   </g>
   <g id="PolyCollection_4">
    <path d="M 73.832727 55.153721 
L 73.832727 55.153721 
L 79.335347 55.153721 
L 84.837966 55.153721 
L 90.340586 55.153721 
L 95.843205 55.153721 
L 101.345824 55.153721 
L 106.848444 55.153721 
L 112.351063 55.153721 
L 117.853683 55.153721 
L 123.356302 55.153721 
L 128.858921 55.153721 
L 134.361541 55.153721 
L 139.86416 55.153721 
L 145.36678 55.153721 
L 150.869399 55.153721 
L 156.372018 55.153721 
L 161.874638 55.153721 
L 167.377257 55.153721 
L 172.879877 55.153721 
L 178.382496 55.153721 
L 183.885116 55.153721 
L 189.387735 55.153721 
L 194.890354 55.153721 
L 200.392974 55.153721 
L 205.895593 55.153721 
L 211.398213 55.153721 
L 216.900832 55.153721 
L 222.403451 55.153721 
L 227.906071 55.153721 
L 233.40869 63.23149 
L 238.91131 82.416191 
L 244.413929 105.639777 
L 249.916549 112.707825 
L 255.419168 159.154996 
L 260.921787 149.057785 
L 266.424407 176.320255 
L 271.927026 158.145275 
L 277.429646 154.10639 
L 282.932265 169.252207 
L 288.434884 192.475793 
L 293.937504 214.689657 
L 299.440123 218.728542 
L 304.942743 233.874359 
L 310.445362 235.893801 
L 315.947982 241.952127 
L 321.450601 249.020175 
L 326.95322 253.05906 
L 332.45584 245.991012 
L 337.958459 237.913243 
L 343.461079 262.14655 
L 348.963698 263.156271 
L 354.466317 249.020175 
L 359.968937 241.952127 
L 365.471556 258.107665 
L 370.974176 252.049339 
L 376.476795 241.952127 
L 381.979414 275.272924 
L 387.482034 273.253482 
L 392.984653 264.165992 
L 398.487273 265.175713 
L 398.487273 265.175713 
L 398.487273 265.175713 
L 392.984653 264.165992 
L 387.482034 273.253482 
L 381.979414 275.272924 
L 376.476795 241.952127 
L 370.974176 194.495235 
L 365.471556 231.854916 
L 359.968937 200.553562 
L 354.466317 194.495235 
L 348.963698 201.563283 
L 343.461079 182.378582 
L 337.958459 153.096669 
L 332.45584 175.310534 
L 326.95322 157.135554 
L 321.450601 180.359139 
L 315.947982 183.388303 
L 310.445362 174.300813 
L 304.942743 180.359139 
L 299.440123 160.164717 
L 293.937504 183.388303 
L 288.434884 167.232765 
L 282.932265 134.921689 
L 277.429646 96.552287 
L 271.927026 96.552287 
L 266.424407 105.639777 
L 260.921787 89.484239 
L 255.419168 92.513402 
L 249.916549 59.192606 
L 244.413929 57.173163 
L 238.91131 55.153721 
L 233.40869 55.153721 
L 227.906071 55.153721 
L 222.403451 55.153721 
L 216.900832 55.153721 
L 211.398213 55.153721 
L 205.895593 55.153721 
L 200.392974 55.153721 
L 194.890354 55.153721 
L 189.387735 55.153721 
L 183.885116 55.153721 
L 178.382496 55.153721 
L 172.879877 55.153721 
L 167.377257 55.153721 
L 161.874638 55.153721 
L 156.372018 55.153721 
L 150.869399 55.153721 
L 145.36678 55.153721 
L 139.86416 55.153721 
L 134.361541 55.153721 
L 128.858921 55.153721 
L 123.356302 55.153721 
L 117.853683 55.153721 
L 112.351063 55.153721 
L 106.848444 55.153721 
L 101.345824 55.153721 
L 95.843205 55.153721 
L 90.340586 55.153721 
L 84.837966 55.153721 
L 79.335347 55.153721 
L 73.832727 55.153721 
z
" clip-path="url(#pf694945d15)" style="fill: #d62728"/>
   </g>
   <g id="PolyCollection_5">
    <path d="M 73.832727 55.153721 
L 73.832727 55.153721 
L 79.335347 55.153721 
L 84.837966 55.153721 
L 90.340586 55.153721 
L 95.843205 55.153721 
L 101.345824 55.153721 
L 106.848444 55.153721 
L 112.351063 55.153721 
L 117.853683 55.153721 
L 123.356302 55.153721 
L 128.858921 55.153721 
L 134.361541 55.153721 
L 139.86416 55.153721 
L 145.36678 55.153721 
L 150.869399 55.153721 
L 156.372018 55.153721 
L 161.874638 55.153721 
L 167.377257 55.153721 
L 172.879877 55.153721 
L 178.382496 55.153721 
L 183.885116 55.153721 
L 189.387735 55.153721 
L 194.890354 55.153721 
L 200.392974 55.153721 
L 205.895593 55.153721 
L 211.398213 55.153721 
L 216.900832 55.153721 
L 222.403451 55.153721 
L 227.906071 55.153721 
L 233.40869 55.153721 
L 238.91131 55.153721 
L 244.413929 57.173163 
L 249.916549 59.192606 
L 255.419168 92.513402 
L 260.921787 89.484239 
L 266.424407 105.639777 
L 271.927026 96.552287 
L 277.429646 96.552287 
L 282.932265 134.921689 
L 288.434884 167.232765 
L 293.937504 183.388303 
L 299.440123 160.164717 
L 304.942743 180.359139 
L 310.445362 174.300813 
L 315.947982 183.388303 
L 321.450601 180.359139 
L 326.95322 157.135554 
L 332.45584 175.310534 
L 337.958459 153.096669 
L 343.461079 182.378582 
L 348.963698 201.563283 
L 354.466317 194.495235 
L 359.968937 200.553562 
L 365.471556 231.854916 
L 370.974176 194.495235 
L 376.476795 241.952127 
L 381.979414 275.272924 
L 387.482034 273.253482 
L 392.984653 264.165992 
L 398.487273 265.175713 
L 398.487273 187.427187 
L 398.487273 187.427187 
L 392.984653 178.339697 
L 387.482034 194.495235 
L 381.979414 205.602167 
L 376.476795 191.466072 
L 370.974176 145.0189 
L 365.471556 172.281371 
L 359.968937 152.086948 
L 354.466317 138.960574 
L 348.963698 139.970295 
L 343.461079 149.057785 
L 337.958459 129.873084 
L 332.45584 138.960574 
L 326.95322 125.834199 
L 321.450601 104.630056 
L 315.947982 91.503681 
L 310.445362 101.600892 
L 304.942743 106.649498 
L 299.440123 95.542566 
L 293.937504 97.562008 
L 288.434884 98.571729 
L 282.932265 61.212048 
L 277.429646 55.153721 
L 271.927026 55.153721 
L 266.424407 56.163442 
L 260.921787 56.163442 
L 255.419168 55.153721 
L 249.916549 54.144 
L 244.413929 55.153721 
L 238.91131 55.153721 
L 233.40869 55.153721 
L 227.906071 55.153721 
L 222.403451 55.153721 
L 216.900832 55.153721 
L 211.398213 55.153721 
L 205.895593 55.153721 
L 200.392974 55.153721 
L 194.890354 55.153721 
L 189.387735 55.153721 
L 183.885116 55.153721 
L 178.382496 55.153721 
L 172.879877 55.153721 
L 167.377257 55.153721 
L 161.874638 55.153721 
L 156.372018 55.153721 
L 150.869399 55.153721 
L 145.36678 55.153721 
L 139.86416 55.153721 
L 134.361541 55.153721 
L 128.858921 55.153721 
L 123.356302 55.153721 
L 117.853683 55.153721 
L 112.351063 55.153721 
L 106.848444 55.153721 
L 101.345824 55.153721 
L 95.843205 55.153721 
L 90.340586 55.153721 
L 84.837966 55.153721 
L 79.335347 55.153721 
L 73.832727 55.153721 
z
" clip-path="url(#pf694945d15)" style="fill: #9467bd"/>
   </g>
   <g id="PolyCollection_6">
    <path d="M 73.832727 55.153721 
L 73.832727 55.153721 
L 79.335347 55.153721 
L 84.837966 55.153721 
L 90.340586 55.153721 
L 95.843205 55.153721 
L 101.345824 55.153721 
L 106.848444 55.153721 
L 112.351063 55.153721 
L 117.853683 55.153721 
L 123.356302 55.153721 
L 128.858921 55.153721 
L 134.361541 55.153721 
L 139.86416 55.153721 
L 145.36678 55.153721 
L 150.869399 55.153721 
L 156.372018 55.153721 
L 161.874638 55.153721 
L 167.377257 55.153721 
L 172.879877 55.153721 
L 178.382496 55.153721 
L 183.885116 55.153721 
L 189.387735 55.153721 
L 194.890354 55.153721 
L 200.392974 55.153721 
L 205.895593 55.153721 
L 211.398213 55.153721 
L 216.900832 55.153721 
L 222.403451 55.153721 
L 227.906071 55.153721 
L 233.40869 55.153721 
L 238.91131 55.153721 
L 244.413929 55.153721 
L 249.916549 54.144 
L 255.419168 55.153721 
L 260.921787 56.163442 
L 266.424407 56.163442 
L 271.927026 55.153721 
L 277.429646 55.153721 
L 282.932265 61.212048 
L 288.434884 98.571729 
L 293.937504 97.562008 
L 299.440123 95.542566 
L 304.942743 106.649498 
L 310.445362 101.600892 
L 315.947982 91.503681 
L 321.450601 104.630056 
L 326.95322 125.834199 
L 332.45584 138.960574 
L 337.958459 129.873084 
L 343.461079 149.057785 
L 348.963698 139.970295 
L 354.466317 138.960574 
L 359.968937 152.086948 
L 365.471556 172.281371 
L 370.974176 145.0189 
L 376.476795 191.466072 
L 381.979414 205.602167 
L 387.482034 194.495235 
L 392.984653 178.339697 
L 398.487273 187.427187 
L 398.487273 157.135554 
L 398.487273 157.135554 
L 392.984653 142.999458 
L 387.482034 163.19388 
L 381.979414 155.116112 
L 376.476795 137.950853 
L 370.974176 114.727267 
L 365.471556 133.911968 
L 359.968937 113.717546 
L 354.466317 108.66894 
L 348.963698 97.562008 
L 343.461079 109.678661 
L 337.958459 95.542566 
L 332.45584 99.58145 
L 326.95322 92.513402 
L 321.450601 73.328701 
L 315.947982 55.153721 
L 310.445362 54.144 
L 304.942743 55.153721 
L 299.440123 55.153721 
L 293.937504 56.163442 
L 288.434884 55.153721 
L 282.932265 55.153721 
L 277.429646 55.153721 
L 271.927026 55.153721 
L 266.424407 56.163442 
L 260.921787 56.163442 
L 255.419168 55.153721 
L 249.916549 54.144 
L 244.413929 55.153721 
L 238.91131 55.153721 
L 233.40869 55.153721 
L 227.906071 55.153721 
L 222.403451 55.153721 
L 216.900832 55.153721 
L 211.398213 55.153721 
L 205.895593 55.153721 
L 200.392974 55.153721 
L 194.890354 55.153721 
L 189.387735 55.153721 
L 183.885116 55.153721 
L 178.382496 55.153721 
L 172.879877 55.153721 
L 167.377257 55.153721 
L 161.874638 55.153721 
L 156.372018 55.153721 
L 150.869399 55.153721 
L 145.36678 55.153721 
L 139.86416 55.153721 
L 134.361541 55.153721 
L 128.858921 55.153721 
L 123.356302 55.153721 
L 117.853683 55.153721 
L 112.351063 55.153721 
L 106.848444 55.153721 
L 101.345824 55.153721 
L 95.843205 55.153721 
L 90.340586 55.153721 
L 84.837966 55.153721 
L 79.335347 55.153721 
L 73.832727 55.153721 
z
" clip-path="url(#pf694945d15)" style="fill: #8c564b"/>
   </g>
   <g id="PolyCollection_7">
    <path d="M 73.832727 55.153721 
L 73.832727 55.153721 
L 79.335347 55.153721 
L 84.837966 55.153721 
L 90.340586 55.153721 
L 95.843205 55.153721 
L 101.345824 55.153721 
L 106.848444 55.153721 
L 112.351063 55.153721 
L 117.853683 55.153721 
L 123.356302 55.153721 
L 128.858921 55.153721 
L 134.361541 55.153721 
L 139.86416 55.153721 
L 145.36678 55.153721 
L 150.869399 55.153721 
L 156.372018 55.153721 
L 161.874638 55.153721 
L 167.377257 55.153721 
L 172.879877 55.153721 
L 178.382496 55.153721 
L 183.885116 55.153721 
L 189.387735 55.153721 
L 194.890354 55.153721 
L 200.392974 55.153721 
L 205.895593 55.153721 
L 211.398213 55.153721 
L 216.900832 55.153721 
L 222.403451 55.153721 
L 227.906071 55.153721 
L 233.40869 55.153721 
L 238.91131 55.153721 
L 244.413929 55.153721 
L 249.916549 54.144 
L 255.419168 55.153721 
L 260.921787 56.163442 
L 266.424407 56.163442 
L 271.927026 55.153721 
L 277.429646 55.153721 
L 282.932265 55.153721 
L 288.434884 55.153721 
L 293.937504 56.163442 
L 299.440123 55.153721 
L 304.942743 55.153721 
L 310.445362 54.144 
L 315.947982 55.153721 
L 321.450601 73.328701 
L 326.95322 92.513402 
L 332.45584 99.58145 
L 337.958459 95.542566 
L 343.461079 109.678661 
L 348.963698 97.562008 
L 354.466317 108.66894 
L 359.968937 113.717546 
L 365.471556 133.911968 
L 370.974176 114.727267 
L 376.476795 137.950853 
L 381.979414 155.116112 
L 387.482034 163.19388 
L 392.984653 142.999458 
L 398.487273 157.135554 
L 398.487273 111.698104 
L 398.487273 111.698104 
L 392.984653 105.639777 
L 387.482034 105.639777 
L 381.979414 102.610614 
L 376.476795 107.659219 
L 370.974176 76.357865 
L 365.471556 84.435633 
L 359.968937 74.338422 
L 354.466317 61.212048 
L 348.963698 56.163442 
L 343.461079 56.163442 
L 337.958459 56.163442 
L 332.45584 55.153721 
L 326.95322 55.153721 
L 321.450601 54.144 
L 315.947982 55.153721 
L 310.445362 54.144 
L 304.942743 55.153721 
L 299.440123 55.153721 
L 293.937504 56.163442 
L 288.434884 55.153721 
L 282.932265 55.153721 
L 277.429646 55.153721 
L 271.927026 55.153721 
L 266.424407 56.163442 
L 260.921787 56.163442 
L 255.419168 55.153721 
L 249.916549 54.144 
L 244.413929 55.153721 
L 238.91131 55.153721 
L 233.40869 55.153721 
L 227.906071 55.153721 
L 222.403451 55.153721 
L 216.900832 55.153721 
L 211.398213 55.153721 
L 205.895593 55.153721 
L 200.392974 55.153721 
L 194.890354 55.153721 
L 189.387735 55.153721 
L 183.885116 55.153721 
L 178.382496 55.153721 
L 172.879877 55.153721 
L 167.377257 55.153721 
L 161.874638 55.153721 
L 156.372018 55.153721 
L 150.869399 55.153721 
L 145.36678 55.153721 
L 139.86416 55.153721 
L 134.361541 55.153721 
L 128.858921 55.153721 
L 123.356302 55.153721 
L 117.853683 55.153721 
L 112.351063 55.153721 
L 106.848444 55.153721 
L 101.345824 55.153721 
L 95.843205 55.153721 
L 90.340586 55.153721 
L 84.837966 55.153721 
L 79.335347 55.153721 
L 73.832727 55.153721 
z
" clip-path="url(#pf694945d15)" style="fill: #e377c2"/>
   </g>
   <g id="PolyCollection_8">
    <path d="M 73.832727 55.153721 
L 73.832727 55.153721 
L 79.335347 55.153721 
L 84.837966 55.153721 
L 90.340586 55.153721 
L 95.843205 55.153721 
L 101.345824 55.153721 
L 106.848444 55.153721 
L 112.351063 55.153721 
L 117.853683 55.153721 
L 123.356302 55.153721 
L 128.858921 55.153721 
L 134.361541 55.153721 
L 139.86416 55.153721 
L 145.36678 55.153721 
L 150.869399 55.153721 
L 156.372018 55.153721 
L 161.874638 55.153721 
L 167.377257 55.153721 
L 172.879877 55.153721 
L 178.382496 55.153721 
L 183.885116 55.153721 
L 189.387735 55.153721 
L 194.890354 55.153721 
L 200.392974 55.153721 
L 205.895593 55.153721 
L 211.398213 55.153721 
L 216.900832 55.153721 
L 222.403451 55.153721 
L 227.906071 55.153721 
L 233.40869 55.153721 
L 238.91131 55.153721 
L 244.413929 55.153721 
L 249.916549 54.144 
L 255.419168 55.153721 
L 260.921787 56.163442 
L 266.424407 56.163442 
L 271.927026 55.153721 
L 277.429646 55.153721 
L 282.932265 55.153721 
L 288.434884 55.153721 
L 293.937504 56.163442 
L 299.440123 55.153721 
L 304.942743 55.153721 
L 310.445362 54.144 
L 315.947982 55.153721 
L 321.450601 54.144 
L 326.95322 55.153721 
L 332.45584 55.153721 
L 337.958459 56.163442 
L 343.461079 56.163442 
L 348.963698 56.163442 
L 354.466317 61.212048 
L 359.968937 74.338422 
L 365.471556 84.435633 
L 370.974176 76.357865 
L 376.476795 107.659219 
L 381.979414 102.610614 
L 387.482034 105.639777 
L 392.984653 105.639777 
L 398.487273 111.698104 
L 398.487273 55.153721 
L 398.487273 55.153721 
L 392.984653 55.153721 
L 387.482034 55.153721 
L 381.979414 55.153721 
L 376.476795 55.153721 
L 370.974176 55.153721 
L 365.471556 55.153721 
L 359.968937 55.153721 
L 354.466317 56.163442 
L 348.963698 56.163442 
L 343.461079 56.163442 
L 337.958459 56.163442 
L 332.45584 55.153721 
L 326.95322 55.153721 
L 321.450601 54.144 
L 315.947982 55.153721 
L 310.445362 54.144 
L 304.942743 55.153721 
L 299.440123 55.153721 
L 293.937504 56.163442 
L 288.434884 55.153721 
L 282.932265 55.153721 
L 277.429646 55.153721 
L 271.927026 55.153721 
L 266.424407 56.163442 
L 260.921787 56.163442 
L 255.419168 55.153721 
L 249.916549 54.144 
L 244.413929 55.153721 
L 238.91131 55.153721 
L 233.40869 55.153721 
L 227.906071 55.153721 
L 222.403451 55.153721 
L 216.900832 55.153721 
L 211.398213 55.153721 
L 205.895593 55.153721 
L 200.392974 55.153721 
L 194.890354 55.153721 
L 189.387735 55.153721 
L 183.885116 55.153721 
L 178.382496 55.153721 
L 172.879877 55.153721 
L 167.377257 55.153721 
L 161.874638 55.153721 
L 156.372018 55.153721 
L 150.869399 55.153721 
L 145.36678 55.153721 
L 139.86416 55.153721 
L 134.361541 55.153721 
L 128.858921 55.153721 
L 123.356302 55.153721 
L 117.853683 55.153721 
L 112.351063 55.153721 
L 106.848444 55.153721 
L 101.345824 55.153721 
L 95.843205 55.153721 
L 90.340586 55.153721 
L 84.837966 55.153721 
L 79.335347 55.153721 
L 73.832727 55.153721 
z
" clip-path="url(#pf694945d15)" style="fill: #7f7f7f"/>
   </g>
   <g id="matplotlib.axis_1">
    <g id="xtick_1">
     <g id="line2d_1">
      <defs>
       <path id="mf8d605cb7a" d="M 0 0 
L 0 3.5 
" style="stroke: #000000; stroke-width: 0.8"/>
      </defs>
      <g>
       <use xlink:href="#mf8d605cb7a" x="73.832727" y="307.584" style="stroke: #000000; stroke-width: 0.8"/>
      </g>
     </g>
     <g id="text_1">
      <!-- 0 -->
      <g transform="translate(70.651477 322.182437)scale(0.1 -0.1)">
       <defs>
        <path id="DejaVuSans-30" d="M 2034 4250 
Q 1547 4250 1301 3770 
Q 1056 3291 1056 2328 
Q 1056 1369 1301 889 
Q 1547 409 2034 409 
Q 2525 409 2770 889 
Q 3016 1369 3016 2328 
Q 3016 3291 2770 3770 
Q 2525 4250 2034 4250 
z
M 2034 4750 
Q 2819 4750 3233 4129 
Q 3647 3509 3647 2328 
Q 3647 1150 3233 529 
Q 2819 -91 2034 -91 
Q 1250 -91 836 529 
Q 422 1150 422 2328 
Q 422 3509 836 4129 
Q 1250 4750 2034 4750 
z
" transform="scale(0.015625)"/>
       </defs>
       <use xlink:href="#DejaVuSans-30"/>
      </g>
     </g>
    </g>
    <g id="xtick_2">
     <g id="line2d_2">
      <g>
       <use xlink:href="#mf8d605cb7a" x="128.858921" y="307.584" style="stroke: #000000; stroke-width: 0.8"/>
      </g>
     </g>
     <g id="text_2">
      <!-- 10 -->
      <g transform="translate(122.496421 322.182437)scale(0.1 -0.1)">
       <defs>
        <path id="DejaVuSans-31" d="M 794 531 
L 1825 531 
L 1825 4091 
L 703 3866 
L 703 4441 
L 1819 4666 
L 2450 4666 
L 2450 531 
L 3481 531 
L 3481 0 
L 794 0 
L 794 531 
z
" transform="scale(0.015625)"/>
       </defs>
       <use xlink:href="#DejaVuSans-31"/>
       <use xlink:href="#DejaVuSans-30" x="63.623047"/>
      </g>
     </g>
    </g>
    <g id="xtick_3">
     <g id="line2d_3">
      <g>
       <use xlink:href="#mf8d605cb7a" x="183.885116" y="307.584" style="stroke: #000000; stroke-width: 0.8"/>
      </g>
     </g>
     <g id="text_3">
      <!-- 20 -->
      <g transform="translate(177.522616 322.182437)scale(0.1 -0.1)">
       <defs>
        <path id="DejaVuSans-32" d="M 1228 531 
L 3431 531 
L 3431 0 
L 469 0 
L 469 531 
Q 828 903 1448 1529 
Q 2069 2156 2228 2338 
Q 2531 2678 2651 2914 
Q 2772 3150 2772 3378 
Q 2772 3750 2511 3984 
Q 2250 4219 1831 4219 
Q 1534 4219 1204 4116 
Q 875 4013 500 3803 
L 500 4441 
Q 881 4594 1212 4672 
Q 1544 4750 1819 4750 
Q 2544 4750 2975 4387 
Q 3406 4025 3406 3419 
Q 3406 3131 3298 2873 
Q 3191 2616 2906 2266 
Q 2828 2175 2409 1742 
Q 1991 1309 1228 531 
z
" transform="scale(0.015625)"/>
       </defs>
       <use xlink:href="#DejaVuSans-32"/>
       <use xlink:href="#DejaVuSans-30" x="63.623047"/>
      </g>
     </g>
    </g>
    <g id="xtick_4">
     <g id="line2d_4">
      <g>
       <use xlink:href="#mf8d605cb7a" x="238.91131" y="307.584" style="stroke: #000000; stroke-width: 0.8"/>
      </g>
     </g>
     <g id="text_4">
      <!-- 30 -->
      <g transform="translate(232.54881 322.182437)scale(0.1 -0.1)">
       <defs>
        <path id="DejaVuSans-33" d="M 2597 2516 
Q 3050 2419 3304 2112 
Q 3559 1806 3559 1356 
Q 3559 666 3084 287 
Q 2609 -91 1734 -91 
Q 1441 -91 1130 -33 
Q 819 25 488 141 
L 488 750 
Q 750 597 1062 519 
Q 1375 441 1716 441 
Q 2309 441 2620 675 
Q 2931 909 2931 1356 
Q 2931 1769 2642 2001 
Q 2353 2234 1838 2234 
L 1294 2234 
L 1294 2753 
L 1863 2753 
Q 2328 2753 2575 2939 
Q 2822 3125 2822 3475 
Q 2822 3834 2567 4026 
Q 2313 4219 1838 4219 
Q 1578 4219 1281 4162 
Q 984 4106 628 3988 
L 628 4550 
Q 988 4650 1302 4700 
Q 1616 4750 1894 4750 
Q 2613 4750 3031 4423 
Q 3450 4097 3450 3541 
Q 3450 3153 3228 2886 
Q 3006 2619 2597 2516 
z
" transform="scale(0.015625)"/>
       </defs>
       <use xlink:href="#DejaVuSans-33"/>
       <use xlink:href="#DejaVuSans-30" x="63.623047"/>
      </g>
     </g>
    </g>
    <g id="xtick_5">
     <g id="line2d_5">
      <g>
       <use xlink:href="#mf8d605cb7a" x="293.937504" y="307.584" style="stroke: #000000; stroke-width: 0.8"/>
      </g>
     </g>
     <g id="text_5">
      <!-- 40 -->
      <g transform="translate(287.575004 322.182437)scale(0.1 -0.1)">
       <defs>
        <path id="DejaVuSans-34" d="M 2419 4116 
L 825 1625 
L 2419 1625 
L 2419 4116 
z
M 2253 4666 
L 3047 4666 
L 3047 1625 
L 3713 1625 
L 3713 1100 
L 3047 1100 
L 3047 0 
L 2419 0 
L 2419 1100 
L 313 1100 
L 313 1709 
L 2253 4666 
z
" transform="scale(0.015625)"/>
       </defs>
       <use xlink:href="#DejaVuSans-34"/>
       <use xlink:href="#DejaVuSans-30" x="63.623047"/>
      </g>
     </g>
    </g>
    <g id="xtick_6">
     <g id="line2d_6">
      <g>
       <use xlink:href="#mf8d605cb7a" x="348.963698" y="307.584" style="stroke: #000000; stroke-width: 0.8"/>
      </g>
     </g>
     <g id="text_6">
      <!-- 50 -->
      <g transform="translate(342.601198 322.182437)scale(0.1 -0.1)">
       <defs>
        <path id="DejaVuSans-35" d="M 691 4666 
L 3169 4666 
L 3169 4134 
L 1269 4134 
L 1269 2991 
Q 1406 3038 1543 3061 
Q 1681 3084 1819 3084 
Q 2600 3084 3056 2656 
Q 3513 2228 3513 1497 
Q 3513 744 3044 326 
Q 2575 -91 1722 -91 
Q 1428 -91 1123 -41 
Q 819 9 494 109 
L 494 744 
Q 775 591 1075 516 
Q 1375 441 1709 441 
Q 2250 441 2565 725 
Q 2881 1009 2881 1497 
Q 2881 1984 2565 2268 
Q 2250 2553 1709 2553 
Q 1456 2553 1204 2497 
Q 953 2441 691 2322 
L 691 4666 
z
" transform="scale(0.015625)"/>
       </defs>
       <use xlink:href="#DejaVuSans-35"/>
       <use xlink:href="#DejaVuSans-30" x="63.623047"/>
      </g>
     </g>
    </g>
    <g id="xtick_7">
     <g id="line2d_7">
      <g>
       <use xlink:href="#mf8d605cb7a" x="403.989892" y="307.584" style="stroke: #000000; stroke-width: 0.8"/>
      </g>
     </g>
     <g id="text_7">
      <!-- 60 -->
      <g transform="translate(397.627392 322.182437)scale(0.1 -0.1)">
       <defs>
        <path id="DejaVuSans-36" d="M 2113 2584 
Q 1688 2584 1439 2293 
Q 1191 2003 1191 1497 
Q 1191 994 1439 701 
Q 1688 409 2113 409 
Q 2538 409 2786 701 
Q 3034 994 3034 1497 
Q 3034 2003 2786 2293 
Q 2538 2584 2113 2584 
z
M 3366 4563 
L 3366 3988 
Q 3128 4100 2886 4159 
Q 2644 4219 2406 4219 
Q 1781 4219 1451 3797 
Q 1122 3375 1075 2522 
Q 1259 2794 1537 2939 
Q 1816 3084 2150 3084 
Q 2853 3084 3261 2657 
Q 3669 2231 3669 1497 
Q 3669 778 3244 343 
Q 2819 -91 2113 -91 
Q 1303 -91 875 529 
Q 447 1150 447 2328 
Q 447 3434 972 4092 
Q 1497 4750 2381 4750 
Q 2619 4750 2861 4703 
Q 3103 4656 3366 4563 
z
" transform="scale(0.015625)"/>
       </defs>
       <use xlink:href="#DejaVuSans-36"/>
       <use xlink:href="#DejaVuSans-30" x="63.623047"/>
      </g>
     </g>
    </g>
    <g id="text_8">
     <!-- Generations -->
     <g transform="translate(205.662344 335.860562)scale(0.1 -0.1)">
      <defs>
       <path id="DejaVuSans-47" d="M 3809 666 
L 3809 1919 
L 2778 1919 
L 2778 2438 
L 4434 2438 
L 4434 434 
Q 4069 175 3628 42 
Q 3188 -91 2688 -91 
Q 1594 -91 976 548 
Q 359 1188 359 2328 
Q 359 3472 976 4111 
Q 1594 4750 2688 4750 
Q 3144 4750 3555 4637 
Q 3966 4525 4313 4306 
L 4313 3634 
Q 3963 3931 3569 4081 
Q 3175 4231 2741 4231 
Q 1884 4231 1454 3753 
Q 1025 3275 1025 2328 
Q 1025 1384 1454 906 
Q 1884 428 2741 428 
Q 3075 428 3337 486 
Q 3600 544 3809 666 
z
" transform="scale(0.015625)"/>
       <path id="DejaVuSans-65" d="M 3597 1894 
L 3597 1613 
L 953 1613 
Q 991 1019 1311 708 
Q 1631 397 2203 397 
Q 2534 397 2845 478 
Q 3156 559 3463 722 
L 3463 178 
Q 3153 47 2828 -22 
Q 2503 -91 2169 -91 
Q 1331 -91 842 396 
Q 353 884 353 1716 
Q 353 2575 817 3079 
Q 1281 3584 2069 3584 
Q 2775 3584 3186 3129 
Q 3597 2675 3597 1894 
z
M 3022 2063 
Q 3016 2534 2758 2815 
Q 2500 3097 2075 3097 
Q 1594 3097 1305 2825 
Q 1016 2553 972 2059 
L 3022 2063 
z
" transform="scale(0.015625)"/>
       <path id="DejaVuSans-6e" d="M 3513 2113 
L 3513 0 
L 2938 0 
L 2938 2094 
Q 2938 2591 2744 2837 
Q 2550 3084 2163 3084 
Q 1697 3084 1428 2787 
Q 1159 2491 1159 1978 
L 1159 0 
L 581 0 
L 581 3500 
L 1159 3500 
L 1159 2956 
Q 1366 3272 1645 3428 
Q 1925 3584 2291 3584 
Q 2894 3584 3203 3211 
Q 3513 2838 3513 2113 
z
" transform="scale(0.015625)"/>
       <path id="DejaVuSans-72" d="M 2631 2963 
Q 2534 3019 2420 3045 
Q 2306 3072 2169 3072 
Q 1681 3072 1420 2755 
Q 1159 2438 1159 1844 
L 1159 0 
L 581 0 
L 581 3500 
L 1159 3500 
L 1159 2956 
Q 1341 3275 1631 3429 
Q 1922 3584 2338 3584 
Q 2397 3584 2469 3576 
Q 2541 3569 2628 3553 
L 2631 2963 
z
" transform="scale(0.015625)"/>
       <path id="DejaVuSans-61" d="M 2194 1759 
Q 1497 1759 1228 1600 
Q 959 1441 959 1056 
Q 959 750 1161 570 
Q 1363 391 1709 391 
Q 2188 391 2477 730 
Q 2766 1069 2766 1631 
L 2766 1759 
L 2194 1759 
z
M 3341 1997 
L 3341 0 
L 2766 0 
L 2766 531 
Q 2569 213 2275 61 
Q 1981 -91 1556 -91 
Q 1019 -91 701 211 
Q 384 513 384 1019 
Q 384 1609 779 1909 
Q 1175 2209 1959 2209 
L 2766 2209 
L 2766 2266 
Q 2766 2663 2505 2880 
Q 2244 3097 1772 3097 
Q 1472 3097 1187 3025 
Q 903 2953 641 2809 
L 641 3341 
Q 956 3463 1253 3523 
Q 1550 3584 1831 3584 
Q 2591 3584 2966 3190 
Q 3341 2797 3341 1997 
z
" transform="scale(0.015625)"/>
       <path id="DejaVuSans-74" d="M 1172 4494 
L 1172 3500 
L 2356 3500 
L 2356 3053 
L 1172 3053 
L 1172 1153 
Q 1172 725 1289 603 
Q 1406 481 1766 481 
L 2356 481 
L 2356 0 
L 1766 0 
Q 1100 0 847 248 
Q 594 497 594 1153 
L 594 3053 
L 172 3053 
L 172 3500 
L 594 3500 
L 594 4494 
L 1172 4494 
z
" transform="scale(0.015625)"/>
       <path id="DejaVuSans-69" d="M 603 3500 
L 1178 3500 
L 1178 0 
L 603 0 
L 603 3500 
z
M 603 4863 
L 1178 4863 
L 1178 4134 
L 603 4134 
L 603 4863 
z
" transform="scale(0.015625)"/>
       <path id="DejaVuSans-6f" d="M 1959 3097 
Q 1497 3097 1228 2736 
Q 959 2375 959 1747 
Q 959 1119 1226 758 
Q 1494 397 1959 397 
Q 2419 397 2687 759 
Q 2956 1122 2956 1747 
Q 2956 2369 2687 2733 
Q 2419 3097 1959 3097 
z
M 1959 3584 
Q 2709 3584 3137 3096 
Q 3566 2609 3566 1747 
Q 3566 888 3137 398 
Q 2709 -91 1959 -91 
Q 1206 -91 779 398 
Q 353 888 353 1747 
Q 353 2609 779 3096 
Q 1206 3584 1959 3584 
z
" transform="scale(0.015625)"/>
       <path id="DejaVuSans-73" d="M 2834 3397 
L 2834 2853 
Q 2591 2978 2328 3040 
Q 2066 3103 1784 3103 
Q 1356 3103 1142 2972 
Q 928 2841 928 2578 
Q 928 2378 1081 2264 
Q 1234 2150 1697 2047 
L 1894 2003 
Q 2506 1872 2764 1633 
Q 3022 1394 3022 966 
Q 3022 478 2636 193 
Q 2250 -91 1575 -91 
Q 1294 -91 989 -36 
Q 684 19 347 128 
L 347 722 
Q 666 556 975 473 
Q 1284 391 1588 391 
Q 1994 391 2212 530 
Q 2431 669 2431 922 
Q 2431 1156 2273 1281 
Q 2116 1406 1581 1522 
L 1381 1569 
Q 847 1681 609 1914 
Q 372 2147 372 2553 
Q 372 3047 722 3315 
Q 1072 3584 1716 3584 
Q 2034 3584 2315 3537 
Q 2597 3491 2834 3397 
z
" transform="scale(0.015625)"/>
      </defs>
      <use xlink:href="#DejaVuSans-47"/>
      <use xlink:href="#DejaVuSans-65" x="77.490234"/>
      <use xlink:href="#DejaVuSans-6e" x="139.013672"/>
      <use xlink:href="#DejaVuSans-65" x="202.392578"/>
      <use xlink:href="#DejaVuSans-72" x="263.916016"/>
      <use xlink:href="#DejaVuSans-61" x="305.029297"/>
      <use xlink:href="#DejaVuSans-74" x="366.308594"/>
      <use xlink:href="#DejaVuSans-69" x="405.517578"/>
      <use xlink:href="#DejaVuSans-6f" x="433.300781"/>
      <use xlink:href="#DejaVuSans-6e" x="494.482422"/>
      <use xlink:href="#DejaVuSans-73" x="557.861328"/>
     </g>
    </g>
   </g>
   <g id="matplotlib.axis_2">
    <g id="ytick_1">
     <g id="line2d_8">
      <defs>
       <path id="m4326b61014" d="M 0 0 
L -3.5 0 
" style="stroke: #000000; stroke-width: 0.8"/>
      </defs>
      <g>
       <use xlink:href="#m4326b61014" x="57.6" y="307.584" style="stroke: #000000; stroke-width: 0.8"/>
      </g>
     </g>
     <g id="text_9">
      <!-- 0 -->
      <g transform="translate(44.2375 311.383219)scale(0.1 -0.1)">
       <use xlink:href="#DejaVuSans-30"/>
      </g>
     </g>
    </g>
    <g id="ytick_2">
     <g id="line2d_9">
      <g>
       <use xlink:href="#m4326b61014" x="57.6" y="257.097944" style="stroke: #000000; stroke-width: 0.8"/>
      </g>
     </g>
     <g id="text_10">
      <!-- 50 -->
      <g transform="translate(37.875 260.897163)scale(0.1 -0.1)">
       <use xlink:href="#DejaVuSans-35"/>
       <use xlink:href="#DejaVuSans-30" x="63.623047"/>
      </g>
     </g>
    </g>
    <g id="ytick_3">
     <g id="line2d_10">
      <g>
       <use xlink:href="#m4326b61014" x="57.6" y="206.611888" style="stroke: #000000; stroke-width: 0.8"/>
      </g>
     </g>
     <g id="text_11">
      <!-- 100 -->
      <g transform="translate(31.5125 210.411107)scale(0.1 -0.1)">
       <use xlink:href="#DejaVuSans-31"/>
       <use xlink:href="#DejaVuSans-30" x="63.623047"/>
       <use xlink:href="#DejaVuSans-30" x="127.246094"/>
      </g>
     </g>
    </g>
    <g id="ytick_4">
     <g id="line2d_11">
      <g>
       <use xlink:href="#m4326b61014" x="57.6" y="156.125833" style="stroke: #000000; stroke-width: 0.8"/>
      </g>
     </g>
     <g id="text_12">
      <!-- 150 -->
      <g transform="translate(31.5125 159.925051)scale(0.1 -0.1)">
       <use xlink:href="#DejaVuSans-31"/>
       <use xlink:href="#DejaVuSans-35" x="63.623047"/>
       <use xlink:href="#DejaVuSans-30" x="127.246094"/>
      </g>
     </g>
    </g>
    <g id="ytick_5">
     <g id="line2d_12">
      <g>
       <use xlink:href="#m4326b61014" x="57.6" y="105.639777" style="stroke: #000000; stroke-width: 0.8"/>
      </g>
     </g>
     <g id="text_13">
      <!-- 200 -->
      <g transform="translate(31.5125 109.438996)scale(0.1 -0.1)">
       <use xlink:href="#DejaVuSans-32"/>
       <use xlink:href="#DejaVuSans-30" x="63.623047"/>
       <use xlink:href="#DejaVuSans-30" x="127.246094"/>
      </g>
     </g>
    </g>
    <g id="ytick_6">
     <g id="line2d_13">
      <g>
       <use xlink:href="#m4326b61014" x="57.6" y="55.153721" style="stroke: #000000; stroke-width: 0.8"/>
      </g>
     </g>
     <g id="text_14">
      <!-- 250 -->
      <g transform="translate(31.5125 58.95294)scale(0.1 -0.1)">
       <use xlink:href="#DejaVuSans-32"/>
       <use xlink:href="#DejaVuSans-35" x="63.623047"/>
       <use xlink:href="#DejaVuSans-30" x="127.246094"/>
      </g>
     </g>
    </g>
    <g id="text_15">
     <!-- Size per Species -->
     <g transform="translate(25.432812 215.520969)rotate(-90)scale(0.1 -0.1)">
      <defs>
       <path id="DejaVuSans-53" d="M 3425 4513 
L 3425 3897 
Q 3066 4069 2747 4153 
Q 2428 4238 2131 4238 
Q 1616 4238 1336 4038 
Q 1056 3838 1056 3469 
Q 1056 3159 1242 3001 
Q 1428 2844 1947 2747 
L 2328 2669 
Q 3034 2534 3370 2195 
Q 3706 1856 3706 1288 
Q 3706 609 3251 259 
Q 2797 -91 1919 -91 
Q 1588 -91 1214 -16 
Q 841 59 441 206 
L 441 856 
Q 825 641 1194 531 
Q 1563 422 1919 422 
Q 2459 422 2753 634 
Q 3047 847 3047 1241 
Q 3047 1584 2836 1778 
Q 2625 1972 2144 2069 
L 1759 2144 
Q 1053 2284 737 2584 
Q 422 2884 422 3419 
Q 422 4038 858 4394 
Q 1294 4750 2059 4750 
Q 2388 4750 2728 4690 
Q 3069 4631 3425 4513 
z
" transform="scale(0.015625)"/>
       <path id="DejaVuSans-7a" d="M 353 3500 
L 3084 3500 
L 3084 2975 
L 922 459 
L 3084 459 
L 3084 0 
L 275 0 
L 275 525 
L 2438 3041 
L 353 3041 
L 353 3500 
z
" transform="scale(0.015625)"/>
       <path id="DejaVuSans-20" transform="scale(0.015625)"/>
       <path id="DejaVuSans-70" d="M 1159 525 
L 1159 -1331 
L 581 -1331 
L 581 3500 
L 1159 3500 
L 1159 2969 
Q 1341 3281 1617 3432 
Q 1894 3584 2278 3584 
Q 2916 3584 3314 3078 
Q 3713 2572 3713 1747 
Q 3713 922 3314 415 
Q 2916 -91 2278 -91 
Q 1894 -91 1617 61 
Q 1341 213 1159 525 
z
M 3116 1747 
Q 3116 2381 2855 2742 
Q 2594 3103 2138 3103 
Q 1681 3103 1420 2742 
Q 1159 2381 1159 1747 
Q 1159 1113 1420 752 
Q 1681 391 2138 391 
Q 2594 391 2855 752 
Q 3116 1113 3116 1747 
z
" transform="scale(0.015625)"/>
       <path id="DejaVuSans-63" d="M 3122 3366 
L 3122 2828 
Q 2878 2963 2633 3030 
Q 2388 3097 2138 3097 
Q 1578 3097 1268 2742 
Q 959 2388 959 1747 
Q 959 1106 1268 751 
Q 1578 397 2138 397 
Q 2388 397 2633 464 
Q 2878 531 3122 666 
L 3122 134 
Q 2881 22 2623 -34 
Q 2366 -91 2075 -91 
Q 1284 -91 818 406 
Q 353 903 353 1747 
Q 353 2603 823 3093 
Q 1294 3584 2113 3584 
Q 2378 3584 2631 3529 
Q 2884 3475 3122 3366 
z
" transform="scale(0.015625)"/>
      </defs>
      <use xlink:href="#DejaVuSans-53"/>
      <use xlink:href="#DejaVuSans-69" x="63.476562"/>
      <use xlink:href="#DejaVuSans-7a" x="91.259766"/>
      <use xlink:href="#DejaVuSans-65" x="143.75"/>
      <use xlink:href="#DejaVuSans-20" x="205.273438"/>
      <use xlink:href="#DejaVuSans-70" x="237.060547"/>
      <use xlink:href="#DejaVuSans-65" x="300.537109"/>
      <use xlink:href="#DejaVuSans-72" x="362.060547"/>
      <use xlink:href="#DejaVuSans-20" x="403.173828"/>
      <use xlink:href="#DejaVuSans-53" x="434.960938"/>
      <use xlink:href="#DejaVuSans-70" x="498.4375"/>
      <use xlink:href="#DejaVuSans-65" x="561.914062"/>
      <use xlink:href="#DejaVuSans-63" x="623.4375"/>
      <use xlink:href="#DejaVuSans-69" x="678.417969"/>
      <use xlink:href="#DejaVuSans-65" x="706.201172"/>
      <use xlink:href="#DejaVuSans-73" x="767.724609"/>
     </g>
    </g>
   </g>
   <g id="patch_3">
    <path d="M 57.6 307.584 
L 57.6 41.472 
" style="fill: none; stroke: #000000; stroke-width: 0.8; stroke-linejoin: miter; stroke-linecap: square"/>
   </g>
   <g id="patch_4">
    <path d="M 414.72 307.584 
L 414.72 41.472 
" style="fill: none; stroke: #000000; stroke-width: 0.8; stroke-linejoin: miter; stroke-linecap: square"/>
   </g>
   <g id="patch_5">
    <path d="M 57.6 307.584 
L 414.72 307.584 
" style="fill: none; stroke: #000000; stroke-width: 0.8; stroke-linejoin: miter; stroke-linecap: square"/>
   </g>
   <g id="patch_6">
    <path d="M 57.6 41.472 
L 414.72 41.472 
" style="fill: none; stroke: #000000; stroke-width: 0.8; stroke-linejoin: miter; stroke-linecap: square"/>
   </g>
   <g id="text_16">
    <!-- Speciation -->
    <g transform="translate(204.714375 35.472)scale(0.12 -0.12)">
     <use xlink:href="#DejaVuSans-53"/>
     <use xlink:href="#DejaVuSans-70" x="63.476562"/>
     <use xlink:href="#DejaVuSans-65" x="126.953125"/>
     <use xlink:href="#DejaVuSans-63" x="188.476562"/>
     <use xlink:href="#DejaVuSans-69" x="243.457031"/>
     <use xlink:href="#DejaVuSans-61" x="271.240234"/>
     <use xlink:href="#DejaVuSans-74" x="332.519531"/>
     <use xlink:href="#DejaVuSans-69" x="371.728516"/>
     <use xlink:href="#DejaVuSans-6f" x="399.511719"/>
     <use xlink:href="#DejaVuSans-6e" x="460.693359"/>
    </g>
   </g>
  </g>
 </g>
 <defs>
  <clipPath id="pf694945d15">
   <rect x="57.6" y="41.472" width="357.12" height="266.112"/>
  </clipPath>
 </defs>
</svg>
